%TF.GenerationSoftware,KiCad,Pcbnew,(5.1.6)-1*%
%TF.CreationDate,2021-02-12T14:45:57+03:00*%
%TF.ProjectId,CearusTab,43656172-7573-4546-9162-2e6b69636164,rev?*%
%TF.SameCoordinates,Original*%
%TF.FileFunction,Copper,L1,Top*%
%TF.FilePolarity,Positive*%
%FSLAX46Y46*%
G04 Gerber Fmt 4.6, Leading zero omitted, Abs format (unit mm)*
G04 Created by KiCad (PCBNEW (5.1.6)-1) date 2021-02-12 14:45:57*
%MOMM*%
%LPD*%
G01*
G04 APERTURE LIST*
%TA.AperFunction,ComponentPad*%
%ADD10C,1.500000*%
%TD*%
%TA.AperFunction,ComponentPad*%
%ADD11O,1.700000X1.700000*%
%TD*%
%TA.AperFunction,ComponentPad*%
%ADD12R,1.700000X1.700000*%
%TD*%
%TA.AperFunction,SMDPad,CuDef*%
%ADD13R,1.500000X0.550000*%
%TD*%
%TA.AperFunction,SMDPad,CuDef*%
%ADD14R,0.550000X1.500000*%
%TD*%
%TA.AperFunction,SMDPad,CuDef*%
%ADD15R,1.060000X0.650000*%
%TD*%
%TA.AperFunction,ComponentPad*%
%ADD16C,2.286000*%
%TD*%
%TA.AperFunction,SMDPad,CuDef*%
%ADD17R,1.200000X1.900000*%
%TD*%
%TA.AperFunction,ComponentPad*%
%ADD18O,1.200000X1.900000*%
%TD*%
%TA.AperFunction,SMDPad,CuDef*%
%ADD19R,1.500000X1.900000*%
%TD*%
%TA.AperFunction,ComponentPad*%
%ADD20C,1.450000*%
%TD*%
%TA.AperFunction,SMDPad,CuDef*%
%ADD21R,0.400000X1.350000*%
%TD*%
%TA.AperFunction,ViaPad*%
%ADD22C,0.800000*%
%TD*%
%TA.AperFunction,Conductor*%
%ADD23C,0.250000*%
%TD*%
%TA.AperFunction,Conductor*%
%ADD24C,0.284480*%
%TD*%
%TA.AperFunction,Conductor*%
%ADD25C,0.200000*%
%TD*%
%TA.AperFunction,Conductor*%
%ADD26C,0.414020*%
%TD*%
G04 APERTURE END LIST*
%TO.P,Yellow1,2*%
%TO.N,Net-(R5-Pad1)*%
%TA.AperFunction,SMDPad,CuDef*%
G36*
G01*
X100675001Y-40785000D02*
X99774999Y-40785000D01*
G75*
G02*
X99525000Y-40535001I0J249999D01*
G01*
X99525000Y-39884999D01*
G75*
G02*
X99774999Y-39635000I249999J0D01*
G01*
X100675001Y-39635000D01*
G75*
G02*
X100925000Y-39884999I0J-249999D01*
G01*
X100925000Y-40535001D01*
G75*
G02*
X100675001Y-40785000I-249999J0D01*
G01*
G37*
%TD.AperFunction*%
%TO.P,Yellow1,1*%
%TO.N,GND*%
%TA.AperFunction,SMDPad,CuDef*%
G36*
G01*
X100675001Y-42835000D02*
X99774999Y-42835000D01*
G75*
G02*
X99525000Y-42585001I0J249999D01*
G01*
X99525000Y-41934999D01*
G75*
G02*
X99774999Y-41685000I249999J0D01*
G01*
X100675001Y-41685000D01*
G75*
G02*
X100925000Y-41934999I0J-249999D01*
G01*
X100925000Y-42585001D01*
G75*
G02*
X100675001Y-42835000I-249999J0D01*
G01*
G37*
%TD.AperFunction*%
%TD*%
D10*
%TO.P,Y1,2*%
%TO.N,xtal1*%
X98552000Y-24946000D03*
%TO.P,Y1,1*%
%TO.N,xtal2*%
X98552000Y-20066000D03*
%TD*%
D11*
%TO.P,usb_boot1,2*%
%TO.N,Net-(R7-Pad2)*%
X106680000Y-9906000D03*
D12*
%TO.P,usb_boot1,1*%
%TO.N,Net-(U2-Pad33)*%
X104140000Y-9906000D03*
%TD*%
D13*
%TO.P,U2,44*%
%TO.N,Unfiltered*%
X125432000Y-18778000D03*
%TO.P,U2,43*%
%TO.N,GND*%
X125432000Y-19578000D03*
%TO.P,U2,42*%
%TO.N,Net-(C3-Pad1)*%
X125432000Y-20378000D03*
%TO.P,U2,41*%
%TO.N,Net-(U2-Pad41)*%
X125432000Y-21178000D03*
%TO.P,U2,40*%
%TO.N,Net-(U2-Pad40)*%
X125432000Y-21978000D03*
%TO.P,U2,39*%
%TO.N,Net-(U2-Pad39)*%
X125432000Y-22778000D03*
%TO.P,U2,38*%
%TO.N,Net-(U2-Pad38)*%
X125432000Y-23578000D03*
%TO.P,U2,37*%
%TO.N,Net-(U2-Pad37)*%
X125432000Y-24378000D03*
%TO.P,U2,36*%
%TO.N,Net-(U2-Pad36)*%
X125432000Y-25178000D03*
%TO.P,U2,35*%
%TO.N,GND*%
X125432000Y-25978000D03*
%TO.P,U2,34*%
%TO.N,Unfiltered*%
X125432000Y-26778000D03*
D14*
%TO.P,U2,33*%
%TO.N,Net-(U2-Pad33)*%
X123732000Y-28478000D03*
%TO.P,U2,32*%
%TO.N,Net-(U2-Pad32)*%
X122932000Y-28478000D03*
%TO.P,U2,31*%
%TO.N,Net-(U2-Pad31)*%
X122132000Y-28478000D03*
%TO.P,U2,30*%
%TO.N,7*%
X121332000Y-28478000D03*
%TO.P,U2,29*%
%TO.N,6*%
X120532000Y-28478000D03*
%TO.P,U2,28*%
%TO.N,5*%
X119732000Y-28478000D03*
%TO.P,U2,27*%
%TO.N,Net-(U2-Pad27)*%
X118932000Y-28478000D03*
%TO.P,U2,26*%
%TO.N,Net-(U2-Pad26)*%
X118132000Y-28478000D03*
%TO.P,U2,25*%
%TO.N,Net-(U2-Pad25)*%
X117332000Y-28478000D03*
%TO.P,U2,24*%
%TO.N,Unfiltered*%
X116532000Y-28478000D03*
%TO.P,U2,23*%
%TO.N,GND*%
X115732000Y-28478000D03*
D13*
%TO.P,U2,22*%
%TO.N,Net-(R5-Pad2)*%
X114032000Y-26778000D03*
%TO.P,U2,21*%
%TO.N,TX*%
X114032000Y-25978000D03*
%TO.P,U2,20*%
%TO.N,RX*%
X114032000Y-25178000D03*
%TO.P,U2,19*%
%TO.N,SDA*%
X114032000Y-24378000D03*
%TO.P,U2,18*%
%TO.N,SCL*%
X114032000Y-23578000D03*
%TO.P,U2,17*%
%TO.N,xtal1*%
X114032000Y-22778000D03*
%TO.P,U2,16*%
%TO.N,xtal2*%
X114032000Y-21978000D03*
%TO.P,U2,15*%
%TO.N,GND*%
X114032000Y-21178000D03*
%TO.P,U2,14*%
%TO.N,Unfiltered*%
X114032000Y-20378000D03*
%TO.P,U2,13*%
%TO.N,rst*%
X114032000Y-19578000D03*
%TO.P,U2,12*%
%TO.N,8*%
X114032000Y-18778000D03*
D14*
%TO.P,U2,11*%
%TO.N,4*%
X115732000Y-17078000D03*
%TO.P,U2,10*%
%TO.N,3*%
X116532000Y-17078000D03*
%TO.P,U2,9*%
%TO.N,2*%
X117332000Y-17078000D03*
%TO.P,U2,8*%
%TO.N,1*%
X118132000Y-17078000D03*
%TO.P,U2,7*%
%TO.N,Unfiltered*%
X118932000Y-17078000D03*
%TO.P,U2,6*%
%TO.N,Net-(C4-Pad1)*%
X119732000Y-17078000D03*
%TO.P,U2,5*%
%TO.N,GND*%
X120532000Y-17078000D03*
%TO.P,U2,4*%
%TO.N,Net-(R2-Pad1)*%
X121332000Y-17078000D03*
%TO.P,U2,3*%
%TO.N,Net-(R3-Pad1)*%
X122132000Y-17078000D03*
%TO.P,U2,2*%
%TO.N,Unfiltered*%
X122932000Y-17078000D03*
%TO.P,U2,1*%
%TO.N,Net-(U2-Pad1)*%
X123732000Y-17078000D03*
%TD*%
D15*
%TO.P,U1,5*%
%TO.N,Unfiltered*%
X122799200Y-9014500D03*
%TO.P,U1,6*%
%TO.N,Net-(R3-Pad2)*%
X122799200Y-8064500D03*
%TO.P,U1,4*%
%TO.N,Net-(J1-Pad2)*%
X122799200Y-9964500D03*
%TO.P,U1,3*%
%TO.N,Net-(J1-Pad3)*%
X120599200Y-9964500D03*
%TO.P,U1,2*%
%TO.N,Net-(C7-Pad1)*%
X120599200Y-9014500D03*
%TO.P,U1,1*%
%TO.N,Net-(R2-Pad2)*%
X120599200Y-8064500D03*
%TD*%
D16*
%TO.P,SW8,1*%
%TO.N,8*%
X281940000Y-5080000D03*
%TO.P,SW8,2*%
%TO.N,Unfiltered*%
X275590000Y-7620000D03*
%TD*%
%TO.P,SW7,1*%
%TO.N,7*%
X264160000Y-5080000D03*
%TO.P,SW7,2*%
%TO.N,Unfiltered*%
X257810000Y-7620000D03*
%TD*%
%TO.P,SW6,1*%
%TO.N,6*%
X246380000Y-5080000D03*
%TO.P,SW6,2*%
%TO.N,Unfiltered*%
X240030000Y-7620000D03*
%TD*%
%TO.P,SW5,1*%
%TO.N,5*%
X228600000Y-5080000D03*
%TO.P,SW5,2*%
%TO.N,Unfiltered*%
X222250000Y-7620000D03*
%TD*%
%TO.P,SW4,1*%
%TO.N,4*%
X210820000Y-5080000D03*
%TO.P,SW4,2*%
%TO.N,Unfiltered*%
X204470000Y-7620000D03*
%TD*%
%TO.P,SW3,1*%
%TO.N,3*%
X193040000Y-5080000D03*
%TO.P,SW3,2*%
%TO.N,Unfiltered*%
X186690000Y-7620000D03*
%TD*%
%TO.P,SW2,1*%
%TO.N,2*%
X175260000Y-5080000D03*
%TO.P,SW2,2*%
%TO.N,Unfiltered*%
X168910000Y-7620000D03*
%TD*%
%TO.P,SW1,1*%
%TO.N,1*%
X157480000Y-5080000D03*
%TO.P,SW1,2*%
%TO.N,Unfiltered*%
X151130000Y-7620000D03*
%TD*%
%TO.P,reset1,2*%
%TO.N,Net-(R8-Pad1)*%
%TA.AperFunction,SMDPad,CuDef*%
G36*
G01*
X120979000Y-36583000D02*
X120979000Y-38733000D01*
G75*
G02*
X120729000Y-38983000I-250000J0D01*
G01*
X119804000Y-38983000D01*
G75*
G02*
X119554000Y-38733000I0J250000D01*
G01*
X119554000Y-36583000D01*
G75*
G02*
X119804000Y-36333000I250000J0D01*
G01*
X120729000Y-36333000D01*
G75*
G02*
X120979000Y-36583000I0J-250000D01*
G01*
G37*
%TD.AperFunction*%
%TO.P,reset1,1*%
%TO.N,GND*%
%TA.AperFunction,SMDPad,CuDef*%
G36*
G01*
X123954000Y-36583000D02*
X123954000Y-38733000D01*
G75*
G02*
X123704000Y-38983000I-250000J0D01*
G01*
X122779000Y-38983000D01*
G75*
G02*
X122529000Y-38733000I0J250000D01*
G01*
X122529000Y-36583000D01*
G75*
G02*
X122779000Y-36333000I250000J0D01*
G01*
X123704000Y-36333000D01*
G75*
G02*
X123954000Y-36583000I0J-250000D01*
G01*
G37*
%TD.AperFunction*%
%TD*%
%TO.P,R16,2*%
%TO.N,8*%
%TA.AperFunction,SMDPad,CuDef*%
G36*
G01*
X281227500Y-21395000D02*
X281227500Y-19245000D01*
G75*
G02*
X281477500Y-18995000I250000J0D01*
G01*
X282402500Y-18995000D01*
G75*
G02*
X282652500Y-19245000I0J-250000D01*
G01*
X282652500Y-21395000D01*
G75*
G02*
X282402500Y-21645000I-250000J0D01*
G01*
X281477500Y-21645000D01*
G75*
G02*
X281227500Y-21395000I0J250000D01*
G01*
G37*
%TD.AperFunction*%
%TO.P,R16,1*%
%TO.N,GND*%
%TA.AperFunction,SMDPad,CuDef*%
G36*
G01*
X278252500Y-21395000D02*
X278252500Y-19245000D01*
G75*
G02*
X278502500Y-18995000I250000J0D01*
G01*
X279427500Y-18995000D01*
G75*
G02*
X279677500Y-19245000I0J-250000D01*
G01*
X279677500Y-21395000D01*
G75*
G02*
X279427500Y-21645000I-250000J0D01*
G01*
X278502500Y-21645000D01*
G75*
G02*
X278252500Y-21395000I0J250000D01*
G01*
G37*
%TD.AperFunction*%
%TD*%
%TO.P,R15,2*%
%TO.N,7*%
%TA.AperFunction,SMDPad,CuDef*%
G36*
G01*
X263447500Y-21395000D02*
X263447500Y-19245000D01*
G75*
G02*
X263697500Y-18995000I250000J0D01*
G01*
X264622500Y-18995000D01*
G75*
G02*
X264872500Y-19245000I0J-250000D01*
G01*
X264872500Y-21395000D01*
G75*
G02*
X264622500Y-21645000I-250000J0D01*
G01*
X263697500Y-21645000D01*
G75*
G02*
X263447500Y-21395000I0J250000D01*
G01*
G37*
%TD.AperFunction*%
%TO.P,R15,1*%
%TO.N,GND*%
%TA.AperFunction,SMDPad,CuDef*%
G36*
G01*
X260472500Y-21395000D02*
X260472500Y-19245000D01*
G75*
G02*
X260722500Y-18995000I250000J0D01*
G01*
X261647500Y-18995000D01*
G75*
G02*
X261897500Y-19245000I0J-250000D01*
G01*
X261897500Y-21395000D01*
G75*
G02*
X261647500Y-21645000I-250000J0D01*
G01*
X260722500Y-21645000D01*
G75*
G02*
X260472500Y-21395000I0J250000D01*
G01*
G37*
%TD.AperFunction*%
%TD*%
%TO.P,R14,2*%
%TO.N,6*%
%TA.AperFunction,SMDPad,CuDef*%
G36*
G01*
X245667500Y-21395000D02*
X245667500Y-19245000D01*
G75*
G02*
X245917500Y-18995000I250000J0D01*
G01*
X246842500Y-18995000D01*
G75*
G02*
X247092500Y-19245000I0J-250000D01*
G01*
X247092500Y-21395000D01*
G75*
G02*
X246842500Y-21645000I-250000J0D01*
G01*
X245917500Y-21645000D01*
G75*
G02*
X245667500Y-21395000I0J250000D01*
G01*
G37*
%TD.AperFunction*%
%TO.P,R14,1*%
%TO.N,GND*%
%TA.AperFunction,SMDPad,CuDef*%
G36*
G01*
X242692500Y-21395000D02*
X242692500Y-19245000D01*
G75*
G02*
X242942500Y-18995000I250000J0D01*
G01*
X243867500Y-18995000D01*
G75*
G02*
X244117500Y-19245000I0J-250000D01*
G01*
X244117500Y-21395000D01*
G75*
G02*
X243867500Y-21645000I-250000J0D01*
G01*
X242942500Y-21645000D01*
G75*
G02*
X242692500Y-21395000I0J250000D01*
G01*
G37*
%TD.AperFunction*%
%TD*%
%TO.P,R13,2*%
%TO.N,5*%
%TA.AperFunction,SMDPad,CuDef*%
G36*
G01*
X227887500Y-21395000D02*
X227887500Y-19245000D01*
G75*
G02*
X228137500Y-18995000I250000J0D01*
G01*
X229062500Y-18995000D01*
G75*
G02*
X229312500Y-19245000I0J-250000D01*
G01*
X229312500Y-21395000D01*
G75*
G02*
X229062500Y-21645000I-250000J0D01*
G01*
X228137500Y-21645000D01*
G75*
G02*
X227887500Y-21395000I0J250000D01*
G01*
G37*
%TD.AperFunction*%
%TO.P,R13,1*%
%TO.N,GND*%
%TA.AperFunction,SMDPad,CuDef*%
G36*
G01*
X224912500Y-21395000D02*
X224912500Y-19245000D01*
G75*
G02*
X225162500Y-18995000I250000J0D01*
G01*
X226087500Y-18995000D01*
G75*
G02*
X226337500Y-19245000I0J-250000D01*
G01*
X226337500Y-21395000D01*
G75*
G02*
X226087500Y-21645000I-250000J0D01*
G01*
X225162500Y-21645000D01*
G75*
G02*
X224912500Y-21395000I0J250000D01*
G01*
G37*
%TD.AperFunction*%
%TD*%
%TO.P,R12,2*%
%TO.N,4*%
%TA.AperFunction,SMDPad,CuDef*%
G36*
G01*
X209055000Y-21395000D02*
X209055000Y-19245000D01*
G75*
G02*
X209305000Y-18995000I250000J0D01*
G01*
X210230000Y-18995000D01*
G75*
G02*
X210480000Y-19245000I0J-250000D01*
G01*
X210480000Y-21395000D01*
G75*
G02*
X210230000Y-21645000I-250000J0D01*
G01*
X209305000Y-21645000D01*
G75*
G02*
X209055000Y-21395000I0J250000D01*
G01*
G37*
%TD.AperFunction*%
%TO.P,R12,1*%
%TO.N,GND*%
%TA.AperFunction,SMDPad,CuDef*%
G36*
G01*
X206080000Y-21395000D02*
X206080000Y-19245000D01*
G75*
G02*
X206330000Y-18995000I250000J0D01*
G01*
X207255000Y-18995000D01*
G75*
G02*
X207505000Y-19245000I0J-250000D01*
G01*
X207505000Y-21395000D01*
G75*
G02*
X207255000Y-21645000I-250000J0D01*
G01*
X206330000Y-21645000D01*
G75*
G02*
X206080000Y-21395000I0J250000D01*
G01*
G37*
%TD.AperFunction*%
%TD*%
%TO.P,R11,2*%
%TO.N,3*%
%TA.AperFunction,SMDPad,CuDef*%
G36*
G01*
X192545000Y-21395000D02*
X192545000Y-19245000D01*
G75*
G02*
X192795000Y-18995000I250000J0D01*
G01*
X193720000Y-18995000D01*
G75*
G02*
X193970000Y-19245000I0J-250000D01*
G01*
X193970000Y-21395000D01*
G75*
G02*
X193720000Y-21645000I-250000J0D01*
G01*
X192795000Y-21645000D01*
G75*
G02*
X192545000Y-21395000I0J250000D01*
G01*
G37*
%TD.AperFunction*%
%TO.P,R11,1*%
%TO.N,GND*%
%TA.AperFunction,SMDPad,CuDef*%
G36*
G01*
X189570000Y-21395000D02*
X189570000Y-19245000D01*
G75*
G02*
X189820000Y-18995000I250000J0D01*
G01*
X190745000Y-18995000D01*
G75*
G02*
X190995000Y-19245000I0J-250000D01*
G01*
X190995000Y-21395000D01*
G75*
G02*
X190745000Y-21645000I-250000J0D01*
G01*
X189820000Y-21645000D01*
G75*
G02*
X189570000Y-21395000I0J250000D01*
G01*
G37*
%TD.AperFunction*%
%TD*%
%TO.P,R10,2*%
%TO.N,2*%
%TA.AperFunction,SMDPad,CuDef*%
G36*
G01*
X173277500Y-21395000D02*
X173277500Y-19245000D01*
G75*
G02*
X173527500Y-18995000I250000J0D01*
G01*
X174452500Y-18995000D01*
G75*
G02*
X174702500Y-19245000I0J-250000D01*
G01*
X174702500Y-21395000D01*
G75*
G02*
X174452500Y-21645000I-250000J0D01*
G01*
X173527500Y-21645000D01*
G75*
G02*
X173277500Y-21395000I0J250000D01*
G01*
G37*
%TD.AperFunction*%
%TO.P,R10,1*%
%TO.N,GND*%
%TA.AperFunction,SMDPad,CuDef*%
G36*
G01*
X170302500Y-21395000D02*
X170302500Y-19245000D01*
G75*
G02*
X170552500Y-18995000I250000J0D01*
G01*
X171477500Y-18995000D01*
G75*
G02*
X171727500Y-19245000I0J-250000D01*
G01*
X171727500Y-21395000D01*
G75*
G02*
X171477500Y-21645000I-250000J0D01*
G01*
X170552500Y-21645000D01*
G75*
G02*
X170302500Y-21395000I0J250000D01*
G01*
G37*
%TD.AperFunction*%
%TD*%
%TO.P,R9,2*%
%TO.N,1*%
%TA.AperFunction,SMDPad,CuDef*%
G36*
G01*
X156767500Y-21395000D02*
X156767500Y-19245000D01*
G75*
G02*
X157017500Y-18995000I250000J0D01*
G01*
X157942500Y-18995000D01*
G75*
G02*
X158192500Y-19245000I0J-250000D01*
G01*
X158192500Y-21395000D01*
G75*
G02*
X157942500Y-21645000I-250000J0D01*
G01*
X157017500Y-21645000D01*
G75*
G02*
X156767500Y-21395000I0J250000D01*
G01*
G37*
%TD.AperFunction*%
%TO.P,R9,1*%
%TO.N,GND*%
%TA.AperFunction,SMDPad,CuDef*%
G36*
G01*
X153792500Y-21395000D02*
X153792500Y-19245000D01*
G75*
G02*
X154042500Y-18995000I250000J0D01*
G01*
X154967500Y-18995000D01*
G75*
G02*
X155217500Y-19245000I0J-250000D01*
G01*
X155217500Y-21395000D01*
G75*
G02*
X154967500Y-21645000I-250000J0D01*
G01*
X154042500Y-21645000D01*
G75*
G02*
X153792500Y-21395000I0J250000D01*
G01*
G37*
%TD.AperFunction*%
%TD*%
%TO.P,R8,2*%
%TO.N,rst*%
%TA.AperFunction,SMDPad,CuDef*%
G36*
G01*
X115774500Y-36517000D02*
X115774500Y-38667000D01*
G75*
G02*
X115524500Y-38917000I-250000J0D01*
G01*
X114599500Y-38917000D01*
G75*
G02*
X114349500Y-38667000I0J250000D01*
G01*
X114349500Y-36517000D01*
G75*
G02*
X114599500Y-36267000I250000J0D01*
G01*
X115524500Y-36267000D01*
G75*
G02*
X115774500Y-36517000I0J-250000D01*
G01*
G37*
%TD.AperFunction*%
%TO.P,R8,1*%
%TO.N,Net-(R8-Pad1)*%
%TA.AperFunction,SMDPad,CuDef*%
G36*
G01*
X118749500Y-36517000D02*
X118749500Y-38667000D01*
G75*
G02*
X118499500Y-38917000I-250000J0D01*
G01*
X117574500Y-38917000D01*
G75*
G02*
X117324500Y-38667000I0J250000D01*
G01*
X117324500Y-36517000D01*
G75*
G02*
X117574500Y-36267000I250000J0D01*
G01*
X118499500Y-36267000D01*
G75*
G02*
X118749500Y-36517000I0J-250000D01*
G01*
G37*
%TD.AperFunction*%
%TD*%
%TO.P,R7,2*%
%TO.N,Net-(R7-Pad2)*%
%TA.AperFunction,SMDPad,CuDef*%
G36*
G01*
X101593000Y-9181000D02*
X99443000Y-9181000D01*
G75*
G02*
X99193000Y-8931000I0J250000D01*
G01*
X99193000Y-8006000D01*
G75*
G02*
X99443000Y-7756000I250000J0D01*
G01*
X101593000Y-7756000D01*
G75*
G02*
X101843000Y-8006000I0J-250000D01*
G01*
X101843000Y-8931000D01*
G75*
G02*
X101593000Y-9181000I-250000J0D01*
G01*
G37*
%TD.AperFunction*%
%TO.P,R7,1*%
%TO.N,GND*%
%TA.AperFunction,SMDPad,CuDef*%
G36*
G01*
X101593000Y-12156000D02*
X99443000Y-12156000D01*
G75*
G02*
X99193000Y-11906000I0J250000D01*
G01*
X99193000Y-10981000D01*
G75*
G02*
X99443000Y-10731000I250000J0D01*
G01*
X101593000Y-10731000D01*
G75*
G02*
X101843000Y-10981000I0J-250000D01*
G01*
X101843000Y-11906000D01*
G75*
G02*
X101593000Y-12156000I-250000J0D01*
G01*
G37*
%TD.AperFunction*%
%TD*%
%TO.P,R6,2*%
%TO.N,xtal1*%
%TA.AperFunction,SMDPad,CuDef*%
G36*
G01*
X108145000Y-23163500D02*
X110295000Y-23163500D01*
G75*
G02*
X110545000Y-23413500I0J-250000D01*
G01*
X110545000Y-24338500D01*
G75*
G02*
X110295000Y-24588500I-250000J0D01*
G01*
X108145000Y-24588500D01*
G75*
G02*
X107895000Y-24338500I0J250000D01*
G01*
X107895000Y-23413500D01*
G75*
G02*
X108145000Y-23163500I250000J0D01*
G01*
G37*
%TD.AperFunction*%
%TO.P,R6,1*%
%TO.N,xtal2*%
%TA.AperFunction,SMDPad,CuDef*%
G36*
G01*
X108145000Y-20188500D02*
X110295000Y-20188500D01*
G75*
G02*
X110545000Y-20438500I0J-250000D01*
G01*
X110545000Y-21363500D01*
G75*
G02*
X110295000Y-21613500I-250000J0D01*
G01*
X108145000Y-21613500D01*
G75*
G02*
X107895000Y-21363500I0J250000D01*
G01*
X107895000Y-20438500D01*
G75*
G02*
X108145000Y-20188500I250000J0D01*
G01*
G37*
%TD.AperFunction*%
%TD*%
%TO.P,R5,2*%
%TO.N,Net-(R5-Pad2)*%
%TA.AperFunction,SMDPad,CuDef*%
G36*
G01*
X105215000Y-40082500D02*
X103065000Y-40082500D01*
G75*
G02*
X102815000Y-39832500I0J250000D01*
G01*
X102815000Y-38907500D01*
G75*
G02*
X103065000Y-38657500I250000J0D01*
G01*
X105215000Y-38657500D01*
G75*
G02*
X105465000Y-38907500I0J-250000D01*
G01*
X105465000Y-39832500D01*
G75*
G02*
X105215000Y-40082500I-250000J0D01*
G01*
G37*
%TD.AperFunction*%
%TO.P,R5,1*%
%TO.N,Net-(R5-Pad1)*%
%TA.AperFunction,SMDPad,CuDef*%
G36*
G01*
X105215000Y-43057500D02*
X103065000Y-43057500D01*
G75*
G02*
X102815000Y-42807500I0J250000D01*
G01*
X102815000Y-41882500D01*
G75*
G02*
X103065000Y-41632500I250000J0D01*
G01*
X105215000Y-41632500D01*
G75*
G02*
X105465000Y-41882500I0J-250000D01*
G01*
X105465000Y-42807500D01*
G75*
G02*
X105215000Y-43057500I-250000J0D01*
G01*
G37*
%TD.AperFunction*%
%TD*%
%TO.P,R4,2*%
%TO.N,Unfiltered*%
%TA.AperFunction,SMDPad,CuDef*%
G36*
G01*
X119937500Y-34095000D02*
X119937500Y-31945000D01*
G75*
G02*
X120187500Y-31695000I250000J0D01*
G01*
X121112500Y-31695000D01*
G75*
G02*
X121362500Y-31945000I0J-250000D01*
G01*
X121362500Y-34095000D01*
G75*
G02*
X121112500Y-34345000I-250000J0D01*
G01*
X120187500Y-34345000D01*
G75*
G02*
X119937500Y-34095000I0J250000D01*
G01*
G37*
%TD.AperFunction*%
%TO.P,R4,1*%
%TO.N,rst*%
%TA.AperFunction,SMDPad,CuDef*%
G36*
G01*
X116962500Y-34095000D02*
X116962500Y-31945000D01*
G75*
G02*
X117212500Y-31695000I250000J0D01*
G01*
X118137500Y-31695000D01*
G75*
G02*
X118387500Y-31945000I0J-250000D01*
G01*
X118387500Y-34095000D01*
G75*
G02*
X118137500Y-34345000I-250000J0D01*
G01*
X117212500Y-34345000D01*
G75*
G02*
X116962500Y-34095000I0J250000D01*
G01*
G37*
%TD.AperFunction*%
%TD*%
%TO.P,R3,2*%
%TO.N,Net-(R3-Pad2)*%
%TA.AperFunction,SMDPad,CuDef*%
G36*
G01*
X126335100Y-8891300D02*
X124185100Y-8891300D01*
G75*
G02*
X123935100Y-8641300I0J250000D01*
G01*
X123935100Y-7716300D01*
G75*
G02*
X124185100Y-7466300I250000J0D01*
G01*
X126335100Y-7466300D01*
G75*
G02*
X126585100Y-7716300I0J-250000D01*
G01*
X126585100Y-8641300D01*
G75*
G02*
X126335100Y-8891300I-250000J0D01*
G01*
G37*
%TD.AperFunction*%
%TO.P,R3,1*%
%TO.N,Net-(R3-Pad1)*%
%TA.AperFunction,SMDPad,CuDef*%
G36*
G01*
X126335100Y-11866300D02*
X124185100Y-11866300D01*
G75*
G02*
X123935100Y-11616300I0J250000D01*
G01*
X123935100Y-10691300D01*
G75*
G02*
X124185100Y-10441300I250000J0D01*
G01*
X126335100Y-10441300D01*
G75*
G02*
X126585100Y-10691300I0J-250000D01*
G01*
X126585100Y-11616300D01*
G75*
G02*
X126335100Y-11866300I-250000J0D01*
G01*
G37*
%TD.AperFunction*%
%TD*%
%TO.P,R2,2*%
%TO.N,Net-(R2-Pad2)*%
%TA.AperFunction,SMDPad,CuDef*%
G36*
G01*
X119223100Y-8865900D02*
X117073100Y-8865900D01*
G75*
G02*
X116823100Y-8615900I0J250000D01*
G01*
X116823100Y-7690900D01*
G75*
G02*
X117073100Y-7440900I250000J0D01*
G01*
X119223100Y-7440900D01*
G75*
G02*
X119473100Y-7690900I0J-250000D01*
G01*
X119473100Y-8615900D01*
G75*
G02*
X119223100Y-8865900I-250000J0D01*
G01*
G37*
%TD.AperFunction*%
%TO.P,R2,1*%
%TO.N,Net-(R2-Pad1)*%
%TA.AperFunction,SMDPad,CuDef*%
G36*
G01*
X119223100Y-11840900D02*
X117073100Y-11840900D01*
G75*
G02*
X116823100Y-11590900I0J250000D01*
G01*
X116823100Y-10665900D01*
G75*
G02*
X117073100Y-10415900I250000J0D01*
G01*
X119223100Y-10415900D01*
G75*
G02*
X119473100Y-10665900I0J-250000D01*
G01*
X119473100Y-11590900D01*
G75*
G02*
X119223100Y-11840900I-250000J0D01*
G01*
G37*
%TD.AperFunction*%
%TD*%
%TO.P,R1,2*%
%TO.N,VBUS*%
%TA.AperFunction,SMDPad,CuDef*%
G36*
G01*
X133155000Y-10872500D02*
X131005000Y-10872500D01*
G75*
G02*
X130755000Y-10622500I0J250000D01*
G01*
X130755000Y-9697500D01*
G75*
G02*
X131005000Y-9447500I250000J0D01*
G01*
X133155000Y-9447500D01*
G75*
G02*
X133405000Y-9697500I0J-250000D01*
G01*
X133405000Y-10622500D01*
G75*
G02*
X133155000Y-10872500I-250000J0D01*
G01*
G37*
%TD.AperFunction*%
%TO.P,R1,1*%
%TO.N,Net-(Power_red1-Pad2)*%
%TA.AperFunction,SMDPad,CuDef*%
G36*
G01*
X133155000Y-13847500D02*
X131005000Y-13847500D01*
G75*
G02*
X130755000Y-13597500I0J250000D01*
G01*
X130755000Y-12672500D01*
G75*
G02*
X131005000Y-12422500I250000J0D01*
G01*
X133155000Y-12422500D01*
G75*
G02*
X133405000Y-12672500I0J-250000D01*
G01*
X133405000Y-13597500D01*
G75*
G02*
X133155000Y-13847500I-250000J0D01*
G01*
G37*
%TD.AperFunction*%
%TD*%
%TO.P,Power_red1,2*%
%TO.N,Net-(Power_red1-Pad2)*%
%TA.AperFunction,SMDPad,CuDef*%
G36*
G01*
X136814999Y-12845000D02*
X137715001Y-12845000D01*
G75*
G02*
X137965000Y-13094999I0J-249999D01*
G01*
X137965000Y-13745001D01*
G75*
G02*
X137715001Y-13995000I-249999J0D01*
G01*
X136814999Y-13995000D01*
G75*
G02*
X136565000Y-13745001I0J249999D01*
G01*
X136565000Y-13094999D01*
G75*
G02*
X136814999Y-12845000I249999J0D01*
G01*
G37*
%TD.AperFunction*%
%TO.P,Power_red1,1*%
%TO.N,GND*%
%TA.AperFunction,SMDPad,CuDef*%
G36*
G01*
X136814999Y-10795000D02*
X137715001Y-10795000D01*
G75*
G02*
X137965000Y-11044999I0J-249999D01*
G01*
X137965000Y-11695001D01*
G75*
G02*
X137715001Y-11945000I-249999J0D01*
G01*
X136814999Y-11945000D01*
G75*
G02*
X136565000Y-11695001I0J249999D01*
G01*
X136565000Y-11044999D01*
G75*
G02*
X136814999Y-10795000I249999J0D01*
G01*
G37*
%TD.AperFunction*%
%TD*%
D11*
%TO.P,J2,5*%
%TO.N,rst*%
X106680000Y-34798000D03*
%TO.P,J2,4*%
%TO.N,TX*%
X104140000Y-34798000D03*
%TO.P,J2,3*%
%TO.N,RX*%
X101600000Y-34798000D03*
%TO.P,J2,2*%
%TO.N,SDA*%
X99060000Y-34798000D03*
D12*
%TO.P,J2,1*%
%TO.N,SCL*%
X96520000Y-34798000D03*
%TD*%
D17*
%TO.P,J1,6*%
%TO.N,GND*%
X124312000Y-3080500D03*
X118512000Y-3080500D03*
D18*
X117912000Y-3080500D03*
X124912000Y-3080500D03*
D19*
X122412000Y-3080500D03*
D20*
X118912000Y-5780500D03*
D21*
%TO.P,J1,3*%
%TO.N,Net-(J1-Pad3)*%
X121412000Y-5780500D03*
%TO.P,J1,4*%
%TO.N,Net-(J1-Pad4)*%
X120762000Y-5780500D03*
%TO.P,J1,5*%
%TO.N,GND*%
X120112000Y-5780500D03*
%TO.P,J1,1*%
%TO.N,VBUS*%
X122712000Y-5780500D03*
%TO.P,J1,2*%
%TO.N,Net-(J1-Pad2)*%
X122062000Y-5780500D03*
D20*
%TO.P,J1,6*%
%TO.N,GND*%
X123912000Y-5780500D03*
D19*
X120412000Y-3080500D03*
%TD*%
%TO.P,F1,2*%
%TO.N,VBUS*%
%TA.AperFunction,SMDPad,CuDef*%
G36*
G01*
X131435000Y-3579500D02*
X130185000Y-3579500D01*
G75*
G02*
X129935000Y-3329500I0J250000D01*
G01*
X129935000Y-2404500D01*
G75*
G02*
X130185000Y-2154500I250000J0D01*
G01*
X131435000Y-2154500D01*
G75*
G02*
X131685000Y-2404500I0J-250000D01*
G01*
X131685000Y-3329500D01*
G75*
G02*
X131435000Y-3579500I-250000J0D01*
G01*
G37*
%TD.AperFunction*%
%TO.P,F1,1*%
%TO.N,Unfiltered*%
%TA.AperFunction,SMDPad,CuDef*%
G36*
G01*
X131435000Y-6554500D02*
X130185000Y-6554500D01*
G75*
G02*
X129935000Y-6304500I0J250000D01*
G01*
X129935000Y-5379500D01*
G75*
G02*
X130185000Y-5129500I250000J0D01*
G01*
X131435000Y-5129500D01*
G75*
G02*
X131685000Y-5379500I0J-250000D01*
G01*
X131685000Y-6304500D01*
G75*
G02*
X131435000Y-6554500I-250000J0D01*
G01*
G37*
%TD.AperFunction*%
%TD*%
%TO.P,C8,2*%
%TO.N,Unfiltered*%
%TA.AperFunction,SMDPad,CuDef*%
G36*
G01*
X139895000Y-4585000D02*
X142045000Y-4585000D01*
G75*
G02*
X142295000Y-4835000I0J-250000D01*
G01*
X142295000Y-5760000D01*
G75*
G02*
X142045000Y-6010000I-250000J0D01*
G01*
X139895000Y-6010000D01*
G75*
G02*
X139645000Y-5760000I0J250000D01*
G01*
X139645000Y-4835000D01*
G75*
G02*
X139895000Y-4585000I250000J0D01*
G01*
G37*
%TD.AperFunction*%
%TO.P,C8,1*%
%TO.N,GND*%
%TA.AperFunction,SMDPad,CuDef*%
G36*
G01*
X139895000Y-1610000D02*
X142045000Y-1610000D01*
G75*
G02*
X142295000Y-1860000I0J-250000D01*
G01*
X142295000Y-2785000D01*
G75*
G02*
X142045000Y-3035000I-250000J0D01*
G01*
X139895000Y-3035000D01*
G75*
G02*
X139645000Y-2785000I0J250000D01*
G01*
X139645000Y-1860000D01*
G75*
G02*
X139895000Y-1610000I250000J0D01*
G01*
G37*
%TD.AperFunction*%
%TD*%
%TO.P,C7,2*%
%TO.N,GND*%
%TA.AperFunction,SMDPad,CuDef*%
G36*
G01*
X116149700Y-3947800D02*
X113999700Y-3947800D01*
G75*
G02*
X113749700Y-3697800I0J250000D01*
G01*
X113749700Y-2772800D01*
G75*
G02*
X113999700Y-2522800I250000J0D01*
G01*
X116149700Y-2522800D01*
G75*
G02*
X116399700Y-2772800I0J-250000D01*
G01*
X116399700Y-3697800D01*
G75*
G02*
X116149700Y-3947800I-250000J0D01*
G01*
G37*
%TD.AperFunction*%
%TO.P,C7,1*%
%TO.N,Net-(C7-Pad1)*%
%TA.AperFunction,SMDPad,CuDef*%
G36*
G01*
X116149700Y-6922800D02*
X113999700Y-6922800D01*
G75*
G02*
X113749700Y-6672800I0J250000D01*
G01*
X113749700Y-5747800D01*
G75*
G02*
X113999700Y-5497800I250000J0D01*
G01*
X116149700Y-5497800D01*
G75*
G02*
X116399700Y-5747800I0J-250000D01*
G01*
X116399700Y-6672800D01*
G75*
G02*
X116149700Y-6922800I-250000J0D01*
G01*
G37*
%TD.AperFunction*%
%TD*%
%TO.P,C6,2*%
%TO.N,xtal1*%
%TA.AperFunction,SMDPad,CuDef*%
G36*
G01*
X104707000Y-26874500D02*
X102557000Y-26874500D01*
G75*
G02*
X102307000Y-26624500I0J250000D01*
G01*
X102307000Y-25699500D01*
G75*
G02*
X102557000Y-25449500I250000J0D01*
G01*
X104707000Y-25449500D01*
G75*
G02*
X104957000Y-25699500I0J-250000D01*
G01*
X104957000Y-26624500D01*
G75*
G02*
X104707000Y-26874500I-250000J0D01*
G01*
G37*
%TD.AperFunction*%
%TO.P,C6,1*%
%TO.N,GND*%
%TA.AperFunction,SMDPad,CuDef*%
G36*
G01*
X104707000Y-29849500D02*
X102557000Y-29849500D01*
G75*
G02*
X102307000Y-29599500I0J250000D01*
G01*
X102307000Y-28674500D01*
G75*
G02*
X102557000Y-28424500I250000J0D01*
G01*
X104707000Y-28424500D01*
G75*
G02*
X104957000Y-28674500I0J-250000D01*
G01*
X104957000Y-29599500D01*
G75*
G02*
X104707000Y-29849500I-250000J0D01*
G01*
G37*
%TD.AperFunction*%
%TD*%
%TO.P,C5,2*%
%TO.N,GND*%
%TA.AperFunction,SMDPad,CuDef*%
G36*
G01*
X104961000Y-16206500D02*
X102811000Y-16206500D01*
G75*
G02*
X102561000Y-15956500I0J250000D01*
G01*
X102561000Y-15031500D01*
G75*
G02*
X102811000Y-14781500I250000J0D01*
G01*
X104961000Y-14781500D01*
G75*
G02*
X105211000Y-15031500I0J-250000D01*
G01*
X105211000Y-15956500D01*
G75*
G02*
X104961000Y-16206500I-250000J0D01*
G01*
G37*
%TD.AperFunction*%
%TO.P,C5,1*%
%TO.N,xtal2*%
%TA.AperFunction,SMDPad,CuDef*%
G36*
G01*
X104961000Y-19181500D02*
X102811000Y-19181500D01*
G75*
G02*
X102561000Y-18931500I0J250000D01*
G01*
X102561000Y-18006500D01*
G75*
G02*
X102811000Y-17756500I250000J0D01*
G01*
X104961000Y-17756500D01*
G75*
G02*
X105211000Y-18006500I0J-250000D01*
G01*
X105211000Y-18931500D01*
G75*
G02*
X104961000Y-19181500I-250000J0D01*
G01*
G37*
%TD.AperFunction*%
%TD*%
%TO.P,C3,2*%
%TO.N,GND*%
%TA.AperFunction,SMDPad,CuDef*%
G36*
G01*
X129735000Y-22328500D02*
X131885000Y-22328500D01*
G75*
G02*
X132135000Y-22578500I0J-250000D01*
G01*
X132135000Y-23503500D01*
G75*
G02*
X131885000Y-23753500I-250000J0D01*
G01*
X129735000Y-23753500D01*
G75*
G02*
X129485000Y-23503500I0J250000D01*
G01*
X129485000Y-22578500D01*
G75*
G02*
X129735000Y-22328500I250000J0D01*
G01*
G37*
%TD.AperFunction*%
%TO.P,C3,1*%
%TO.N,Net-(C3-Pad1)*%
%TA.AperFunction,SMDPad,CuDef*%
G36*
G01*
X129735000Y-19353500D02*
X131885000Y-19353500D01*
G75*
G02*
X132135000Y-19603500I0J-250000D01*
G01*
X132135000Y-20528500D01*
G75*
G02*
X131885000Y-20778500I-250000J0D01*
G01*
X129735000Y-20778500D01*
G75*
G02*
X129485000Y-20528500I0J250000D01*
G01*
X129485000Y-19603500D01*
G75*
G02*
X129735000Y-19353500I250000J0D01*
G01*
G37*
%TD.AperFunction*%
%TD*%
%TO.P,C2,2*%
%TO.N,GND*%
%TA.AperFunction,SMDPad,CuDef*%
G36*
G01*
X146655000Y-3435000D02*
X144505000Y-3435000D01*
G75*
G02*
X144255000Y-3185000I0J250000D01*
G01*
X144255000Y-2260000D01*
G75*
G02*
X144505000Y-2010000I250000J0D01*
G01*
X146655000Y-2010000D01*
G75*
G02*
X146905000Y-2260000I0J-250000D01*
G01*
X146905000Y-3185000D01*
G75*
G02*
X146655000Y-3435000I-250000J0D01*
G01*
G37*
%TD.AperFunction*%
%TO.P,C2,1*%
%TO.N,Unfiltered*%
%TA.AperFunction,SMDPad,CuDef*%
G36*
G01*
X146655000Y-6410000D02*
X144505000Y-6410000D01*
G75*
G02*
X144255000Y-6160000I0J250000D01*
G01*
X144255000Y-5235000D01*
G75*
G02*
X144505000Y-4985000I250000J0D01*
G01*
X146655000Y-4985000D01*
G75*
G02*
X146905000Y-5235000I0J-250000D01*
G01*
X146905000Y-6160000D01*
G75*
G02*
X146655000Y-6410000I-250000J0D01*
G01*
G37*
%TD.AperFunction*%
%TD*%
%TO.P,C1,2*%
%TO.N,GND*%
%TA.AperFunction,SMDPad,CuDef*%
G36*
G01*
X135431500Y-4631000D02*
X135431500Y-2481000D01*
G75*
G02*
X135681500Y-2231000I250000J0D01*
G01*
X136606500Y-2231000D01*
G75*
G02*
X136856500Y-2481000I0J-250000D01*
G01*
X136856500Y-4631000D01*
G75*
G02*
X136606500Y-4881000I-250000J0D01*
G01*
X135681500Y-4881000D01*
G75*
G02*
X135431500Y-4631000I0J250000D01*
G01*
G37*
%TD.AperFunction*%
%TO.P,C1,1*%
%TO.N,VBUS*%
%TA.AperFunction,SMDPad,CuDef*%
G36*
G01*
X132456500Y-4631000D02*
X132456500Y-2481000D01*
G75*
G02*
X132706500Y-2231000I250000J0D01*
G01*
X133631500Y-2231000D01*
G75*
G02*
X133881500Y-2481000I0J-250000D01*
G01*
X133881500Y-4631000D01*
G75*
G02*
X133631500Y-4881000I-250000J0D01*
G01*
X132706500Y-4881000D01*
G75*
G02*
X132456500Y-4631000I0J250000D01*
G01*
G37*
%TD.AperFunction*%
%TD*%
D22*
%TO.N,*%
X96520000Y-17018000D03*
%TO.N,GND*%
X130810000Y-23114000D03*
X110490000Y-8890000D03*
X127000000Y-19558000D03*
X127000000Y-25146000D03*
X117440000Y-22190000D03*
X127456510Y-1829490D03*
X137265000Y-11370000D03*
X120650000Y-13970000D03*
%TO.N,VBUS*%
X132080000Y-10160000D03*
X127724499Y-4355501D03*
%TO.N,Unfiltered*%
X119380000Y-15240000D03*
X123698000Y-15494000D03*
X128270000Y-10668000D03*
X109723845Y-19054155D03*
%TO.N,Net-(C3-Pad1)*%
X130810000Y-20066000D03*
X127000000Y-20574000D03*
%TO.N,Net-(C4-Pad1)*%
X110490000Y-11430000D03*
%TO.N,Net-(C7-Pad1)*%
X115062000Y-6146800D03*
X120573800Y-8991600D03*
%TO.N,rst*%
X115062000Y-37592000D03*
X118110000Y-33020000D03*
X115570000Y-20320000D03*
%TO.N,Net-(R5-Pad2)*%
X104140000Y-39370000D03*
X114032000Y-27672000D03*
%TO.N,1*%
X157480000Y-20320000D03*
X118364000Y-14732000D03*
%TO.N,2*%
X173990000Y-20320000D03*
X117332000Y-15256000D03*
%TO.N,3*%
X193040000Y-20320000D03*
X116332000Y-14732000D03*
%TO.N,4*%
X209550000Y-20320000D03*
X115316000Y-15240000D03*
%TO.N,5*%
X228600000Y-20320000D03*
X119634000Y-26924000D03*
%TO.N,6*%
X246380000Y-20320000D03*
X120904000Y-30226000D03*
%TO.N,7*%
X264160000Y-20320000D03*
X121920000Y-30066000D03*
X131826000Y-27940000D03*
X188214000Y-26416000D03*
%TO.N,8*%
X281940000Y-20320000D03*
X116840000Y-21082000D03*
X132842000Y-26162000D03*
X136906000Y-25400000D03*
%TD*%
D23*
%TO.N,*%
X149860000Y-10160000D02*
X284480000Y-10160000D01*
%TO.N,GND*%
X117757200Y-3235300D02*
X117912000Y-3080500D01*
X115074700Y-3235300D02*
X117757200Y-3235300D01*
D24*
X98298000Y-7620000D02*
X99314000Y-6604000D01*
X100518000Y-11443500D02*
X98298000Y-9223500D01*
X99314000Y-6604000D02*
X111706000Y-6604000D01*
X98298000Y-9223500D02*
X98298000Y-7620000D01*
X113858700Y-3235300D02*
X115074700Y-3235300D01*
X111760000Y-5334000D02*
X113858700Y-3235300D01*
X102108000Y-15494000D02*
X96774000Y-10160000D01*
X96774000Y-7112000D02*
X98552000Y-5334000D01*
X98552000Y-5334000D02*
X111760000Y-5334000D01*
X103886000Y-15494000D02*
X102108000Y-15494000D01*
X96774000Y-10160000D02*
X96774000Y-7112000D01*
D23*
X118512000Y-3080500D02*
X124912000Y-3080500D01*
X118912000Y-4080500D02*
X117912000Y-3080500D01*
X118912000Y-5780500D02*
X118912000Y-4080500D01*
X126163010Y-1829490D02*
X124912000Y-3080500D01*
X134417490Y-1829490D02*
X127456510Y-1829490D01*
X136144000Y-3556000D02*
X134417490Y-1829490D01*
X115732000Y-31334000D02*
X115732000Y-28478000D01*
X94488000Y-37338000D02*
X109728000Y-37338000D01*
X99895998Y-29137000D02*
X96520998Y-32512000D01*
X109728000Y-37338000D02*
X115732000Y-31334000D01*
X93726000Y-33020000D02*
X93726000Y-36576000D01*
X103632000Y-29137000D02*
X99895998Y-29137000D01*
X96520998Y-32512000D02*
X94234000Y-32512000D01*
X93726000Y-36576000D02*
X94488000Y-37338000D01*
X94234000Y-32512000D02*
X93726000Y-33020000D01*
X115032000Y-21178000D02*
X115732000Y-21878000D01*
X114032000Y-21178000D02*
X115032000Y-21178000D01*
X99410000Y-42260000D02*
X94488000Y-37338000D01*
X100225000Y-42260000D02*
X99410000Y-42260000D01*
X171015000Y-23295000D02*
X171015000Y-20320000D01*
X152400000Y-25400000D02*
X168910000Y-25400000D01*
X168910000Y-25400000D02*
X171015000Y-23295000D01*
X154505000Y-20320000D02*
X154505000Y-23295000D01*
X154505000Y-23295000D02*
X152400000Y-25400000D01*
X185202500Y-25400000D02*
X190282500Y-20320000D01*
X168910000Y-25400000D02*
X185202500Y-25400000D01*
X185202500Y-25400000D02*
X201712500Y-25400000D01*
X220653750Y-25291250D02*
X225625000Y-20320000D01*
X201821250Y-25291250D02*
X220653750Y-25291250D01*
X201821250Y-25291250D02*
X206792500Y-20320000D01*
X201712500Y-25400000D02*
X201821250Y-25291250D01*
X241408750Y-25291250D02*
X243405000Y-23295000D01*
X243405000Y-23295000D02*
X243405000Y-20320000D01*
X220653750Y-25291250D02*
X241408750Y-25291250D01*
X256213750Y-25291250D02*
X261185000Y-20320000D01*
X241408750Y-25291250D02*
X256213750Y-25291250D01*
X273993750Y-25291250D02*
X278965000Y-20320000D01*
X256213750Y-25291250D02*
X273993750Y-25291250D01*
X141370000Y-2722500D02*
X140970000Y-2322500D01*
X145580000Y-2722500D02*
X138830000Y-2722500D01*
X137936990Y-1829490D02*
X138830000Y-2722500D01*
X134417490Y-1829490D02*
X137936990Y-1829490D01*
X110490000Y-8890000D02*
X110490000Y-7620000D01*
X111660000Y-6450000D02*
X111860000Y-6450000D01*
D24*
X111706000Y-6604000D02*
X111860000Y-6450000D01*
D23*
X110490000Y-7620000D02*
X111660000Y-6450000D01*
D24*
X111860000Y-6450000D02*
X115074700Y-3235300D01*
D23*
X126432000Y-19578000D02*
X126452000Y-19558000D01*
X125432000Y-19578000D02*
X126432000Y-19578000D01*
X126452000Y-19558000D02*
X127000000Y-19558000D01*
X127000000Y-19558000D02*
X127254000Y-19558000D01*
X126168000Y-25978000D02*
X127000000Y-25146000D01*
X125432000Y-25978000D02*
X126168000Y-25978000D01*
X130810000Y-30089500D02*
X130810000Y-23114000D01*
X123241500Y-37658000D02*
X130810000Y-30089500D01*
X115732000Y-22190000D02*
X117440000Y-22190000D01*
X115732000Y-21878000D02*
X115732000Y-22190000D01*
X117440000Y-22190000D02*
X117440000Y-22190000D01*
X115732000Y-22952000D02*
X116332000Y-22352000D01*
X115732000Y-22952000D02*
X115732000Y-28478000D01*
X115732000Y-22190000D02*
X115732000Y-22952000D01*
X154505000Y-20320000D02*
X148844000Y-20320000D01*
X139894000Y-11370000D02*
X137265000Y-11370000D01*
X148844000Y-20320000D02*
X139894000Y-11370000D01*
X127456510Y-1829490D02*
X126163010Y-1829490D01*
X137265000Y-11370000D02*
X137265000Y-11370000D01*
X120532000Y-17078000D02*
X120650000Y-16960000D01*
X120650000Y-16960000D02*
X120650000Y-15240000D01*
X120650000Y-15240000D02*
X120650000Y-13970000D01*
X120650000Y-13970000D02*
X120650000Y-13970000D01*
D25*
X110490000Y-8890000D02*
X111760000Y-8890000D01*
X111760000Y-8890000D02*
X115570000Y-12700000D01*
X119380000Y-12700000D02*
X120650000Y-13970000D01*
X115570000Y-12700000D02*
X119380000Y-12700000D01*
D23*
%TO.N,VBUS*%
X129321499Y-4355501D02*
X130810000Y-2867000D01*
X123211999Y-4355501D02*
X127724499Y-4355501D01*
X122712000Y-4855500D02*
X123211999Y-4355501D01*
X122712000Y-5780500D02*
X122712000Y-4855500D01*
X132480000Y-2867000D02*
X133169000Y-3556000D01*
X130810000Y-2867000D02*
X132480000Y-2867000D01*
X127724499Y-4355501D02*
X129321499Y-4355501D01*
%TO.N,Unfiltered*%
X151130000Y-7620000D02*
X275590000Y-7620000D01*
D26*
X130810000Y-7874000D02*
X128778000Y-9906000D01*
X130810000Y-5842000D02*
X130810000Y-7874000D01*
X123825000Y-9402680D02*
X123825000Y-9779000D01*
X123436820Y-9014500D02*
X123825000Y-9402680D01*
X122799200Y-9014500D02*
X123436820Y-9014500D01*
D23*
X123825000Y-9779000D02*
X123952000Y-9906000D01*
D26*
X153926651Y-7620000D02*
X275590000Y-7620000D01*
X153672651Y-7874000D02*
X153926651Y-7620000D01*
X130810000Y-7874000D02*
X153672651Y-7874000D01*
D23*
X145180000Y-5297500D02*
X145580000Y-5697500D01*
X145580000Y-5697500D02*
X145580000Y-5880000D01*
X138647500Y-5297500D02*
X145180000Y-5297500D01*
X138647500Y-5297500D02*
X138212500Y-5297500D01*
X138430000Y-5297500D02*
X138647500Y-5297500D01*
X137668000Y-5842000D02*
X130810000Y-5842000D01*
X138212500Y-5297500D02*
X137668000Y-5842000D01*
X125432000Y-28950500D02*
X125432000Y-26778000D01*
X120650000Y-33020000D02*
X121362500Y-33020000D01*
X116532000Y-29288002D02*
X118715248Y-31471250D01*
X116532000Y-28478000D02*
X116532000Y-29288002D01*
X121362500Y-33020000D02*
X122911250Y-31471250D01*
X118715248Y-31471250D02*
X122911250Y-31471250D01*
X122911250Y-31471250D02*
X125432000Y-28950500D01*
X125432000Y-18778000D02*
X126242002Y-18778000D01*
X127000000Y-27382500D02*
X125432000Y-28950500D01*
X124432000Y-18778000D02*
X125432000Y-18778000D01*
X124356999Y-18853001D02*
X124432000Y-18778000D01*
X118932000Y-17078000D02*
X118932000Y-17888002D01*
X118932000Y-17888002D02*
X118872000Y-17948002D01*
X118872000Y-17948002D02*
X118872000Y-18796000D01*
X123444000Y-20320000D02*
X124356999Y-19407001D01*
X120396000Y-20320000D02*
X123444000Y-20320000D01*
X118872000Y-18796000D02*
X120396000Y-20320000D01*
X124054999Y-19200999D02*
X124356999Y-19200999D01*
X122932000Y-18078000D02*
X124054999Y-19200999D01*
X122932000Y-17078000D02*
X122932000Y-18078000D01*
X124356999Y-19407001D02*
X124356999Y-19200999D01*
X124356999Y-19200999D02*
X124356999Y-18853001D01*
X127725001Y-19209999D02*
X127725001Y-26657499D01*
X127293002Y-18778000D02*
X127725001Y-19209999D01*
X127725001Y-26657499D02*
X127000000Y-27382500D01*
X125432000Y-18778000D02*
X127293002Y-18778000D01*
X118932000Y-17078000D02*
X118932000Y-15688000D01*
X118932000Y-15688000D02*
X119380000Y-15240000D01*
X119380000Y-15240000D02*
X119380000Y-15240000D01*
X127508000Y-9906000D02*
X128270000Y-10668000D01*
D26*
X127508000Y-9906000D02*
X128778000Y-9906000D01*
X123952000Y-9906000D02*
X127508000Y-9906000D01*
D23*
X128270000Y-10668000D02*
X128270000Y-10668000D01*
X111047690Y-20378000D02*
X109723845Y-19054155D01*
X114032000Y-20378000D02*
X111047690Y-20378000D01*
X109723845Y-19054155D02*
X109719690Y-19050000D01*
D25*
X128270000Y-10922000D02*
X128270000Y-10668000D01*
X123698000Y-15494000D02*
X128270000Y-10922000D01*
D23*
%TO.N,Net-(C3-Pad1)*%
X125432000Y-20378000D02*
X126804000Y-20378000D01*
X126804000Y-20378000D02*
X127000000Y-20574000D01*
X127000000Y-20574000D02*
X127000000Y-20574000D01*
%TO.N,Net-(C4-Pad1)*%
X113030000Y-11430000D02*
X115570000Y-13970000D01*
X110490000Y-11430000D02*
X113030000Y-11430000D01*
X119732000Y-16158000D02*
X119732000Y-17078000D01*
X115570000Y-13970000D02*
X119380000Y-13970000D01*
X120105001Y-14695001D02*
X119380000Y-13970000D01*
X119732000Y-15961002D02*
X120105001Y-15588001D01*
X120105001Y-15588001D02*
X120105001Y-14695001D01*
X119732000Y-17078000D02*
X119732000Y-15961002D01*
D24*
%TO.N,xtal2*%
X105076000Y-19659000D02*
X103886000Y-18469000D01*
X102289000Y-20066000D02*
X103886000Y-18469000D01*
X98552000Y-20066000D02*
X102289000Y-20066000D01*
X109220000Y-20901000D02*
X108131000Y-19812000D01*
X105229000Y-19812000D02*
X105076000Y-19659000D01*
X108131000Y-19812000D02*
X105229000Y-19812000D01*
D23*
X111955000Y-20901000D02*
X109220000Y-20901000D01*
X113032000Y-21978000D02*
X111955000Y-20901000D01*
X114032000Y-21978000D02*
X113032000Y-21978000D01*
D24*
%TO.N,xtal1*%
X105076000Y-24718000D02*
X103632000Y-26162000D01*
X102416000Y-24946000D02*
X103632000Y-26162000D01*
X98552000Y-24946000D02*
X102416000Y-24946000D01*
X108378000Y-24718000D02*
X109220000Y-23876000D01*
X105076000Y-24718000D02*
X108378000Y-24718000D01*
D23*
X109220000Y-23876000D02*
X110744000Y-23876000D01*
X111842000Y-22778000D02*
X114032000Y-22778000D01*
X110744000Y-23876000D02*
X111842000Y-22778000D01*
%TO.N,Net-(J1-Pad3)*%
X121379200Y-9964500D02*
X120599200Y-9964500D01*
X121454201Y-9889499D02*
X121379200Y-9964500D01*
X121412000Y-7226300D02*
X121454201Y-7268501D01*
X121412000Y-5780500D02*
X121412000Y-7226300D01*
X121454201Y-7268501D02*
X121454201Y-9889499D01*
%TO.N,Net-(J1-Pad2)*%
X122753400Y-9918700D02*
X122799200Y-9964500D01*
X121907300Y-9918700D02*
X122753400Y-9918700D01*
X122062000Y-5780500D02*
X122062000Y-6705500D01*
X122062000Y-6705500D02*
X121907300Y-6860200D01*
X121907300Y-6860200D02*
X121907300Y-9918700D01*
%TO.N,rst*%
X114828000Y-19578000D02*
X115570000Y-20320000D01*
X114032000Y-19578000D02*
X114828000Y-19578000D01*
D24*
%TO.N,TX*%
X112960000Y-25978000D02*
X114032000Y-25978000D01*
X104140000Y-34798000D02*
X112960000Y-25978000D01*
%TO.N,RX*%
X104695021Y-31702979D02*
X106473021Y-31702979D01*
X101600000Y-34798000D02*
X104695021Y-31702979D01*
X112998000Y-25178000D02*
X114032000Y-25178000D01*
X106473021Y-31702979D02*
X112998000Y-25178000D01*
%TO.N,SDA*%
X112997520Y-24378000D02*
X114032000Y-24378000D01*
X106157030Y-31218490D02*
X112997520Y-24378000D01*
X102639510Y-31218490D02*
X106157030Y-31218490D01*
X99060000Y-34798000D02*
X102639510Y-31218490D01*
%TO.N,SCL*%
X112997520Y-23578000D02*
X105841520Y-30734000D01*
X114032000Y-23578000D02*
X112997520Y-23578000D01*
X100584000Y-30734000D02*
X96520000Y-34798000D01*
X105841520Y-30734000D02*
X100584000Y-30734000D01*
D23*
%TO.N,Net-(Power_red1-Pad2)*%
X136980000Y-13135000D02*
X137265000Y-13420000D01*
X132080000Y-13135000D02*
X136980000Y-13135000D01*
%TO.N,Net-(R2-Pad2)*%
X120510300Y-8153400D02*
X120599200Y-8064500D01*
D24*
%TO.N,Net-(R2-Pad1)*%
X118148100Y-11128400D02*
X120856400Y-11128400D01*
X120856400Y-11128400D02*
X121412000Y-11684000D01*
X121332000Y-15828000D02*
X121332000Y-17078000D01*
X121412000Y-15748000D02*
X121332000Y-15828000D01*
X121412000Y-11684000D02*
X121412000Y-15748000D01*
D23*
%TO.N,Net-(R3-Pad2)*%
X125145800Y-8064500D02*
X125260100Y-8178800D01*
X122913500Y-8178800D02*
X122799200Y-8064500D01*
X125260100Y-8178800D02*
X122913500Y-8178800D01*
D24*
%TO.N,Net-(R3-Pad1)*%
X122132000Y-16044000D02*
X122132000Y-17078000D01*
X122428000Y-11684000D02*
X122428000Y-15748000D01*
X125260100Y-11153800D02*
X122958200Y-11153800D01*
X122428000Y-15748000D02*
X122132000Y-16044000D01*
X122958200Y-11153800D02*
X122428000Y-11684000D01*
D23*
%TO.N,Net-(R5-Pad2)*%
X114032000Y-26778000D02*
X114032000Y-27672000D01*
X114032000Y-27672000D02*
X114032000Y-27672000D01*
%TO.N,Net-(R5-Pad1)*%
X102005000Y-40210000D02*
X104140000Y-42345000D01*
X100225000Y-40210000D02*
X102005000Y-40210000D01*
D24*
%TO.N,Net-(R7-Pad2)*%
X105242500Y-8468500D02*
X106680000Y-9906000D01*
X100518000Y-8468500D02*
X105242500Y-8468500D01*
D23*
%TO.N,1*%
X118132000Y-17078000D02*
X118132000Y-14964000D01*
X118132000Y-14964000D02*
X118364000Y-14732000D01*
X118364000Y-14732000D02*
X118364000Y-14732000D01*
%TO.N,2*%
X117332000Y-17078000D02*
X117332000Y-15256000D01*
X117332000Y-15256000D02*
X117332000Y-15256000D01*
%TO.N,3*%
X116532000Y-17078000D02*
X116532000Y-15948000D01*
X116532000Y-15948000D02*
X116332000Y-15748000D01*
X116332000Y-15748000D02*
X116332000Y-14732000D01*
X116332000Y-14732000D02*
X116332000Y-14732000D01*
%TO.N,4*%
X115732000Y-17078000D02*
X115732000Y-15840000D01*
X115732000Y-15840000D02*
X115824000Y-15748000D01*
X115732000Y-15840000D02*
X115732000Y-15656000D01*
X115732000Y-15656000D02*
X115316000Y-15240000D01*
X115316000Y-15240000D02*
X115316000Y-15240000D01*
%TO.N,5*%
X119732000Y-27022000D02*
X119634000Y-26924000D01*
X119732000Y-28478000D02*
X119732000Y-27022000D01*
%TO.N,6*%
X120532000Y-29854000D02*
X120904000Y-30226000D01*
X120532000Y-28478000D02*
X120532000Y-29854000D01*
%TO.N,7*%
X121332000Y-29478000D02*
X121920000Y-30066000D01*
X121332000Y-28478000D02*
X121332000Y-29478000D01*
X121920000Y-30066000D02*
X121920000Y-30066000D01*
X131826000Y-27940000D02*
X133604000Y-27940000D01*
X151949990Y-25586400D02*
X152525590Y-26162000D01*
X187960000Y-26162000D02*
X188214000Y-26416000D01*
X152525590Y-26162000D02*
X187960000Y-26162000D01*
X188214000Y-26416000D02*
X188214000Y-26416000D01*
D25*
X133604000Y-27940000D02*
X138176000Y-27940000D01*
X140529600Y-25586400D02*
X151949990Y-25586400D01*
X138176000Y-27940000D02*
X140529600Y-25586400D01*
%TO.N,8*%
X114032000Y-18778000D02*
X115040948Y-18778000D01*
X115040948Y-18778000D02*
X116838474Y-20575526D01*
X116838474Y-20575526D02*
X116840000Y-20577052D01*
X116840000Y-20577052D02*
X116840000Y-21082000D01*
X116840000Y-21082000D02*
X116840000Y-21082000D01*
X136144000Y-26162000D02*
X136906000Y-25400000D01*
X132842000Y-26162000D02*
X136144000Y-26162000D01*
D23*
%TO.N,Net-(U2-Pad33)*%
X123732000Y-26867998D02*
X123732000Y-28478000D01*
X115042001Y-18177999D02*
X123732000Y-26867998D01*
X112411999Y-18177999D02*
X115042001Y-18177999D01*
X104140000Y-9906000D02*
X112411999Y-18177999D01*
%TD*%
M02*
