%TF.GenerationSoftware,KiCad,Pcbnew,(5.1.6)-1*%
%TF.CreationDate,2021-02-12T14:45:57+03:00*%
%TF.ProjectId,CearusTab,43656172-7573-4546-9162-2e6b69636164,rev?*%
%TF.SameCoordinates,Original*%
%TF.FileFunction,Soldermask,Top*%
%TF.FilePolarity,Negative*%
%FSLAX46Y46*%
G04 Gerber Fmt 4.6, Leading zero omitted, Abs format (unit mm)*
G04 Created by KiCad (PCBNEW (5.1.6)-1) date 2021-02-12 14:45:57*
%MOMM*%
%LPD*%
G01*
G04 APERTURE LIST*
%ADD10C,1.600000*%
%ADD11O,1.800000X1.800000*%
%ADD12R,1.800000X1.800000*%
%ADD13R,1.600000X0.650000*%
%ADD14R,0.650000X1.600000*%
%ADD15R,1.160000X0.750000*%
%ADD16C,2.386000*%
%ADD17C,4.087800*%
%ADD18C,1.801800*%
%ADD19R,1.300000X2.000000*%
%ADD20O,1.300000X2.000000*%
%ADD21R,1.600000X2.000000*%
%ADD22C,1.550000*%
%ADD23R,0.500000X1.450000*%
G04 APERTURE END LIST*
%TO.C,Yellow1*%
G36*
G01*
X100703262Y-40835000D02*
X99746738Y-40835000D01*
G75*
G02*
X99475000Y-40563262I0J271738D01*
G01*
X99475000Y-39856738D01*
G75*
G02*
X99746738Y-39585000I271738J0D01*
G01*
X100703262Y-39585000D01*
G75*
G02*
X100975000Y-39856738I0J-271738D01*
G01*
X100975000Y-40563262D01*
G75*
G02*
X100703262Y-40835000I-271738J0D01*
G01*
G37*
G36*
G01*
X100703262Y-42885000D02*
X99746738Y-42885000D01*
G75*
G02*
X99475000Y-42613262I0J271738D01*
G01*
X99475000Y-41906738D01*
G75*
G02*
X99746738Y-41635000I271738J0D01*
G01*
X100703262Y-41635000D01*
G75*
G02*
X100975000Y-41906738I0J-271738D01*
G01*
X100975000Y-42613262D01*
G75*
G02*
X100703262Y-42885000I-271738J0D01*
G01*
G37*
%TD*%
D10*
%TO.C,Y1*%
X98552000Y-24946000D03*
X98552000Y-20066000D03*
%TD*%
D11*
%TO.C,usb_boot1*%
X106680000Y-9906000D03*
D12*
X104140000Y-9906000D03*
%TD*%
D13*
%TO.C,U2*%
X125432000Y-18778000D03*
X125432000Y-19578000D03*
X125432000Y-20378000D03*
X125432000Y-21178000D03*
X125432000Y-21978000D03*
X125432000Y-22778000D03*
X125432000Y-23578000D03*
X125432000Y-24378000D03*
X125432000Y-25178000D03*
X125432000Y-25978000D03*
X125432000Y-26778000D03*
D14*
X123732000Y-28478000D03*
X122932000Y-28478000D03*
X122132000Y-28478000D03*
X121332000Y-28478000D03*
X120532000Y-28478000D03*
X119732000Y-28478000D03*
X118932000Y-28478000D03*
X118132000Y-28478000D03*
X117332000Y-28478000D03*
X116532000Y-28478000D03*
X115732000Y-28478000D03*
D13*
X114032000Y-26778000D03*
X114032000Y-25978000D03*
X114032000Y-25178000D03*
X114032000Y-24378000D03*
X114032000Y-23578000D03*
X114032000Y-22778000D03*
X114032000Y-21978000D03*
X114032000Y-21178000D03*
X114032000Y-20378000D03*
X114032000Y-19578000D03*
X114032000Y-18778000D03*
D14*
X115732000Y-17078000D03*
X116532000Y-17078000D03*
X117332000Y-17078000D03*
X118132000Y-17078000D03*
X118932000Y-17078000D03*
X119732000Y-17078000D03*
X120532000Y-17078000D03*
X121332000Y-17078000D03*
X122132000Y-17078000D03*
X122932000Y-17078000D03*
X123732000Y-17078000D03*
%TD*%
D15*
%TO.C,U1*%
X122799200Y-9014500D03*
X122799200Y-8064500D03*
X122799200Y-9964500D03*
X120599200Y-9964500D03*
X120599200Y-9014500D03*
X120599200Y-8064500D03*
%TD*%
D16*
%TO.C,SW8*%
X281940000Y-5080000D03*
D17*
X279400000Y-10160000D03*
D16*
X275590000Y-7620000D03*
D18*
X284480000Y-10160000D03*
X274320000Y-10160000D03*
%TD*%
D16*
%TO.C,SW7*%
X264160000Y-5080000D03*
D17*
X261620000Y-10160000D03*
D16*
X257810000Y-7620000D03*
D18*
X266700000Y-10160000D03*
X256540000Y-10160000D03*
%TD*%
D16*
%TO.C,SW6*%
X246380000Y-5080000D03*
D17*
X243840000Y-10160000D03*
D16*
X240030000Y-7620000D03*
D18*
X248920000Y-10160000D03*
X238760000Y-10160000D03*
%TD*%
D16*
%TO.C,SW5*%
X228600000Y-5080000D03*
D17*
X226060000Y-10160000D03*
D16*
X222250000Y-7620000D03*
D18*
X231140000Y-10160000D03*
X220980000Y-10160000D03*
%TD*%
D16*
%TO.C,SW4*%
X210820000Y-5080000D03*
D17*
X208280000Y-10160000D03*
D16*
X204470000Y-7620000D03*
D18*
X213360000Y-10160000D03*
X203200000Y-10160000D03*
%TD*%
D16*
%TO.C,SW3*%
X193040000Y-5080000D03*
D17*
X190500000Y-10160000D03*
D16*
X186690000Y-7620000D03*
D18*
X195580000Y-10160000D03*
X185420000Y-10160000D03*
%TD*%
D16*
%TO.C,SW2*%
X175260000Y-5080000D03*
D17*
X172720000Y-10160000D03*
D16*
X168910000Y-7620000D03*
D18*
X177800000Y-10160000D03*
X167640000Y-10160000D03*
%TD*%
D16*
%TO.C,SW1*%
X157480000Y-5080000D03*
D17*
X154940000Y-10160000D03*
D16*
X151130000Y-7620000D03*
D18*
X160020000Y-10160000D03*
X149860000Y-10160000D03*
%TD*%
%TO.C,reset1*%
G36*
G01*
X121029000Y-36550544D02*
X121029000Y-38765456D01*
G75*
G02*
X120761456Y-39033000I-267544J0D01*
G01*
X119771544Y-39033000D01*
G75*
G02*
X119504000Y-38765456I0J267544D01*
G01*
X119504000Y-36550544D01*
G75*
G02*
X119771544Y-36283000I267544J0D01*
G01*
X120761456Y-36283000D01*
G75*
G02*
X121029000Y-36550544I0J-267544D01*
G01*
G37*
G36*
G01*
X124004000Y-36550544D02*
X124004000Y-38765456D01*
G75*
G02*
X123736456Y-39033000I-267544J0D01*
G01*
X122746544Y-39033000D01*
G75*
G02*
X122479000Y-38765456I0J267544D01*
G01*
X122479000Y-36550544D01*
G75*
G02*
X122746544Y-36283000I267544J0D01*
G01*
X123736456Y-36283000D01*
G75*
G02*
X124004000Y-36550544I0J-267544D01*
G01*
G37*
%TD*%
%TO.C,R16*%
G36*
G01*
X281177500Y-21427456D02*
X281177500Y-19212544D01*
G75*
G02*
X281445044Y-18945000I267544J0D01*
G01*
X282434956Y-18945000D01*
G75*
G02*
X282702500Y-19212544I0J-267544D01*
G01*
X282702500Y-21427456D01*
G75*
G02*
X282434956Y-21695000I-267544J0D01*
G01*
X281445044Y-21695000D01*
G75*
G02*
X281177500Y-21427456I0J267544D01*
G01*
G37*
G36*
G01*
X278202500Y-21427456D02*
X278202500Y-19212544D01*
G75*
G02*
X278470044Y-18945000I267544J0D01*
G01*
X279459956Y-18945000D01*
G75*
G02*
X279727500Y-19212544I0J-267544D01*
G01*
X279727500Y-21427456D01*
G75*
G02*
X279459956Y-21695000I-267544J0D01*
G01*
X278470044Y-21695000D01*
G75*
G02*
X278202500Y-21427456I0J267544D01*
G01*
G37*
%TD*%
%TO.C,R15*%
G36*
G01*
X263397500Y-21427456D02*
X263397500Y-19212544D01*
G75*
G02*
X263665044Y-18945000I267544J0D01*
G01*
X264654956Y-18945000D01*
G75*
G02*
X264922500Y-19212544I0J-267544D01*
G01*
X264922500Y-21427456D01*
G75*
G02*
X264654956Y-21695000I-267544J0D01*
G01*
X263665044Y-21695000D01*
G75*
G02*
X263397500Y-21427456I0J267544D01*
G01*
G37*
G36*
G01*
X260422500Y-21427456D02*
X260422500Y-19212544D01*
G75*
G02*
X260690044Y-18945000I267544J0D01*
G01*
X261679956Y-18945000D01*
G75*
G02*
X261947500Y-19212544I0J-267544D01*
G01*
X261947500Y-21427456D01*
G75*
G02*
X261679956Y-21695000I-267544J0D01*
G01*
X260690044Y-21695000D01*
G75*
G02*
X260422500Y-21427456I0J267544D01*
G01*
G37*
%TD*%
%TO.C,R14*%
G36*
G01*
X245617500Y-21427456D02*
X245617500Y-19212544D01*
G75*
G02*
X245885044Y-18945000I267544J0D01*
G01*
X246874956Y-18945000D01*
G75*
G02*
X247142500Y-19212544I0J-267544D01*
G01*
X247142500Y-21427456D01*
G75*
G02*
X246874956Y-21695000I-267544J0D01*
G01*
X245885044Y-21695000D01*
G75*
G02*
X245617500Y-21427456I0J267544D01*
G01*
G37*
G36*
G01*
X242642500Y-21427456D02*
X242642500Y-19212544D01*
G75*
G02*
X242910044Y-18945000I267544J0D01*
G01*
X243899956Y-18945000D01*
G75*
G02*
X244167500Y-19212544I0J-267544D01*
G01*
X244167500Y-21427456D01*
G75*
G02*
X243899956Y-21695000I-267544J0D01*
G01*
X242910044Y-21695000D01*
G75*
G02*
X242642500Y-21427456I0J267544D01*
G01*
G37*
%TD*%
%TO.C,R13*%
G36*
G01*
X227837500Y-21427456D02*
X227837500Y-19212544D01*
G75*
G02*
X228105044Y-18945000I267544J0D01*
G01*
X229094956Y-18945000D01*
G75*
G02*
X229362500Y-19212544I0J-267544D01*
G01*
X229362500Y-21427456D01*
G75*
G02*
X229094956Y-21695000I-267544J0D01*
G01*
X228105044Y-21695000D01*
G75*
G02*
X227837500Y-21427456I0J267544D01*
G01*
G37*
G36*
G01*
X224862500Y-21427456D02*
X224862500Y-19212544D01*
G75*
G02*
X225130044Y-18945000I267544J0D01*
G01*
X226119956Y-18945000D01*
G75*
G02*
X226387500Y-19212544I0J-267544D01*
G01*
X226387500Y-21427456D01*
G75*
G02*
X226119956Y-21695000I-267544J0D01*
G01*
X225130044Y-21695000D01*
G75*
G02*
X224862500Y-21427456I0J267544D01*
G01*
G37*
%TD*%
%TO.C,R12*%
G36*
G01*
X209005000Y-21427456D02*
X209005000Y-19212544D01*
G75*
G02*
X209272544Y-18945000I267544J0D01*
G01*
X210262456Y-18945000D01*
G75*
G02*
X210530000Y-19212544I0J-267544D01*
G01*
X210530000Y-21427456D01*
G75*
G02*
X210262456Y-21695000I-267544J0D01*
G01*
X209272544Y-21695000D01*
G75*
G02*
X209005000Y-21427456I0J267544D01*
G01*
G37*
G36*
G01*
X206030000Y-21427456D02*
X206030000Y-19212544D01*
G75*
G02*
X206297544Y-18945000I267544J0D01*
G01*
X207287456Y-18945000D01*
G75*
G02*
X207555000Y-19212544I0J-267544D01*
G01*
X207555000Y-21427456D01*
G75*
G02*
X207287456Y-21695000I-267544J0D01*
G01*
X206297544Y-21695000D01*
G75*
G02*
X206030000Y-21427456I0J267544D01*
G01*
G37*
%TD*%
%TO.C,R11*%
G36*
G01*
X192495000Y-21427456D02*
X192495000Y-19212544D01*
G75*
G02*
X192762544Y-18945000I267544J0D01*
G01*
X193752456Y-18945000D01*
G75*
G02*
X194020000Y-19212544I0J-267544D01*
G01*
X194020000Y-21427456D01*
G75*
G02*
X193752456Y-21695000I-267544J0D01*
G01*
X192762544Y-21695000D01*
G75*
G02*
X192495000Y-21427456I0J267544D01*
G01*
G37*
G36*
G01*
X189520000Y-21427456D02*
X189520000Y-19212544D01*
G75*
G02*
X189787544Y-18945000I267544J0D01*
G01*
X190777456Y-18945000D01*
G75*
G02*
X191045000Y-19212544I0J-267544D01*
G01*
X191045000Y-21427456D01*
G75*
G02*
X190777456Y-21695000I-267544J0D01*
G01*
X189787544Y-21695000D01*
G75*
G02*
X189520000Y-21427456I0J267544D01*
G01*
G37*
%TD*%
%TO.C,R10*%
G36*
G01*
X173227500Y-21427456D02*
X173227500Y-19212544D01*
G75*
G02*
X173495044Y-18945000I267544J0D01*
G01*
X174484956Y-18945000D01*
G75*
G02*
X174752500Y-19212544I0J-267544D01*
G01*
X174752500Y-21427456D01*
G75*
G02*
X174484956Y-21695000I-267544J0D01*
G01*
X173495044Y-21695000D01*
G75*
G02*
X173227500Y-21427456I0J267544D01*
G01*
G37*
G36*
G01*
X170252500Y-21427456D02*
X170252500Y-19212544D01*
G75*
G02*
X170520044Y-18945000I267544J0D01*
G01*
X171509956Y-18945000D01*
G75*
G02*
X171777500Y-19212544I0J-267544D01*
G01*
X171777500Y-21427456D01*
G75*
G02*
X171509956Y-21695000I-267544J0D01*
G01*
X170520044Y-21695000D01*
G75*
G02*
X170252500Y-21427456I0J267544D01*
G01*
G37*
%TD*%
%TO.C,R9*%
G36*
G01*
X156717500Y-21427456D02*
X156717500Y-19212544D01*
G75*
G02*
X156985044Y-18945000I267544J0D01*
G01*
X157974956Y-18945000D01*
G75*
G02*
X158242500Y-19212544I0J-267544D01*
G01*
X158242500Y-21427456D01*
G75*
G02*
X157974956Y-21695000I-267544J0D01*
G01*
X156985044Y-21695000D01*
G75*
G02*
X156717500Y-21427456I0J267544D01*
G01*
G37*
G36*
G01*
X153742500Y-21427456D02*
X153742500Y-19212544D01*
G75*
G02*
X154010044Y-18945000I267544J0D01*
G01*
X154999956Y-18945000D01*
G75*
G02*
X155267500Y-19212544I0J-267544D01*
G01*
X155267500Y-21427456D01*
G75*
G02*
X154999956Y-21695000I-267544J0D01*
G01*
X154010044Y-21695000D01*
G75*
G02*
X153742500Y-21427456I0J267544D01*
G01*
G37*
%TD*%
%TO.C,R8*%
G36*
G01*
X115824500Y-36484544D02*
X115824500Y-38699456D01*
G75*
G02*
X115556956Y-38967000I-267544J0D01*
G01*
X114567044Y-38967000D01*
G75*
G02*
X114299500Y-38699456I0J267544D01*
G01*
X114299500Y-36484544D01*
G75*
G02*
X114567044Y-36217000I267544J0D01*
G01*
X115556956Y-36217000D01*
G75*
G02*
X115824500Y-36484544I0J-267544D01*
G01*
G37*
G36*
G01*
X118799500Y-36484544D02*
X118799500Y-38699456D01*
G75*
G02*
X118531956Y-38967000I-267544J0D01*
G01*
X117542044Y-38967000D01*
G75*
G02*
X117274500Y-38699456I0J267544D01*
G01*
X117274500Y-36484544D01*
G75*
G02*
X117542044Y-36217000I267544J0D01*
G01*
X118531956Y-36217000D01*
G75*
G02*
X118799500Y-36484544I0J-267544D01*
G01*
G37*
%TD*%
%TO.C,R7*%
G36*
G01*
X101625456Y-9231000D02*
X99410544Y-9231000D01*
G75*
G02*
X99143000Y-8963456I0J267544D01*
G01*
X99143000Y-7973544D01*
G75*
G02*
X99410544Y-7706000I267544J0D01*
G01*
X101625456Y-7706000D01*
G75*
G02*
X101893000Y-7973544I0J-267544D01*
G01*
X101893000Y-8963456D01*
G75*
G02*
X101625456Y-9231000I-267544J0D01*
G01*
G37*
G36*
G01*
X101625456Y-12206000D02*
X99410544Y-12206000D01*
G75*
G02*
X99143000Y-11938456I0J267544D01*
G01*
X99143000Y-10948544D01*
G75*
G02*
X99410544Y-10681000I267544J0D01*
G01*
X101625456Y-10681000D01*
G75*
G02*
X101893000Y-10948544I0J-267544D01*
G01*
X101893000Y-11938456D01*
G75*
G02*
X101625456Y-12206000I-267544J0D01*
G01*
G37*
%TD*%
%TO.C,R6*%
G36*
G01*
X108112544Y-23113500D02*
X110327456Y-23113500D01*
G75*
G02*
X110595000Y-23381044I0J-267544D01*
G01*
X110595000Y-24370956D01*
G75*
G02*
X110327456Y-24638500I-267544J0D01*
G01*
X108112544Y-24638500D01*
G75*
G02*
X107845000Y-24370956I0J267544D01*
G01*
X107845000Y-23381044D01*
G75*
G02*
X108112544Y-23113500I267544J0D01*
G01*
G37*
G36*
G01*
X108112544Y-20138500D02*
X110327456Y-20138500D01*
G75*
G02*
X110595000Y-20406044I0J-267544D01*
G01*
X110595000Y-21395956D01*
G75*
G02*
X110327456Y-21663500I-267544J0D01*
G01*
X108112544Y-21663500D01*
G75*
G02*
X107845000Y-21395956I0J267544D01*
G01*
X107845000Y-20406044D01*
G75*
G02*
X108112544Y-20138500I267544J0D01*
G01*
G37*
%TD*%
%TO.C,R5*%
G36*
G01*
X105247456Y-40132500D02*
X103032544Y-40132500D01*
G75*
G02*
X102765000Y-39864956I0J267544D01*
G01*
X102765000Y-38875044D01*
G75*
G02*
X103032544Y-38607500I267544J0D01*
G01*
X105247456Y-38607500D01*
G75*
G02*
X105515000Y-38875044I0J-267544D01*
G01*
X105515000Y-39864956D01*
G75*
G02*
X105247456Y-40132500I-267544J0D01*
G01*
G37*
G36*
G01*
X105247456Y-43107500D02*
X103032544Y-43107500D01*
G75*
G02*
X102765000Y-42839956I0J267544D01*
G01*
X102765000Y-41850044D01*
G75*
G02*
X103032544Y-41582500I267544J0D01*
G01*
X105247456Y-41582500D01*
G75*
G02*
X105515000Y-41850044I0J-267544D01*
G01*
X105515000Y-42839956D01*
G75*
G02*
X105247456Y-43107500I-267544J0D01*
G01*
G37*
%TD*%
%TO.C,R4*%
G36*
G01*
X119887500Y-34127456D02*
X119887500Y-31912544D01*
G75*
G02*
X120155044Y-31645000I267544J0D01*
G01*
X121144956Y-31645000D01*
G75*
G02*
X121412500Y-31912544I0J-267544D01*
G01*
X121412500Y-34127456D01*
G75*
G02*
X121144956Y-34395000I-267544J0D01*
G01*
X120155044Y-34395000D01*
G75*
G02*
X119887500Y-34127456I0J267544D01*
G01*
G37*
G36*
G01*
X116912500Y-34127456D02*
X116912500Y-31912544D01*
G75*
G02*
X117180044Y-31645000I267544J0D01*
G01*
X118169956Y-31645000D01*
G75*
G02*
X118437500Y-31912544I0J-267544D01*
G01*
X118437500Y-34127456D01*
G75*
G02*
X118169956Y-34395000I-267544J0D01*
G01*
X117180044Y-34395000D01*
G75*
G02*
X116912500Y-34127456I0J267544D01*
G01*
G37*
%TD*%
%TO.C,R3*%
G36*
G01*
X126367556Y-8941300D02*
X124152644Y-8941300D01*
G75*
G02*
X123885100Y-8673756I0J267544D01*
G01*
X123885100Y-7683844D01*
G75*
G02*
X124152644Y-7416300I267544J0D01*
G01*
X126367556Y-7416300D01*
G75*
G02*
X126635100Y-7683844I0J-267544D01*
G01*
X126635100Y-8673756D01*
G75*
G02*
X126367556Y-8941300I-267544J0D01*
G01*
G37*
G36*
G01*
X126367556Y-11916300D02*
X124152644Y-11916300D01*
G75*
G02*
X123885100Y-11648756I0J267544D01*
G01*
X123885100Y-10658844D01*
G75*
G02*
X124152644Y-10391300I267544J0D01*
G01*
X126367556Y-10391300D01*
G75*
G02*
X126635100Y-10658844I0J-267544D01*
G01*
X126635100Y-11648756D01*
G75*
G02*
X126367556Y-11916300I-267544J0D01*
G01*
G37*
%TD*%
%TO.C,R2*%
G36*
G01*
X119255556Y-8915900D02*
X117040644Y-8915900D01*
G75*
G02*
X116773100Y-8648356I0J267544D01*
G01*
X116773100Y-7658444D01*
G75*
G02*
X117040644Y-7390900I267544J0D01*
G01*
X119255556Y-7390900D01*
G75*
G02*
X119523100Y-7658444I0J-267544D01*
G01*
X119523100Y-8648356D01*
G75*
G02*
X119255556Y-8915900I-267544J0D01*
G01*
G37*
G36*
G01*
X119255556Y-11890900D02*
X117040644Y-11890900D01*
G75*
G02*
X116773100Y-11623356I0J267544D01*
G01*
X116773100Y-10633444D01*
G75*
G02*
X117040644Y-10365900I267544J0D01*
G01*
X119255556Y-10365900D01*
G75*
G02*
X119523100Y-10633444I0J-267544D01*
G01*
X119523100Y-11623356D01*
G75*
G02*
X119255556Y-11890900I-267544J0D01*
G01*
G37*
%TD*%
%TO.C,R1*%
G36*
G01*
X133187456Y-10922500D02*
X130972544Y-10922500D01*
G75*
G02*
X130705000Y-10654956I0J267544D01*
G01*
X130705000Y-9665044D01*
G75*
G02*
X130972544Y-9397500I267544J0D01*
G01*
X133187456Y-9397500D01*
G75*
G02*
X133455000Y-9665044I0J-267544D01*
G01*
X133455000Y-10654956D01*
G75*
G02*
X133187456Y-10922500I-267544J0D01*
G01*
G37*
G36*
G01*
X133187456Y-13897500D02*
X130972544Y-13897500D01*
G75*
G02*
X130705000Y-13629956I0J267544D01*
G01*
X130705000Y-12640044D01*
G75*
G02*
X130972544Y-12372500I267544J0D01*
G01*
X133187456Y-12372500D01*
G75*
G02*
X133455000Y-12640044I0J-267544D01*
G01*
X133455000Y-13629956D01*
G75*
G02*
X133187456Y-13897500I-267544J0D01*
G01*
G37*
%TD*%
%TO.C,Power_red1*%
G36*
G01*
X136786738Y-12795000D02*
X137743262Y-12795000D01*
G75*
G02*
X138015000Y-13066738I0J-271738D01*
G01*
X138015000Y-13773262D01*
G75*
G02*
X137743262Y-14045000I-271738J0D01*
G01*
X136786738Y-14045000D01*
G75*
G02*
X136515000Y-13773262I0J271738D01*
G01*
X136515000Y-13066738D01*
G75*
G02*
X136786738Y-12795000I271738J0D01*
G01*
G37*
G36*
G01*
X136786738Y-10745000D02*
X137743262Y-10745000D01*
G75*
G02*
X138015000Y-11016738I0J-271738D01*
G01*
X138015000Y-11723262D01*
G75*
G02*
X137743262Y-11995000I-271738J0D01*
G01*
X136786738Y-11995000D01*
G75*
G02*
X136515000Y-11723262I0J271738D01*
G01*
X136515000Y-11016738D01*
G75*
G02*
X136786738Y-10745000I271738J0D01*
G01*
G37*
%TD*%
D11*
%TO.C,J2*%
X106680000Y-34798000D03*
X104140000Y-34798000D03*
X101600000Y-34798000D03*
X99060000Y-34798000D03*
D12*
X96520000Y-34798000D03*
%TD*%
D19*
%TO.C,J1*%
X124312000Y-3080500D03*
X118512000Y-3080500D03*
D20*
X117912000Y-3080500D03*
X124912000Y-3080500D03*
D21*
X122412000Y-3080500D03*
D22*
X118912000Y-5780500D03*
D23*
X121412000Y-5780500D03*
X120762000Y-5780500D03*
X120112000Y-5780500D03*
X122712000Y-5780500D03*
X122062000Y-5780500D03*
D22*
X123912000Y-5780500D03*
D21*
X120412000Y-3080500D03*
%TD*%
%TO.C,F1*%
G36*
G01*
X131467456Y-3629500D02*
X130152544Y-3629500D01*
G75*
G02*
X129885000Y-3361956I0J267544D01*
G01*
X129885000Y-2372044D01*
G75*
G02*
X130152544Y-2104500I267544J0D01*
G01*
X131467456Y-2104500D01*
G75*
G02*
X131735000Y-2372044I0J-267544D01*
G01*
X131735000Y-3361956D01*
G75*
G02*
X131467456Y-3629500I-267544J0D01*
G01*
G37*
G36*
G01*
X131467456Y-6604500D02*
X130152544Y-6604500D01*
G75*
G02*
X129885000Y-6336956I0J267544D01*
G01*
X129885000Y-5347044D01*
G75*
G02*
X130152544Y-5079500I267544J0D01*
G01*
X131467456Y-5079500D01*
G75*
G02*
X131735000Y-5347044I0J-267544D01*
G01*
X131735000Y-6336956D01*
G75*
G02*
X131467456Y-6604500I-267544J0D01*
G01*
G37*
%TD*%
%TO.C,C8*%
G36*
G01*
X139862544Y-4535000D02*
X142077456Y-4535000D01*
G75*
G02*
X142345000Y-4802544I0J-267544D01*
G01*
X142345000Y-5792456D01*
G75*
G02*
X142077456Y-6060000I-267544J0D01*
G01*
X139862544Y-6060000D01*
G75*
G02*
X139595000Y-5792456I0J267544D01*
G01*
X139595000Y-4802544D01*
G75*
G02*
X139862544Y-4535000I267544J0D01*
G01*
G37*
G36*
G01*
X139862544Y-1560000D02*
X142077456Y-1560000D01*
G75*
G02*
X142345000Y-1827544I0J-267544D01*
G01*
X142345000Y-2817456D01*
G75*
G02*
X142077456Y-3085000I-267544J0D01*
G01*
X139862544Y-3085000D01*
G75*
G02*
X139595000Y-2817456I0J267544D01*
G01*
X139595000Y-1827544D01*
G75*
G02*
X139862544Y-1560000I267544J0D01*
G01*
G37*
%TD*%
%TO.C,C7*%
G36*
G01*
X116182156Y-3997800D02*
X113967244Y-3997800D01*
G75*
G02*
X113699700Y-3730256I0J267544D01*
G01*
X113699700Y-2740344D01*
G75*
G02*
X113967244Y-2472800I267544J0D01*
G01*
X116182156Y-2472800D01*
G75*
G02*
X116449700Y-2740344I0J-267544D01*
G01*
X116449700Y-3730256D01*
G75*
G02*
X116182156Y-3997800I-267544J0D01*
G01*
G37*
G36*
G01*
X116182156Y-6972800D02*
X113967244Y-6972800D01*
G75*
G02*
X113699700Y-6705256I0J267544D01*
G01*
X113699700Y-5715344D01*
G75*
G02*
X113967244Y-5447800I267544J0D01*
G01*
X116182156Y-5447800D01*
G75*
G02*
X116449700Y-5715344I0J-267544D01*
G01*
X116449700Y-6705256D01*
G75*
G02*
X116182156Y-6972800I-267544J0D01*
G01*
G37*
%TD*%
%TO.C,C6*%
G36*
G01*
X104739456Y-26924500D02*
X102524544Y-26924500D01*
G75*
G02*
X102257000Y-26656956I0J267544D01*
G01*
X102257000Y-25667044D01*
G75*
G02*
X102524544Y-25399500I267544J0D01*
G01*
X104739456Y-25399500D01*
G75*
G02*
X105007000Y-25667044I0J-267544D01*
G01*
X105007000Y-26656956D01*
G75*
G02*
X104739456Y-26924500I-267544J0D01*
G01*
G37*
G36*
G01*
X104739456Y-29899500D02*
X102524544Y-29899500D01*
G75*
G02*
X102257000Y-29631956I0J267544D01*
G01*
X102257000Y-28642044D01*
G75*
G02*
X102524544Y-28374500I267544J0D01*
G01*
X104739456Y-28374500D01*
G75*
G02*
X105007000Y-28642044I0J-267544D01*
G01*
X105007000Y-29631956D01*
G75*
G02*
X104739456Y-29899500I-267544J0D01*
G01*
G37*
%TD*%
%TO.C,C5*%
G36*
G01*
X104993456Y-16256500D02*
X102778544Y-16256500D01*
G75*
G02*
X102511000Y-15988956I0J267544D01*
G01*
X102511000Y-14999044D01*
G75*
G02*
X102778544Y-14731500I267544J0D01*
G01*
X104993456Y-14731500D01*
G75*
G02*
X105261000Y-14999044I0J-267544D01*
G01*
X105261000Y-15988956D01*
G75*
G02*
X104993456Y-16256500I-267544J0D01*
G01*
G37*
G36*
G01*
X104993456Y-19231500D02*
X102778544Y-19231500D01*
G75*
G02*
X102511000Y-18963956I0J267544D01*
G01*
X102511000Y-17974044D01*
G75*
G02*
X102778544Y-17706500I267544J0D01*
G01*
X104993456Y-17706500D01*
G75*
G02*
X105261000Y-17974044I0J-267544D01*
G01*
X105261000Y-18963956D01*
G75*
G02*
X104993456Y-19231500I-267544J0D01*
G01*
G37*
%TD*%
%TO.C,C3*%
G36*
G01*
X129702544Y-22278500D02*
X131917456Y-22278500D01*
G75*
G02*
X132185000Y-22546044I0J-267544D01*
G01*
X132185000Y-23535956D01*
G75*
G02*
X131917456Y-23803500I-267544J0D01*
G01*
X129702544Y-23803500D01*
G75*
G02*
X129435000Y-23535956I0J267544D01*
G01*
X129435000Y-22546044D01*
G75*
G02*
X129702544Y-22278500I267544J0D01*
G01*
G37*
G36*
G01*
X129702544Y-19303500D02*
X131917456Y-19303500D01*
G75*
G02*
X132185000Y-19571044I0J-267544D01*
G01*
X132185000Y-20560956D01*
G75*
G02*
X131917456Y-20828500I-267544J0D01*
G01*
X129702544Y-20828500D01*
G75*
G02*
X129435000Y-20560956I0J267544D01*
G01*
X129435000Y-19571044D01*
G75*
G02*
X129702544Y-19303500I267544J0D01*
G01*
G37*
%TD*%
%TO.C,C2*%
G36*
G01*
X146687456Y-3485000D02*
X144472544Y-3485000D01*
G75*
G02*
X144205000Y-3217456I0J267544D01*
G01*
X144205000Y-2227544D01*
G75*
G02*
X144472544Y-1960000I267544J0D01*
G01*
X146687456Y-1960000D01*
G75*
G02*
X146955000Y-2227544I0J-267544D01*
G01*
X146955000Y-3217456D01*
G75*
G02*
X146687456Y-3485000I-267544J0D01*
G01*
G37*
G36*
G01*
X146687456Y-6460000D02*
X144472544Y-6460000D01*
G75*
G02*
X144205000Y-6192456I0J267544D01*
G01*
X144205000Y-5202544D01*
G75*
G02*
X144472544Y-4935000I267544J0D01*
G01*
X146687456Y-4935000D01*
G75*
G02*
X146955000Y-5202544I0J-267544D01*
G01*
X146955000Y-6192456D01*
G75*
G02*
X146687456Y-6460000I-267544J0D01*
G01*
G37*
%TD*%
%TO.C,C1*%
G36*
G01*
X135381500Y-4663456D02*
X135381500Y-2448544D01*
G75*
G02*
X135649044Y-2181000I267544J0D01*
G01*
X136638956Y-2181000D01*
G75*
G02*
X136906500Y-2448544I0J-267544D01*
G01*
X136906500Y-4663456D01*
G75*
G02*
X136638956Y-4931000I-267544J0D01*
G01*
X135649044Y-4931000D01*
G75*
G02*
X135381500Y-4663456I0J267544D01*
G01*
G37*
G36*
G01*
X132406500Y-4663456D02*
X132406500Y-2448544D01*
G75*
G02*
X132674044Y-2181000I267544J0D01*
G01*
X133663956Y-2181000D01*
G75*
G02*
X133931500Y-2448544I0J-267544D01*
G01*
X133931500Y-4663456D01*
G75*
G02*
X133663956Y-4931000I-267544J0D01*
G01*
X132674044Y-4931000D01*
G75*
G02*
X132406500Y-4663456I0J267544D01*
G01*
G37*
%TD*%
M02*
