%TF.GenerationSoftware,KiCad,Pcbnew,(5.1.6)-1*%
%TF.CreationDate,2021-02-12T14:45:57+03:00*%
%TF.ProjectId,CearusTab,43656172-7573-4546-9162-2e6b69636164,rev?*%
%TF.SameCoordinates,Original*%
%TF.FileFunction,Paste,Top*%
%TF.FilePolarity,Positive*%
%FSLAX46Y46*%
G04 Gerber Fmt 4.6, Leading zero omitted, Abs format (unit mm)*
G04 Created by KiCad (PCBNEW (5.1.6)-1) date 2021-02-12 14:45:57*
%MOMM*%
%LPD*%
G01*
G04 APERTURE LIST*
%ADD10R,1.500000X0.550000*%
%ADD11R,0.550000X1.500000*%
%ADD12R,1.060000X0.650000*%
%ADD13R,1.500000X1.900000*%
%ADD14R,0.400000X1.350000*%
G04 APERTURE END LIST*
%TO.C,Yellow1*%
G36*
G01*
X100675001Y-40785000D02*
X99774999Y-40785000D01*
G75*
G02*
X99525000Y-40535001I0J249999D01*
G01*
X99525000Y-39884999D01*
G75*
G02*
X99774999Y-39635000I249999J0D01*
G01*
X100675001Y-39635000D01*
G75*
G02*
X100925000Y-39884999I0J-249999D01*
G01*
X100925000Y-40535001D01*
G75*
G02*
X100675001Y-40785000I-249999J0D01*
G01*
G37*
G36*
G01*
X100675001Y-42835000D02*
X99774999Y-42835000D01*
G75*
G02*
X99525000Y-42585001I0J249999D01*
G01*
X99525000Y-41934999D01*
G75*
G02*
X99774999Y-41685000I249999J0D01*
G01*
X100675001Y-41685000D01*
G75*
G02*
X100925000Y-41934999I0J-249999D01*
G01*
X100925000Y-42585001D01*
G75*
G02*
X100675001Y-42835000I-249999J0D01*
G01*
G37*
%TD*%
D10*
%TO.C,U2*%
X125432000Y-18778000D03*
X125432000Y-19578000D03*
X125432000Y-20378000D03*
X125432000Y-21178000D03*
X125432000Y-21978000D03*
X125432000Y-22778000D03*
X125432000Y-23578000D03*
X125432000Y-24378000D03*
X125432000Y-25178000D03*
X125432000Y-25978000D03*
X125432000Y-26778000D03*
D11*
X123732000Y-28478000D03*
X122932000Y-28478000D03*
X122132000Y-28478000D03*
X121332000Y-28478000D03*
X120532000Y-28478000D03*
X119732000Y-28478000D03*
X118932000Y-28478000D03*
X118132000Y-28478000D03*
X117332000Y-28478000D03*
X116532000Y-28478000D03*
X115732000Y-28478000D03*
D10*
X114032000Y-26778000D03*
X114032000Y-25978000D03*
X114032000Y-25178000D03*
X114032000Y-24378000D03*
X114032000Y-23578000D03*
X114032000Y-22778000D03*
X114032000Y-21978000D03*
X114032000Y-21178000D03*
X114032000Y-20378000D03*
X114032000Y-19578000D03*
X114032000Y-18778000D03*
D11*
X115732000Y-17078000D03*
X116532000Y-17078000D03*
X117332000Y-17078000D03*
X118132000Y-17078000D03*
X118932000Y-17078000D03*
X119732000Y-17078000D03*
X120532000Y-17078000D03*
X121332000Y-17078000D03*
X122132000Y-17078000D03*
X122932000Y-17078000D03*
X123732000Y-17078000D03*
%TD*%
D12*
%TO.C,U1*%
X122799200Y-9014500D03*
X122799200Y-8064500D03*
X122799200Y-9964500D03*
X120599200Y-9964500D03*
X120599200Y-9014500D03*
X120599200Y-8064500D03*
%TD*%
%TO.C,reset1*%
G36*
G01*
X120979000Y-36583000D02*
X120979000Y-38733000D01*
G75*
G02*
X120729000Y-38983000I-250000J0D01*
G01*
X119804000Y-38983000D01*
G75*
G02*
X119554000Y-38733000I0J250000D01*
G01*
X119554000Y-36583000D01*
G75*
G02*
X119804000Y-36333000I250000J0D01*
G01*
X120729000Y-36333000D01*
G75*
G02*
X120979000Y-36583000I0J-250000D01*
G01*
G37*
G36*
G01*
X123954000Y-36583000D02*
X123954000Y-38733000D01*
G75*
G02*
X123704000Y-38983000I-250000J0D01*
G01*
X122779000Y-38983000D01*
G75*
G02*
X122529000Y-38733000I0J250000D01*
G01*
X122529000Y-36583000D01*
G75*
G02*
X122779000Y-36333000I250000J0D01*
G01*
X123704000Y-36333000D01*
G75*
G02*
X123954000Y-36583000I0J-250000D01*
G01*
G37*
%TD*%
%TO.C,R16*%
G36*
G01*
X281227500Y-21395000D02*
X281227500Y-19245000D01*
G75*
G02*
X281477500Y-18995000I250000J0D01*
G01*
X282402500Y-18995000D01*
G75*
G02*
X282652500Y-19245000I0J-250000D01*
G01*
X282652500Y-21395000D01*
G75*
G02*
X282402500Y-21645000I-250000J0D01*
G01*
X281477500Y-21645000D01*
G75*
G02*
X281227500Y-21395000I0J250000D01*
G01*
G37*
G36*
G01*
X278252500Y-21395000D02*
X278252500Y-19245000D01*
G75*
G02*
X278502500Y-18995000I250000J0D01*
G01*
X279427500Y-18995000D01*
G75*
G02*
X279677500Y-19245000I0J-250000D01*
G01*
X279677500Y-21395000D01*
G75*
G02*
X279427500Y-21645000I-250000J0D01*
G01*
X278502500Y-21645000D01*
G75*
G02*
X278252500Y-21395000I0J250000D01*
G01*
G37*
%TD*%
%TO.C,R15*%
G36*
G01*
X263447500Y-21395000D02*
X263447500Y-19245000D01*
G75*
G02*
X263697500Y-18995000I250000J0D01*
G01*
X264622500Y-18995000D01*
G75*
G02*
X264872500Y-19245000I0J-250000D01*
G01*
X264872500Y-21395000D01*
G75*
G02*
X264622500Y-21645000I-250000J0D01*
G01*
X263697500Y-21645000D01*
G75*
G02*
X263447500Y-21395000I0J250000D01*
G01*
G37*
G36*
G01*
X260472500Y-21395000D02*
X260472500Y-19245000D01*
G75*
G02*
X260722500Y-18995000I250000J0D01*
G01*
X261647500Y-18995000D01*
G75*
G02*
X261897500Y-19245000I0J-250000D01*
G01*
X261897500Y-21395000D01*
G75*
G02*
X261647500Y-21645000I-250000J0D01*
G01*
X260722500Y-21645000D01*
G75*
G02*
X260472500Y-21395000I0J250000D01*
G01*
G37*
%TD*%
%TO.C,R14*%
G36*
G01*
X245667500Y-21395000D02*
X245667500Y-19245000D01*
G75*
G02*
X245917500Y-18995000I250000J0D01*
G01*
X246842500Y-18995000D01*
G75*
G02*
X247092500Y-19245000I0J-250000D01*
G01*
X247092500Y-21395000D01*
G75*
G02*
X246842500Y-21645000I-250000J0D01*
G01*
X245917500Y-21645000D01*
G75*
G02*
X245667500Y-21395000I0J250000D01*
G01*
G37*
G36*
G01*
X242692500Y-21395000D02*
X242692500Y-19245000D01*
G75*
G02*
X242942500Y-18995000I250000J0D01*
G01*
X243867500Y-18995000D01*
G75*
G02*
X244117500Y-19245000I0J-250000D01*
G01*
X244117500Y-21395000D01*
G75*
G02*
X243867500Y-21645000I-250000J0D01*
G01*
X242942500Y-21645000D01*
G75*
G02*
X242692500Y-21395000I0J250000D01*
G01*
G37*
%TD*%
%TO.C,R13*%
G36*
G01*
X227887500Y-21395000D02*
X227887500Y-19245000D01*
G75*
G02*
X228137500Y-18995000I250000J0D01*
G01*
X229062500Y-18995000D01*
G75*
G02*
X229312500Y-19245000I0J-250000D01*
G01*
X229312500Y-21395000D01*
G75*
G02*
X229062500Y-21645000I-250000J0D01*
G01*
X228137500Y-21645000D01*
G75*
G02*
X227887500Y-21395000I0J250000D01*
G01*
G37*
G36*
G01*
X224912500Y-21395000D02*
X224912500Y-19245000D01*
G75*
G02*
X225162500Y-18995000I250000J0D01*
G01*
X226087500Y-18995000D01*
G75*
G02*
X226337500Y-19245000I0J-250000D01*
G01*
X226337500Y-21395000D01*
G75*
G02*
X226087500Y-21645000I-250000J0D01*
G01*
X225162500Y-21645000D01*
G75*
G02*
X224912500Y-21395000I0J250000D01*
G01*
G37*
%TD*%
%TO.C,R12*%
G36*
G01*
X209055000Y-21395000D02*
X209055000Y-19245000D01*
G75*
G02*
X209305000Y-18995000I250000J0D01*
G01*
X210230000Y-18995000D01*
G75*
G02*
X210480000Y-19245000I0J-250000D01*
G01*
X210480000Y-21395000D01*
G75*
G02*
X210230000Y-21645000I-250000J0D01*
G01*
X209305000Y-21645000D01*
G75*
G02*
X209055000Y-21395000I0J250000D01*
G01*
G37*
G36*
G01*
X206080000Y-21395000D02*
X206080000Y-19245000D01*
G75*
G02*
X206330000Y-18995000I250000J0D01*
G01*
X207255000Y-18995000D01*
G75*
G02*
X207505000Y-19245000I0J-250000D01*
G01*
X207505000Y-21395000D01*
G75*
G02*
X207255000Y-21645000I-250000J0D01*
G01*
X206330000Y-21645000D01*
G75*
G02*
X206080000Y-21395000I0J250000D01*
G01*
G37*
%TD*%
%TO.C,R11*%
G36*
G01*
X192545000Y-21395000D02*
X192545000Y-19245000D01*
G75*
G02*
X192795000Y-18995000I250000J0D01*
G01*
X193720000Y-18995000D01*
G75*
G02*
X193970000Y-19245000I0J-250000D01*
G01*
X193970000Y-21395000D01*
G75*
G02*
X193720000Y-21645000I-250000J0D01*
G01*
X192795000Y-21645000D01*
G75*
G02*
X192545000Y-21395000I0J250000D01*
G01*
G37*
G36*
G01*
X189570000Y-21395000D02*
X189570000Y-19245000D01*
G75*
G02*
X189820000Y-18995000I250000J0D01*
G01*
X190745000Y-18995000D01*
G75*
G02*
X190995000Y-19245000I0J-250000D01*
G01*
X190995000Y-21395000D01*
G75*
G02*
X190745000Y-21645000I-250000J0D01*
G01*
X189820000Y-21645000D01*
G75*
G02*
X189570000Y-21395000I0J250000D01*
G01*
G37*
%TD*%
%TO.C,R10*%
G36*
G01*
X173277500Y-21395000D02*
X173277500Y-19245000D01*
G75*
G02*
X173527500Y-18995000I250000J0D01*
G01*
X174452500Y-18995000D01*
G75*
G02*
X174702500Y-19245000I0J-250000D01*
G01*
X174702500Y-21395000D01*
G75*
G02*
X174452500Y-21645000I-250000J0D01*
G01*
X173527500Y-21645000D01*
G75*
G02*
X173277500Y-21395000I0J250000D01*
G01*
G37*
G36*
G01*
X170302500Y-21395000D02*
X170302500Y-19245000D01*
G75*
G02*
X170552500Y-18995000I250000J0D01*
G01*
X171477500Y-18995000D01*
G75*
G02*
X171727500Y-19245000I0J-250000D01*
G01*
X171727500Y-21395000D01*
G75*
G02*
X171477500Y-21645000I-250000J0D01*
G01*
X170552500Y-21645000D01*
G75*
G02*
X170302500Y-21395000I0J250000D01*
G01*
G37*
%TD*%
%TO.C,R9*%
G36*
G01*
X156767500Y-21395000D02*
X156767500Y-19245000D01*
G75*
G02*
X157017500Y-18995000I250000J0D01*
G01*
X157942500Y-18995000D01*
G75*
G02*
X158192500Y-19245000I0J-250000D01*
G01*
X158192500Y-21395000D01*
G75*
G02*
X157942500Y-21645000I-250000J0D01*
G01*
X157017500Y-21645000D01*
G75*
G02*
X156767500Y-21395000I0J250000D01*
G01*
G37*
G36*
G01*
X153792500Y-21395000D02*
X153792500Y-19245000D01*
G75*
G02*
X154042500Y-18995000I250000J0D01*
G01*
X154967500Y-18995000D01*
G75*
G02*
X155217500Y-19245000I0J-250000D01*
G01*
X155217500Y-21395000D01*
G75*
G02*
X154967500Y-21645000I-250000J0D01*
G01*
X154042500Y-21645000D01*
G75*
G02*
X153792500Y-21395000I0J250000D01*
G01*
G37*
%TD*%
%TO.C,R8*%
G36*
G01*
X115774500Y-36517000D02*
X115774500Y-38667000D01*
G75*
G02*
X115524500Y-38917000I-250000J0D01*
G01*
X114599500Y-38917000D01*
G75*
G02*
X114349500Y-38667000I0J250000D01*
G01*
X114349500Y-36517000D01*
G75*
G02*
X114599500Y-36267000I250000J0D01*
G01*
X115524500Y-36267000D01*
G75*
G02*
X115774500Y-36517000I0J-250000D01*
G01*
G37*
G36*
G01*
X118749500Y-36517000D02*
X118749500Y-38667000D01*
G75*
G02*
X118499500Y-38917000I-250000J0D01*
G01*
X117574500Y-38917000D01*
G75*
G02*
X117324500Y-38667000I0J250000D01*
G01*
X117324500Y-36517000D01*
G75*
G02*
X117574500Y-36267000I250000J0D01*
G01*
X118499500Y-36267000D01*
G75*
G02*
X118749500Y-36517000I0J-250000D01*
G01*
G37*
%TD*%
%TO.C,R7*%
G36*
G01*
X101593000Y-9181000D02*
X99443000Y-9181000D01*
G75*
G02*
X99193000Y-8931000I0J250000D01*
G01*
X99193000Y-8006000D01*
G75*
G02*
X99443000Y-7756000I250000J0D01*
G01*
X101593000Y-7756000D01*
G75*
G02*
X101843000Y-8006000I0J-250000D01*
G01*
X101843000Y-8931000D01*
G75*
G02*
X101593000Y-9181000I-250000J0D01*
G01*
G37*
G36*
G01*
X101593000Y-12156000D02*
X99443000Y-12156000D01*
G75*
G02*
X99193000Y-11906000I0J250000D01*
G01*
X99193000Y-10981000D01*
G75*
G02*
X99443000Y-10731000I250000J0D01*
G01*
X101593000Y-10731000D01*
G75*
G02*
X101843000Y-10981000I0J-250000D01*
G01*
X101843000Y-11906000D01*
G75*
G02*
X101593000Y-12156000I-250000J0D01*
G01*
G37*
%TD*%
%TO.C,R6*%
G36*
G01*
X108145000Y-23163500D02*
X110295000Y-23163500D01*
G75*
G02*
X110545000Y-23413500I0J-250000D01*
G01*
X110545000Y-24338500D01*
G75*
G02*
X110295000Y-24588500I-250000J0D01*
G01*
X108145000Y-24588500D01*
G75*
G02*
X107895000Y-24338500I0J250000D01*
G01*
X107895000Y-23413500D01*
G75*
G02*
X108145000Y-23163500I250000J0D01*
G01*
G37*
G36*
G01*
X108145000Y-20188500D02*
X110295000Y-20188500D01*
G75*
G02*
X110545000Y-20438500I0J-250000D01*
G01*
X110545000Y-21363500D01*
G75*
G02*
X110295000Y-21613500I-250000J0D01*
G01*
X108145000Y-21613500D01*
G75*
G02*
X107895000Y-21363500I0J250000D01*
G01*
X107895000Y-20438500D01*
G75*
G02*
X108145000Y-20188500I250000J0D01*
G01*
G37*
%TD*%
%TO.C,R5*%
G36*
G01*
X105215000Y-40082500D02*
X103065000Y-40082500D01*
G75*
G02*
X102815000Y-39832500I0J250000D01*
G01*
X102815000Y-38907500D01*
G75*
G02*
X103065000Y-38657500I250000J0D01*
G01*
X105215000Y-38657500D01*
G75*
G02*
X105465000Y-38907500I0J-250000D01*
G01*
X105465000Y-39832500D01*
G75*
G02*
X105215000Y-40082500I-250000J0D01*
G01*
G37*
G36*
G01*
X105215000Y-43057500D02*
X103065000Y-43057500D01*
G75*
G02*
X102815000Y-42807500I0J250000D01*
G01*
X102815000Y-41882500D01*
G75*
G02*
X103065000Y-41632500I250000J0D01*
G01*
X105215000Y-41632500D01*
G75*
G02*
X105465000Y-41882500I0J-250000D01*
G01*
X105465000Y-42807500D01*
G75*
G02*
X105215000Y-43057500I-250000J0D01*
G01*
G37*
%TD*%
%TO.C,R4*%
G36*
G01*
X119937500Y-34095000D02*
X119937500Y-31945000D01*
G75*
G02*
X120187500Y-31695000I250000J0D01*
G01*
X121112500Y-31695000D01*
G75*
G02*
X121362500Y-31945000I0J-250000D01*
G01*
X121362500Y-34095000D01*
G75*
G02*
X121112500Y-34345000I-250000J0D01*
G01*
X120187500Y-34345000D01*
G75*
G02*
X119937500Y-34095000I0J250000D01*
G01*
G37*
G36*
G01*
X116962500Y-34095000D02*
X116962500Y-31945000D01*
G75*
G02*
X117212500Y-31695000I250000J0D01*
G01*
X118137500Y-31695000D01*
G75*
G02*
X118387500Y-31945000I0J-250000D01*
G01*
X118387500Y-34095000D01*
G75*
G02*
X118137500Y-34345000I-250000J0D01*
G01*
X117212500Y-34345000D01*
G75*
G02*
X116962500Y-34095000I0J250000D01*
G01*
G37*
%TD*%
%TO.C,R3*%
G36*
G01*
X126335100Y-8891300D02*
X124185100Y-8891300D01*
G75*
G02*
X123935100Y-8641300I0J250000D01*
G01*
X123935100Y-7716300D01*
G75*
G02*
X124185100Y-7466300I250000J0D01*
G01*
X126335100Y-7466300D01*
G75*
G02*
X126585100Y-7716300I0J-250000D01*
G01*
X126585100Y-8641300D01*
G75*
G02*
X126335100Y-8891300I-250000J0D01*
G01*
G37*
G36*
G01*
X126335100Y-11866300D02*
X124185100Y-11866300D01*
G75*
G02*
X123935100Y-11616300I0J250000D01*
G01*
X123935100Y-10691300D01*
G75*
G02*
X124185100Y-10441300I250000J0D01*
G01*
X126335100Y-10441300D01*
G75*
G02*
X126585100Y-10691300I0J-250000D01*
G01*
X126585100Y-11616300D01*
G75*
G02*
X126335100Y-11866300I-250000J0D01*
G01*
G37*
%TD*%
%TO.C,R2*%
G36*
G01*
X119223100Y-8865900D02*
X117073100Y-8865900D01*
G75*
G02*
X116823100Y-8615900I0J250000D01*
G01*
X116823100Y-7690900D01*
G75*
G02*
X117073100Y-7440900I250000J0D01*
G01*
X119223100Y-7440900D01*
G75*
G02*
X119473100Y-7690900I0J-250000D01*
G01*
X119473100Y-8615900D01*
G75*
G02*
X119223100Y-8865900I-250000J0D01*
G01*
G37*
G36*
G01*
X119223100Y-11840900D02*
X117073100Y-11840900D01*
G75*
G02*
X116823100Y-11590900I0J250000D01*
G01*
X116823100Y-10665900D01*
G75*
G02*
X117073100Y-10415900I250000J0D01*
G01*
X119223100Y-10415900D01*
G75*
G02*
X119473100Y-10665900I0J-250000D01*
G01*
X119473100Y-11590900D01*
G75*
G02*
X119223100Y-11840900I-250000J0D01*
G01*
G37*
%TD*%
%TO.C,R1*%
G36*
G01*
X133155000Y-10872500D02*
X131005000Y-10872500D01*
G75*
G02*
X130755000Y-10622500I0J250000D01*
G01*
X130755000Y-9697500D01*
G75*
G02*
X131005000Y-9447500I250000J0D01*
G01*
X133155000Y-9447500D01*
G75*
G02*
X133405000Y-9697500I0J-250000D01*
G01*
X133405000Y-10622500D01*
G75*
G02*
X133155000Y-10872500I-250000J0D01*
G01*
G37*
G36*
G01*
X133155000Y-13847500D02*
X131005000Y-13847500D01*
G75*
G02*
X130755000Y-13597500I0J250000D01*
G01*
X130755000Y-12672500D01*
G75*
G02*
X131005000Y-12422500I250000J0D01*
G01*
X133155000Y-12422500D01*
G75*
G02*
X133405000Y-12672500I0J-250000D01*
G01*
X133405000Y-13597500D01*
G75*
G02*
X133155000Y-13847500I-250000J0D01*
G01*
G37*
%TD*%
%TO.C,Power_red1*%
G36*
G01*
X136814999Y-12845000D02*
X137715001Y-12845000D01*
G75*
G02*
X137965000Y-13094999I0J-249999D01*
G01*
X137965000Y-13745001D01*
G75*
G02*
X137715001Y-13995000I-249999J0D01*
G01*
X136814999Y-13995000D01*
G75*
G02*
X136565000Y-13745001I0J249999D01*
G01*
X136565000Y-13094999D01*
G75*
G02*
X136814999Y-12845000I249999J0D01*
G01*
G37*
G36*
G01*
X136814999Y-10795000D02*
X137715001Y-10795000D01*
G75*
G02*
X137965000Y-11044999I0J-249999D01*
G01*
X137965000Y-11695001D01*
G75*
G02*
X137715001Y-11945000I-249999J0D01*
G01*
X136814999Y-11945000D01*
G75*
G02*
X136565000Y-11695001I0J249999D01*
G01*
X136565000Y-11044999D01*
G75*
G02*
X136814999Y-10795000I249999J0D01*
G01*
G37*
%TD*%
D13*
%TO.C,J1*%
X122412000Y-3080500D03*
D14*
X121412000Y-5780500D03*
X120762000Y-5780500D03*
X120112000Y-5780500D03*
X122712000Y-5780500D03*
X122062000Y-5780500D03*
D13*
X120412000Y-3080500D03*
%TD*%
%TO.C,F1*%
G36*
G01*
X131435000Y-3579500D02*
X130185000Y-3579500D01*
G75*
G02*
X129935000Y-3329500I0J250000D01*
G01*
X129935000Y-2404500D01*
G75*
G02*
X130185000Y-2154500I250000J0D01*
G01*
X131435000Y-2154500D01*
G75*
G02*
X131685000Y-2404500I0J-250000D01*
G01*
X131685000Y-3329500D01*
G75*
G02*
X131435000Y-3579500I-250000J0D01*
G01*
G37*
G36*
G01*
X131435000Y-6554500D02*
X130185000Y-6554500D01*
G75*
G02*
X129935000Y-6304500I0J250000D01*
G01*
X129935000Y-5379500D01*
G75*
G02*
X130185000Y-5129500I250000J0D01*
G01*
X131435000Y-5129500D01*
G75*
G02*
X131685000Y-5379500I0J-250000D01*
G01*
X131685000Y-6304500D01*
G75*
G02*
X131435000Y-6554500I-250000J0D01*
G01*
G37*
%TD*%
%TO.C,C8*%
G36*
G01*
X139895000Y-4585000D02*
X142045000Y-4585000D01*
G75*
G02*
X142295000Y-4835000I0J-250000D01*
G01*
X142295000Y-5760000D01*
G75*
G02*
X142045000Y-6010000I-250000J0D01*
G01*
X139895000Y-6010000D01*
G75*
G02*
X139645000Y-5760000I0J250000D01*
G01*
X139645000Y-4835000D01*
G75*
G02*
X139895000Y-4585000I250000J0D01*
G01*
G37*
G36*
G01*
X139895000Y-1610000D02*
X142045000Y-1610000D01*
G75*
G02*
X142295000Y-1860000I0J-250000D01*
G01*
X142295000Y-2785000D01*
G75*
G02*
X142045000Y-3035000I-250000J0D01*
G01*
X139895000Y-3035000D01*
G75*
G02*
X139645000Y-2785000I0J250000D01*
G01*
X139645000Y-1860000D01*
G75*
G02*
X139895000Y-1610000I250000J0D01*
G01*
G37*
%TD*%
%TO.C,C7*%
G36*
G01*
X116149700Y-3947800D02*
X113999700Y-3947800D01*
G75*
G02*
X113749700Y-3697800I0J250000D01*
G01*
X113749700Y-2772800D01*
G75*
G02*
X113999700Y-2522800I250000J0D01*
G01*
X116149700Y-2522800D01*
G75*
G02*
X116399700Y-2772800I0J-250000D01*
G01*
X116399700Y-3697800D01*
G75*
G02*
X116149700Y-3947800I-250000J0D01*
G01*
G37*
G36*
G01*
X116149700Y-6922800D02*
X113999700Y-6922800D01*
G75*
G02*
X113749700Y-6672800I0J250000D01*
G01*
X113749700Y-5747800D01*
G75*
G02*
X113999700Y-5497800I250000J0D01*
G01*
X116149700Y-5497800D01*
G75*
G02*
X116399700Y-5747800I0J-250000D01*
G01*
X116399700Y-6672800D01*
G75*
G02*
X116149700Y-6922800I-250000J0D01*
G01*
G37*
%TD*%
%TO.C,C6*%
G36*
G01*
X104707000Y-26874500D02*
X102557000Y-26874500D01*
G75*
G02*
X102307000Y-26624500I0J250000D01*
G01*
X102307000Y-25699500D01*
G75*
G02*
X102557000Y-25449500I250000J0D01*
G01*
X104707000Y-25449500D01*
G75*
G02*
X104957000Y-25699500I0J-250000D01*
G01*
X104957000Y-26624500D01*
G75*
G02*
X104707000Y-26874500I-250000J0D01*
G01*
G37*
G36*
G01*
X104707000Y-29849500D02*
X102557000Y-29849500D01*
G75*
G02*
X102307000Y-29599500I0J250000D01*
G01*
X102307000Y-28674500D01*
G75*
G02*
X102557000Y-28424500I250000J0D01*
G01*
X104707000Y-28424500D01*
G75*
G02*
X104957000Y-28674500I0J-250000D01*
G01*
X104957000Y-29599500D01*
G75*
G02*
X104707000Y-29849500I-250000J0D01*
G01*
G37*
%TD*%
%TO.C,C5*%
G36*
G01*
X104961000Y-16206500D02*
X102811000Y-16206500D01*
G75*
G02*
X102561000Y-15956500I0J250000D01*
G01*
X102561000Y-15031500D01*
G75*
G02*
X102811000Y-14781500I250000J0D01*
G01*
X104961000Y-14781500D01*
G75*
G02*
X105211000Y-15031500I0J-250000D01*
G01*
X105211000Y-15956500D01*
G75*
G02*
X104961000Y-16206500I-250000J0D01*
G01*
G37*
G36*
G01*
X104961000Y-19181500D02*
X102811000Y-19181500D01*
G75*
G02*
X102561000Y-18931500I0J250000D01*
G01*
X102561000Y-18006500D01*
G75*
G02*
X102811000Y-17756500I250000J0D01*
G01*
X104961000Y-17756500D01*
G75*
G02*
X105211000Y-18006500I0J-250000D01*
G01*
X105211000Y-18931500D01*
G75*
G02*
X104961000Y-19181500I-250000J0D01*
G01*
G37*
%TD*%
%TO.C,C3*%
G36*
G01*
X129735000Y-22328500D02*
X131885000Y-22328500D01*
G75*
G02*
X132135000Y-22578500I0J-250000D01*
G01*
X132135000Y-23503500D01*
G75*
G02*
X131885000Y-23753500I-250000J0D01*
G01*
X129735000Y-23753500D01*
G75*
G02*
X129485000Y-23503500I0J250000D01*
G01*
X129485000Y-22578500D01*
G75*
G02*
X129735000Y-22328500I250000J0D01*
G01*
G37*
G36*
G01*
X129735000Y-19353500D02*
X131885000Y-19353500D01*
G75*
G02*
X132135000Y-19603500I0J-250000D01*
G01*
X132135000Y-20528500D01*
G75*
G02*
X131885000Y-20778500I-250000J0D01*
G01*
X129735000Y-20778500D01*
G75*
G02*
X129485000Y-20528500I0J250000D01*
G01*
X129485000Y-19603500D01*
G75*
G02*
X129735000Y-19353500I250000J0D01*
G01*
G37*
%TD*%
%TO.C,C2*%
G36*
G01*
X146655000Y-3435000D02*
X144505000Y-3435000D01*
G75*
G02*
X144255000Y-3185000I0J250000D01*
G01*
X144255000Y-2260000D01*
G75*
G02*
X144505000Y-2010000I250000J0D01*
G01*
X146655000Y-2010000D01*
G75*
G02*
X146905000Y-2260000I0J-250000D01*
G01*
X146905000Y-3185000D01*
G75*
G02*
X146655000Y-3435000I-250000J0D01*
G01*
G37*
G36*
G01*
X146655000Y-6410000D02*
X144505000Y-6410000D01*
G75*
G02*
X144255000Y-6160000I0J250000D01*
G01*
X144255000Y-5235000D01*
G75*
G02*
X144505000Y-4985000I250000J0D01*
G01*
X146655000Y-4985000D01*
G75*
G02*
X146905000Y-5235000I0J-250000D01*
G01*
X146905000Y-6160000D01*
G75*
G02*
X146655000Y-6410000I-250000J0D01*
G01*
G37*
%TD*%
%TO.C,C1*%
G36*
G01*
X135431500Y-4631000D02*
X135431500Y-2481000D01*
G75*
G02*
X135681500Y-2231000I250000J0D01*
G01*
X136606500Y-2231000D01*
G75*
G02*
X136856500Y-2481000I0J-250000D01*
G01*
X136856500Y-4631000D01*
G75*
G02*
X136606500Y-4881000I-250000J0D01*
G01*
X135681500Y-4881000D01*
G75*
G02*
X135431500Y-4631000I0J250000D01*
G01*
G37*
G36*
G01*
X132456500Y-4631000D02*
X132456500Y-2481000D01*
G75*
G02*
X132706500Y-2231000I250000J0D01*
G01*
X133631500Y-2231000D01*
G75*
G02*
X133881500Y-2481000I0J-250000D01*
G01*
X133881500Y-4631000D01*
G75*
G02*
X133631500Y-4881000I-250000J0D01*
G01*
X132706500Y-4881000D01*
G75*
G02*
X132456500Y-4631000I0J250000D01*
G01*
G37*
%TD*%
M02*
