%TF.GenerationSoftware,KiCad,Pcbnew,(5.1.6)-1*%
%TF.CreationDate,2021-02-12T14:30:02+03:00*%
%TF.ProjectId,CearusTab,43656172-7573-4546-9162-2e6b69636164,rev?*%
%TF.SameCoordinates,Original*%
%TF.FileFunction,Paste,Top*%
%TF.FilePolarity,Positive*%
%FSLAX46Y46*%
G04 Gerber Fmt 4.6, Leading zero omitted, Abs format (unit mm)*
G04 Created by KiCad (PCBNEW (5.1.6)-1) date 2021-02-12 14:30:02*
%MOMM*%
%LPD*%
G01*
G04 APERTURE LIST*
%ADD10C,0.100000*%
%ADD11C,0.150000*%
%ADD12C,0.300000*%
%ADD13C,0.400000*%
%ADD14R,1.500000X0.550000*%
%ADD15R,0.550000X1.500000*%
%ADD16R,1.060000X0.650000*%
%ADD17R,1.500000X1.900000*%
%ADD18R,0.400000X1.350000*%
G04 APERTURE END LIST*
D10*
D11*
X177002200Y-166007200D02*
X177002200Y-198007200D01*
X285002200Y-198007200D01*
X285002200Y-166007200D01*
X177002200Y-166007200D01*
D10*
D11*
X10000000Y-10000000D02*
X10000000Y-200007200D01*
X287002200Y-200007200D01*
X287002200Y-10000000D01*
X10000000Y-10000000D01*
D10*
D11*
X12000000Y-12000000D02*
X12000000Y-198007200D01*
X285002200Y-198007200D01*
X285002200Y-12000000D01*
X12000000Y-12000000D01*
D10*
D11*
X60000000Y-12000000D02*
X60000000Y-10000000D01*
D10*
D11*
X110000000Y-12000000D02*
X110000000Y-10000000D01*
D10*
D11*
X160000000Y-12000000D02*
X160000000Y-10000000D01*
D10*
D11*
X210000000Y-12000000D02*
X210000000Y-10000000D01*
D10*
D11*
X260000000Y-12000000D02*
X260000000Y-10000000D01*
D10*
D11*
X36065476Y-11588095D02*
X35322619Y-11588095D01*
X35694047Y-11588095D02*
X35694047Y-10288095D01*
X35570238Y-10473809D01*
X35446428Y-10597619D01*
X35322619Y-10659523D01*
D10*
D11*
X85322619Y-10411904D02*
X85384523Y-10350000D01*
X85508333Y-10288095D01*
X85817857Y-10288095D01*
X85941666Y-10350000D01*
X86003571Y-10411904D01*
X86065476Y-10535714D01*
X86065476Y-10659523D01*
X86003571Y-10845238D01*
X85260714Y-11588095D01*
X86065476Y-11588095D01*
D10*
D11*
X135260714Y-10288095D02*
X136065476Y-10288095D01*
X135632142Y-10783333D01*
X135817857Y-10783333D01*
X135941666Y-10845238D01*
X136003571Y-10907142D01*
X136065476Y-11030952D01*
X136065476Y-11340476D01*
X136003571Y-11464285D01*
X135941666Y-11526190D01*
X135817857Y-11588095D01*
X135446428Y-11588095D01*
X135322619Y-11526190D01*
X135260714Y-11464285D01*
D10*
D11*
X185941666Y-10721428D02*
X185941666Y-11588095D01*
X185632142Y-10226190D02*
X185322619Y-11154761D01*
X186127380Y-11154761D01*
D10*
D11*
X236003571Y-10288095D02*
X235384523Y-10288095D01*
X235322619Y-10907142D01*
X235384523Y-10845238D01*
X235508333Y-10783333D01*
X235817857Y-10783333D01*
X235941666Y-10845238D01*
X236003571Y-10907142D01*
X236065476Y-11030952D01*
X236065476Y-11340476D01*
X236003571Y-11464285D01*
X235941666Y-11526190D01*
X235817857Y-11588095D01*
X235508333Y-11588095D01*
X235384523Y-11526190D01*
X235322619Y-11464285D01*
D10*
D11*
X285941666Y-10288095D02*
X285694047Y-10288095D01*
X285570238Y-10350000D01*
X285508333Y-10411904D01*
X285384523Y-10597619D01*
X285322619Y-10845238D01*
X285322619Y-11340476D01*
X285384523Y-11464285D01*
X285446428Y-11526190D01*
X285570238Y-11588095D01*
X285817857Y-11588095D01*
X285941666Y-11526190D01*
X286003571Y-11464285D01*
X286065476Y-11340476D01*
X286065476Y-11030952D01*
X286003571Y-10907142D01*
X285941666Y-10845238D01*
X285817857Y-10783333D01*
X285570238Y-10783333D01*
X285446428Y-10845238D01*
X285384523Y-10907142D01*
X285322619Y-11030952D01*
D10*
D11*
X60000000Y-198007200D02*
X60000000Y-200007200D01*
D10*
D11*
X110000000Y-198007200D02*
X110000000Y-200007200D01*
D10*
D11*
X160000000Y-198007200D02*
X160000000Y-200007200D01*
D10*
D11*
X210000000Y-198007200D02*
X210000000Y-200007200D01*
D10*
D11*
X260000000Y-198007200D02*
X260000000Y-200007200D01*
D10*
D11*
X36065476Y-199595295D02*
X35322619Y-199595295D01*
X35694047Y-199595295D02*
X35694047Y-198295295D01*
X35570238Y-198481009D01*
X35446428Y-198604819D01*
X35322619Y-198666723D01*
D10*
D11*
X85322619Y-198419104D02*
X85384523Y-198357200D01*
X85508333Y-198295295D01*
X85817857Y-198295295D01*
X85941666Y-198357200D01*
X86003571Y-198419104D01*
X86065476Y-198542914D01*
X86065476Y-198666723D01*
X86003571Y-198852438D01*
X85260714Y-199595295D01*
X86065476Y-199595295D01*
D10*
D11*
X135260714Y-198295295D02*
X136065476Y-198295295D01*
X135632142Y-198790533D01*
X135817857Y-198790533D01*
X135941666Y-198852438D01*
X136003571Y-198914342D01*
X136065476Y-199038152D01*
X136065476Y-199347676D01*
X136003571Y-199471485D01*
X135941666Y-199533390D01*
X135817857Y-199595295D01*
X135446428Y-199595295D01*
X135322619Y-199533390D01*
X135260714Y-199471485D01*
D10*
D11*
X185941666Y-198728628D02*
X185941666Y-199595295D01*
X185632142Y-198233390D02*
X185322619Y-199161961D01*
X186127380Y-199161961D01*
D10*
D11*
X236003571Y-198295295D02*
X235384523Y-198295295D01*
X235322619Y-198914342D01*
X235384523Y-198852438D01*
X235508333Y-198790533D01*
X235817857Y-198790533D01*
X235941666Y-198852438D01*
X236003571Y-198914342D01*
X236065476Y-199038152D01*
X236065476Y-199347676D01*
X236003571Y-199471485D01*
X235941666Y-199533390D01*
X235817857Y-199595295D01*
X235508333Y-199595295D01*
X235384523Y-199533390D01*
X235322619Y-199471485D01*
D10*
D11*
X285941666Y-198295295D02*
X285694047Y-198295295D01*
X285570238Y-198357200D01*
X285508333Y-198419104D01*
X285384523Y-198604819D01*
X285322619Y-198852438D01*
X285322619Y-199347676D01*
X285384523Y-199471485D01*
X285446428Y-199533390D01*
X285570238Y-199595295D01*
X285817857Y-199595295D01*
X285941666Y-199533390D01*
X286003571Y-199471485D01*
X286065476Y-199347676D01*
X286065476Y-199038152D01*
X286003571Y-198914342D01*
X285941666Y-198852438D01*
X285817857Y-198790533D01*
X285570238Y-198790533D01*
X285446428Y-198852438D01*
X285384523Y-198914342D01*
X285322619Y-199038152D01*
D10*
D11*
X10000000Y-60000000D02*
X12000000Y-60000000D01*
D10*
D11*
X10000000Y-110000000D02*
X12000000Y-110000000D01*
D10*
D11*
X10000000Y-160000000D02*
X12000000Y-160000000D01*
D10*
D11*
X10690476Y-35216666D02*
X11309523Y-35216666D01*
X10566666Y-35588095D02*
X11000000Y-34288095D01*
X11433333Y-35588095D01*
D10*
D11*
X11092857Y-84907142D02*
X11278571Y-84969047D01*
X11340476Y-85030952D01*
X11402380Y-85154761D01*
X11402380Y-85340476D01*
X11340476Y-85464285D01*
X11278571Y-85526190D01*
X11154761Y-85588095D01*
X10659523Y-85588095D01*
X10659523Y-84288095D01*
X11092857Y-84288095D01*
X11216666Y-84350000D01*
X11278571Y-84411904D01*
X11340476Y-84535714D01*
X11340476Y-84659523D01*
X11278571Y-84783333D01*
X11216666Y-84845238D01*
X11092857Y-84907142D01*
X10659523Y-84907142D01*
D10*
D11*
X11402380Y-135464285D02*
X11340476Y-135526190D01*
X11154761Y-135588095D01*
X11030952Y-135588095D01*
X10845238Y-135526190D01*
X10721428Y-135402380D01*
X10659523Y-135278571D01*
X10597619Y-135030952D01*
X10597619Y-134845238D01*
X10659523Y-134597619D01*
X10721428Y-134473809D01*
X10845238Y-134350000D01*
X11030952Y-134288095D01*
X11154761Y-134288095D01*
X11340476Y-134350000D01*
X11402380Y-134411904D01*
D10*
D11*
X10659523Y-185588095D02*
X10659523Y-184288095D01*
X10969047Y-184288095D01*
X11154761Y-184350000D01*
X11278571Y-184473809D01*
X11340476Y-184597619D01*
X11402380Y-184845238D01*
X11402380Y-185030952D01*
X11340476Y-185278571D01*
X11278571Y-185402380D01*
X11154761Y-185526190D01*
X10969047Y-185588095D01*
X10659523Y-185588095D01*
D10*
D11*
X287002200Y-60000000D02*
X285002200Y-60000000D01*
D10*
D11*
X287002200Y-110000000D02*
X285002200Y-110000000D01*
D10*
D11*
X287002200Y-160000000D02*
X285002200Y-160000000D01*
D10*
D11*
X285692676Y-35216666D02*
X286311723Y-35216666D01*
X285568866Y-35588095D02*
X286002200Y-34288095D01*
X286435533Y-35588095D01*
D10*
D11*
X286095057Y-84907142D02*
X286280771Y-84969047D01*
X286342676Y-85030952D01*
X286404580Y-85154761D01*
X286404580Y-85340476D01*
X286342676Y-85464285D01*
X286280771Y-85526190D01*
X286156961Y-85588095D01*
X285661723Y-85588095D01*
X285661723Y-84288095D01*
X286095057Y-84288095D01*
X286218866Y-84350000D01*
X286280771Y-84411904D01*
X286342676Y-84535714D01*
X286342676Y-84659523D01*
X286280771Y-84783333D01*
X286218866Y-84845238D01*
X286095057Y-84907142D01*
X285661723Y-84907142D01*
D10*
D11*
X286404580Y-135464285D02*
X286342676Y-135526190D01*
X286156961Y-135588095D01*
X286033152Y-135588095D01*
X285847438Y-135526190D01*
X285723628Y-135402380D01*
X285661723Y-135278571D01*
X285599819Y-135030952D01*
X285599819Y-134845238D01*
X285661723Y-134597619D01*
X285723628Y-134473809D01*
X285847438Y-134350000D01*
X286033152Y-134288095D01*
X286156961Y-134288095D01*
X286342676Y-134350000D01*
X286404580Y-134411904D01*
D10*
D11*
X285661723Y-185588095D02*
X285661723Y-184288095D01*
X285971247Y-184288095D01*
X286156961Y-184350000D01*
X286280771Y-184473809D01*
X286342676Y-184597619D01*
X286404580Y-184845238D01*
X286404580Y-185030952D01*
X286342676Y-185278571D01*
X286280771Y-185402380D01*
X286156961Y-185526190D01*
X285971247Y-185588095D01*
X285661723Y-185588095D01*
D10*
D11*
X200434342Y-193785771D02*
X200434342Y-192285771D01*
X200791485Y-192285771D01*
X201005771Y-192357200D01*
X201148628Y-192500057D01*
X201220057Y-192642914D01*
X201291485Y-192928628D01*
X201291485Y-193142914D01*
X201220057Y-193428628D01*
X201148628Y-193571485D01*
X201005771Y-193714342D01*
X200791485Y-193785771D01*
X200434342Y-193785771D01*
X202577200Y-193785771D02*
X202577200Y-193000057D01*
X202505771Y-192857200D01*
X202362914Y-192785771D01*
X202077200Y-192785771D01*
X201934342Y-192857200D01*
X202577200Y-193714342D02*
X202434342Y-193785771D01*
X202077200Y-193785771D01*
X201934342Y-193714342D01*
X201862914Y-193571485D01*
X201862914Y-193428628D01*
X201934342Y-193285771D01*
X202077200Y-193214342D01*
X202434342Y-193214342D01*
X202577200Y-193142914D01*
X203077200Y-192785771D02*
X203648628Y-192785771D01*
X203291485Y-192285771D02*
X203291485Y-193571485D01*
X203362914Y-193714342D01*
X203505771Y-193785771D01*
X203648628Y-193785771D01*
X204720057Y-193714342D02*
X204577200Y-193785771D01*
X204291485Y-193785771D01*
X204148628Y-193714342D01*
X204077200Y-193571485D01*
X204077200Y-193000057D01*
X204148628Y-192857200D01*
X204291485Y-192785771D01*
X204577200Y-192785771D01*
X204720057Y-192857200D01*
X204791485Y-193000057D01*
X204791485Y-193142914D01*
X204077200Y-193285771D01*
X205434342Y-193642914D02*
X205505771Y-193714342D01*
X205434342Y-193785771D01*
X205362914Y-193714342D01*
X205434342Y-193642914D01*
X205434342Y-193785771D01*
X205434342Y-192857200D02*
X205505771Y-192928628D01*
X205434342Y-193000057D01*
X205362914Y-192928628D01*
X205434342Y-192857200D01*
X205434342Y-193000057D01*
D10*
D11*
X177002200Y-194507200D02*
X285002200Y-194507200D01*
D10*
D11*
X178434342Y-196585771D02*
X178434342Y-195085771D01*
X179291485Y-196585771D02*
X178648628Y-195728628D01*
X179291485Y-195085771D02*
X178434342Y-195942914D01*
X179934342Y-196585771D02*
X179934342Y-195585771D01*
X179934342Y-195085771D02*
X179862914Y-195157200D01*
X179934342Y-195228628D01*
X180005771Y-195157200D01*
X179934342Y-195085771D01*
X179934342Y-195228628D01*
X181505771Y-196442914D02*
X181434342Y-196514342D01*
X181220057Y-196585771D01*
X181077200Y-196585771D01*
X180862914Y-196514342D01*
X180720057Y-196371485D01*
X180648628Y-196228628D01*
X180577200Y-195942914D01*
X180577200Y-195728628D01*
X180648628Y-195442914D01*
X180720057Y-195300057D01*
X180862914Y-195157200D01*
X181077200Y-195085771D01*
X181220057Y-195085771D01*
X181434342Y-195157200D01*
X181505771Y-195228628D01*
X182791485Y-196585771D02*
X182791485Y-195800057D01*
X182720057Y-195657200D01*
X182577200Y-195585771D01*
X182291485Y-195585771D01*
X182148628Y-195657200D01*
X182791485Y-196514342D02*
X182648628Y-196585771D01*
X182291485Y-196585771D01*
X182148628Y-196514342D01*
X182077200Y-196371485D01*
X182077200Y-196228628D01*
X182148628Y-196085771D01*
X182291485Y-196014342D01*
X182648628Y-196014342D01*
X182791485Y-195942914D01*
X184148628Y-196585771D02*
X184148628Y-195085771D01*
X184148628Y-196514342D02*
X184005771Y-196585771D01*
X183720057Y-196585771D01*
X183577200Y-196514342D01*
X183505771Y-196442914D01*
X183434342Y-196300057D01*
X183434342Y-195871485D01*
X183505771Y-195728628D01*
X183577200Y-195657200D01*
X183720057Y-195585771D01*
X184005771Y-195585771D01*
X184148628Y-195657200D01*
X186005771Y-195800057D02*
X186505771Y-195800057D01*
X186720057Y-196585771D02*
X186005771Y-196585771D01*
X186005771Y-195085771D01*
X186720057Y-195085771D01*
X187362914Y-196442914D02*
X187434342Y-196514342D01*
X187362914Y-196585771D01*
X187291485Y-196514342D01*
X187362914Y-196442914D01*
X187362914Y-196585771D01*
X188077200Y-196585771D02*
X188077200Y-195085771D01*
X188434342Y-195085771D01*
X188648628Y-195157200D01*
X188791485Y-195300057D01*
X188862914Y-195442914D01*
X188934342Y-195728628D01*
X188934342Y-195942914D01*
X188862914Y-196228628D01*
X188791485Y-196371485D01*
X188648628Y-196514342D01*
X188434342Y-196585771D01*
X188077200Y-196585771D01*
X189577200Y-196442914D02*
X189648628Y-196514342D01*
X189577200Y-196585771D01*
X189505771Y-196514342D01*
X189577200Y-196442914D01*
X189577200Y-196585771D01*
X190220057Y-196157200D02*
X190934342Y-196157200D01*
X190077200Y-196585771D02*
X190577200Y-195085771D01*
X191077200Y-196585771D01*
X191577200Y-196442914D02*
X191648628Y-196514342D01*
X191577200Y-196585771D01*
X191505771Y-196514342D01*
X191577200Y-196442914D01*
X191577200Y-196585771D01*
X194577200Y-195585771D02*
X194577200Y-197085771D01*
X194577200Y-195657200D02*
X194720057Y-195585771D01*
X195005771Y-195585771D01*
X195148628Y-195657200D01*
X195220057Y-195728628D01*
X195291485Y-195871485D01*
X195291485Y-196300057D01*
X195220057Y-196442914D01*
X195148628Y-196514342D01*
X195005771Y-196585771D01*
X194720057Y-196585771D01*
X194577200Y-196514342D01*
X196577200Y-196514342D02*
X196434342Y-196585771D01*
X196148628Y-196585771D01*
X196005771Y-196514342D01*
X195934342Y-196442914D01*
X195862914Y-196300057D01*
X195862914Y-195871485D01*
X195934342Y-195728628D01*
X196005771Y-195657200D01*
X196148628Y-195585771D01*
X196434342Y-195585771D01*
X196577200Y-195657200D01*
X197220057Y-196585771D02*
X197220057Y-195085771D01*
X197220057Y-195657200D02*
X197362914Y-195585771D01*
X197648628Y-195585771D01*
X197791485Y-195657200D01*
X197862914Y-195728628D01*
X197934342Y-195871485D01*
X197934342Y-196300057D01*
X197862914Y-196442914D01*
X197791485Y-196514342D01*
X197648628Y-196585771D01*
X197362914Y-196585771D01*
X197220057Y-196514342D01*
X198577200Y-195585771D02*
X198577200Y-196585771D01*
X198577200Y-195728628D02*
X198648628Y-195657200D01*
X198791485Y-195585771D01*
X199005771Y-195585771D01*
X199148628Y-195657200D01*
X199220057Y-195800057D01*
X199220057Y-196585771D01*
X200505771Y-196514342D02*
X200362914Y-196585771D01*
X200077200Y-196585771D01*
X199934342Y-196514342D01*
X199862914Y-196371485D01*
X199862914Y-195800057D01*
X199934342Y-195657200D01*
X200077200Y-195585771D01*
X200362914Y-195585771D01*
X200505771Y-195657200D01*
X200577200Y-195800057D01*
X200577200Y-195942914D01*
X199862914Y-196085771D01*
X201077200Y-195585771D02*
X201362914Y-196585771D01*
X201648628Y-195871485D01*
X201934342Y-196585771D01*
X202220057Y-195585771D01*
X204362914Y-197157200D02*
X204291485Y-197085771D01*
X204148628Y-196871485D01*
X204077200Y-196728628D01*
X204005771Y-196514342D01*
X203934342Y-196157200D01*
X203934342Y-195871485D01*
X204005771Y-195514342D01*
X204077200Y-195300057D01*
X204148628Y-195157200D01*
X204291485Y-194942914D01*
X204362914Y-194871485D01*
X205648628Y-195085771D02*
X204934342Y-195085771D01*
X204862914Y-195800057D01*
X204934342Y-195728628D01*
X205077200Y-195657200D01*
X205434342Y-195657200D01*
X205577200Y-195728628D01*
X205648628Y-195800057D01*
X205720057Y-195942914D01*
X205720057Y-196300057D01*
X205648628Y-196442914D01*
X205577200Y-196514342D01*
X205434342Y-196585771D01*
X205077200Y-196585771D01*
X204934342Y-196514342D01*
X204862914Y-196442914D01*
X206362914Y-196442914D02*
X206434342Y-196514342D01*
X206362914Y-196585771D01*
X206291485Y-196514342D01*
X206362914Y-196442914D01*
X206362914Y-196585771D01*
X207862914Y-196585771D02*
X207005771Y-196585771D01*
X207434342Y-196585771D02*
X207434342Y-195085771D01*
X207291485Y-195300057D01*
X207148628Y-195442914D01*
X207005771Y-195514342D01*
X208505771Y-196442914D02*
X208577200Y-196514342D01*
X208505771Y-196585771D01*
X208434342Y-196514342D01*
X208505771Y-196442914D01*
X208505771Y-196585771D01*
X209862914Y-195085771D02*
X209577200Y-195085771D01*
X209434342Y-195157200D01*
X209362914Y-195228628D01*
X209220057Y-195442914D01*
X209148628Y-195728628D01*
X209148628Y-196300057D01*
X209220057Y-196442914D01*
X209291485Y-196514342D01*
X209434342Y-196585771D01*
X209720057Y-196585771D01*
X209862914Y-196514342D01*
X209934342Y-196442914D01*
X210005771Y-196300057D01*
X210005771Y-195942914D01*
X209934342Y-195800057D01*
X209862914Y-195728628D01*
X209720057Y-195657200D01*
X209434342Y-195657200D01*
X209291485Y-195728628D01*
X209220057Y-195800057D01*
X209148628Y-195942914D01*
X210505771Y-197157200D02*
X210577200Y-197085771D01*
X210720057Y-196871485D01*
X210791485Y-196728628D01*
X210862914Y-196514342D01*
X210934342Y-196157200D01*
X210934342Y-195871485D01*
X210862914Y-195514342D01*
X210791485Y-195300057D01*
X210720057Y-195157200D01*
X210577200Y-194942914D01*
X210505771Y-194871485D01*
X211648628Y-196014342D02*
X212791485Y-196014342D01*
X214291485Y-196585771D02*
X213434342Y-196585771D01*
X213862914Y-196585771D02*
X213862914Y-195085771D01*
X213720057Y-195300057D01*
X213577200Y-195442914D01*
X213434342Y-195514342D01*
D10*
D11*
X177002200Y-191507200D02*
X285002200Y-191507200D01*
D10*
D12*
X264411485Y-193785771D02*
X263911485Y-193071485D01*
X263554342Y-193785771D02*
X263554342Y-192285771D01*
X264125771Y-192285771D01*
X264268628Y-192357200D01*
X264340057Y-192428628D01*
X264411485Y-192571485D01*
X264411485Y-192785771D01*
X264340057Y-192928628D01*
X264268628Y-193000057D01*
X264125771Y-193071485D01*
X263554342Y-193071485D01*
X265625771Y-193714342D02*
X265482914Y-193785771D01*
X265197200Y-193785771D01*
X265054342Y-193714342D01*
X264982914Y-193571485D01*
X264982914Y-193000057D01*
X265054342Y-192857200D01*
X265197200Y-192785771D01*
X265482914Y-192785771D01*
X265625771Y-192857200D01*
X265697200Y-193000057D01*
X265697200Y-193142914D01*
X264982914Y-193285771D01*
X266197200Y-192785771D02*
X266554342Y-193785771D01*
X266911485Y-192785771D01*
X267482914Y-193642914D02*
X267554342Y-193714342D01*
X267482914Y-193785771D01*
X267411485Y-193714342D01*
X267482914Y-193642914D01*
X267482914Y-193785771D01*
X267482914Y-192857200D02*
X267554342Y-192928628D01*
X267482914Y-193000057D01*
X267411485Y-192928628D01*
X267482914Y-192857200D01*
X267482914Y-193000057D01*
D10*
D11*
X178362914Y-193714342D02*
X178577200Y-193785771D01*
X178934342Y-193785771D01*
X179077200Y-193714342D01*
X179148628Y-193642914D01*
X179220057Y-193500057D01*
X179220057Y-193357200D01*
X179148628Y-193214342D01*
X179077200Y-193142914D01*
X178934342Y-193071485D01*
X178648628Y-193000057D01*
X178505771Y-192928628D01*
X178434342Y-192857200D01*
X178362914Y-192714342D01*
X178362914Y-192571485D01*
X178434342Y-192428628D01*
X178505771Y-192357200D01*
X178648628Y-192285771D01*
X179005771Y-192285771D01*
X179220057Y-192357200D01*
X179862914Y-193785771D02*
X179862914Y-192785771D01*
X179862914Y-192285771D02*
X179791485Y-192357200D01*
X179862914Y-192428628D01*
X179934342Y-192357200D01*
X179862914Y-192285771D01*
X179862914Y-192428628D01*
X180434342Y-192785771D02*
X181220057Y-192785771D01*
X180434342Y-193785771D01*
X181220057Y-193785771D01*
X182362914Y-193714342D02*
X182220057Y-193785771D01*
X181934342Y-193785771D01*
X181791485Y-193714342D01*
X181720057Y-193571485D01*
X181720057Y-193000057D01*
X181791485Y-192857200D01*
X181934342Y-192785771D01*
X182220057Y-192785771D01*
X182362914Y-192857200D01*
X182434342Y-193000057D01*
X182434342Y-193142914D01*
X181720057Y-193285771D01*
X183077200Y-193642914D02*
X183148628Y-193714342D01*
X183077200Y-193785771D01*
X183005771Y-193714342D01*
X183077200Y-193642914D01*
X183077200Y-193785771D01*
X183077200Y-192857200D02*
X183148628Y-192928628D01*
X183077200Y-193000057D01*
X183005771Y-192928628D01*
X183077200Y-192857200D01*
X183077200Y-193000057D01*
X184862914Y-193357200D02*
X185577200Y-193357200D01*
X184720057Y-193785771D02*
X185220057Y-192285771D01*
X185720057Y-193785771D01*
X186862914Y-192785771D02*
X186862914Y-193785771D01*
X186505771Y-192214342D02*
X186148628Y-193285771D01*
X187077200Y-193285771D01*
D10*
D11*
X263434342Y-196585771D02*
X263434342Y-195085771D01*
X264791485Y-196585771D02*
X264791485Y-195085771D01*
X264791485Y-196514342D02*
X264648628Y-196585771D01*
X264362914Y-196585771D01*
X264220057Y-196514342D01*
X264148628Y-196442914D01*
X264077200Y-196300057D01*
X264077200Y-195871485D01*
X264148628Y-195728628D01*
X264220057Y-195657200D01*
X264362914Y-195585771D01*
X264648628Y-195585771D01*
X264791485Y-195657200D01*
X265505771Y-196442914D02*
X265577200Y-196514342D01*
X265505771Y-196585771D01*
X265434342Y-196514342D01*
X265505771Y-196442914D01*
X265505771Y-196585771D01*
X265505771Y-195657200D02*
X265577200Y-195728628D01*
X265505771Y-195800057D01*
X265434342Y-195728628D01*
X265505771Y-195657200D01*
X265505771Y-195800057D01*
X268148628Y-196585771D02*
X267291485Y-196585771D01*
X267720057Y-196585771D02*
X267720057Y-195085771D01*
X267577200Y-195300057D01*
X267434342Y-195442914D01*
X267291485Y-195514342D01*
X269862914Y-195014342D02*
X268577200Y-196942914D01*
X271148628Y-196585771D02*
X270291485Y-196585771D01*
X270720057Y-196585771D02*
X270720057Y-195085771D01*
X270577200Y-195300057D01*
X270434342Y-195442914D01*
X270291485Y-195514342D01*
D10*
D11*
X177002200Y-187507200D02*
X285002200Y-187507200D01*
D10*
D13*
X178714580Y-188211961D02*
X179857438Y-188211961D01*
X179036009Y-190211961D02*
X179286009Y-188211961D01*
X180274104Y-190211961D02*
X180440771Y-188878628D01*
X180524104Y-188211961D02*
X180416961Y-188307200D01*
X180500295Y-188402438D01*
X180607438Y-188307200D01*
X180524104Y-188211961D01*
X180500295Y-188402438D01*
X181107438Y-188878628D02*
X181869342Y-188878628D01*
X181476485Y-188211961D02*
X181262200Y-189926247D01*
X181333628Y-190116723D01*
X181512200Y-190211961D01*
X181702676Y-190211961D01*
X182655057Y-190211961D02*
X182476485Y-190116723D01*
X182405057Y-189926247D01*
X182619342Y-188211961D01*
X184190771Y-190116723D02*
X183988390Y-190211961D01*
X183607438Y-190211961D01*
X183428866Y-190116723D01*
X183357438Y-189926247D01*
X183452676Y-189164342D01*
X183571723Y-188973866D01*
X183774104Y-188878628D01*
X184155057Y-188878628D01*
X184333628Y-188973866D01*
X184405057Y-189164342D01*
X184381247Y-189354819D01*
X183405057Y-189545295D01*
X185155057Y-190021485D02*
X185238390Y-190116723D01*
X185131247Y-190211961D01*
X185047914Y-190116723D01*
X185155057Y-190021485D01*
X185131247Y-190211961D01*
X185286009Y-188973866D02*
X185369342Y-189069104D01*
X185262200Y-189164342D01*
X185178866Y-189069104D01*
X185286009Y-188973866D01*
X185262200Y-189164342D01*
D10*
D11*
X178934342Y-185600057D02*
X178434342Y-185600057D01*
X178434342Y-186385771D02*
X178434342Y-184885771D01*
X179148628Y-184885771D01*
X179720057Y-186385771D02*
X179720057Y-185385771D01*
X179720057Y-184885771D02*
X179648628Y-184957200D01*
X179720057Y-185028628D01*
X179791485Y-184957200D01*
X179720057Y-184885771D01*
X179720057Y-185028628D01*
X180648628Y-186385771D02*
X180505771Y-186314342D01*
X180434342Y-186171485D01*
X180434342Y-184885771D01*
X181791485Y-186314342D02*
X181648628Y-186385771D01*
X181362914Y-186385771D01*
X181220057Y-186314342D01*
X181148628Y-186171485D01*
X181148628Y-185600057D01*
X181220057Y-185457200D01*
X181362914Y-185385771D01*
X181648628Y-185385771D01*
X181791485Y-185457200D01*
X181862914Y-185600057D01*
X181862914Y-185742914D01*
X181148628Y-185885771D01*
X182505771Y-186242914D02*
X182577200Y-186314342D01*
X182505771Y-186385771D01*
X182434342Y-186314342D01*
X182505771Y-186242914D01*
X182505771Y-186385771D01*
X182505771Y-185457200D02*
X182577200Y-185528628D01*
X182505771Y-185600057D01*
X182434342Y-185528628D01*
X182505771Y-185457200D01*
X182505771Y-185600057D01*
X185220057Y-186242914D02*
X185148628Y-186314342D01*
X184934342Y-186385771D01*
X184791485Y-186385771D01*
X184577200Y-186314342D01*
X184434342Y-186171485D01*
X184362914Y-186028628D01*
X184291485Y-185742914D01*
X184291485Y-185528628D01*
X184362914Y-185242914D01*
X184434342Y-185100057D01*
X184577200Y-184957200D01*
X184791485Y-184885771D01*
X184934342Y-184885771D01*
X185148628Y-184957200D01*
X185220057Y-185028628D01*
X186434342Y-186314342D02*
X186291485Y-186385771D01*
X186005771Y-186385771D01*
X185862914Y-186314342D01*
X185791485Y-186171485D01*
X185791485Y-185600057D01*
X185862914Y-185457200D01*
X186005771Y-185385771D01*
X186291485Y-185385771D01*
X186434342Y-185457200D01*
X186505771Y-185600057D01*
X186505771Y-185742914D01*
X185791485Y-185885771D01*
X187791485Y-186385771D02*
X187791485Y-185600057D01*
X187720057Y-185457200D01*
X187577200Y-185385771D01*
X187291485Y-185385771D01*
X187148628Y-185457200D01*
X187791485Y-186314342D02*
X187648628Y-186385771D01*
X187291485Y-186385771D01*
X187148628Y-186314342D01*
X187077200Y-186171485D01*
X187077200Y-186028628D01*
X187148628Y-185885771D01*
X187291485Y-185814342D01*
X187648628Y-185814342D01*
X187791485Y-185742914D01*
X188505771Y-186385771D02*
X188505771Y-185385771D01*
X188505771Y-185671485D02*
X188577200Y-185528628D01*
X188648628Y-185457200D01*
X188791485Y-185385771D01*
X188934342Y-185385771D01*
X190077200Y-185385771D02*
X190077200Y-186385771D01*
X189434342Y-185385771D02*
X189434342Y-186171485D01*
X189505771Y-186314342D01*
X189648628Y-186385771D01*
X189862914Y-186385771D01*
X190005771Y-186314342D01*
X190077200Y-186242914D01*
X190720057Y-186314342D02*
X190862914Y-186385771D01*
X191148628Y-186385771D01*
X191291485Y-186314342D01*
X191362914Y-186171485D01*
X191362914Y-186100057D01*
X191291485Y-185957200D01*
X191148628Y-185885771D01*
X190934342Y-185885771D01*
X190791485Y-185814342D01*
X190720057Y-185671485D01*
X190720057Y-185600057D01*
X190791485Y-185457200D01*
X190934342Y-185385771D01*
X191148628Y-185385771D01*
X191291485Y-185457200D01*
X191791485Y-184885771D02*
X192648628Y-184885771D01*
X192220057Y-186385771D02*
X192220057Y-184885771D01*
X193791485Y-186385771D02*
X193791485Y-185600057D01*
X193720057Y-185457200D01*
X193577200Y-185385771D01*
X193291485Y-185385771D01*
X193148628Y-185457200D01*
X193791485Y-186314342D02*
X193648628Y-186385771D01*
X193291485Y-186385771D01*
X193148628Y-186314342D01*
X193077200Y-186171485D01*
X193077200Y-186028628D01*
X193148628Y-185885771D01*
X193291485Y-185814342D01*
X193648628Y-185814342D01*
X193791485Y-185742914D01*
X194505771Y-186385771D02*
X194505771Y-184885771D01*
X194505771Y-185457200D02*
X194648628Y-185385771D01*
X194934342Y-185385771D01*
X195077200Y-185457200D01*
X195148628Y-185528628D01*
X195220057Y-185671485D01*
X195220057Y-186100057D01*
X195148628Y-186242914D01*
X195077200Y-186314342D01*
X194934342Y-186385771D01*
X194648628Y-186385771D01*
X194505771Y-186314342D01*
X195862914Y-186242914D02*
X195934342Y-186314342D01*
X195862914Y-186385771D01*
X195791485Y-186314342D01*
X195862914Y-186242914D01*
X195862914Y-186385771D01*
X196577200Y-186385771D02*
X196577200Y-184885771D01*
X196720057Y-185814342D02*
X197148628Y-186385771D01*
X197148628Y-185385771D02*
X196577200Y-185957200D01*
X197791485Y-186385771D02*
X197791485Y-185385771D01*
X197791485Y-184885771D02*
X197720057Y-184957200D01*
X197791485Y-185028628D01*
X197862914Y-184957200D01*
X197791485Y-184885771D01*
X197791485Y-185028628D01*
X199148628Y-186314342D02*
X199005771Y-186385771D01*
X198720057Y-186385771D01*
X198577200Y-186314342D01*
X198505771Y-186242914D01*
X198434342Y-186100057D01*
X198434342Y-185671485D01*
X198505771Y-185528628D01*
X198577200Y-185457200D01*
X198720057Y-185385771D01*
X199005771Y-185385771D01*
X199148628Y-185457200D01*
X200434342Y-186385771D02*
X200434342Y-185600057D01*
X200362914Y-185457200D01*
X200220057Y-185385771D01*
X199934342Y-185385771D01*
X199791485Y-185457200D01*
X200434342Y-186314342D02*
X200291485Y-186385771D01*
X199934342Y-186385771D01*
X199791485Y-186314342D01*
X199720057Y-186171485D01*
X199720057Y-186028628D01*
X199791485Y-185885771D01*
X199934342Y-185814342D01*
X200291485Y-185814342D01*
X200434342Y-185742914D01*
X201791485Y-186385771D02*
X201791485Y-184885771D01*
X201791485Y-186314342D02*
X201648628Y-186385771D01*
X201362914Y-186385771D01*
X201220057Y-186314342D01*
X201148628Y-186242914D01*
X201077200Y-186100057D01*
X201077200Y-185671485D01*
X201148628Y-185528628D01*
X201220057Y-185457200D01*
X201362914Y-185385771D01*
X201648628Y-185385771D01*
X201791485Y-185457200D01*
X202148628Y-186528628D02*
X203291485Y-186528628D01*
X203648628Y-185385771D02*
X203648628Y-186885771D01*
X203648628Y-185457200D02*
X203791485Y-185385771D01*
X204077200Y-185385771D01*
X204220057Y-185457200D01*
X204291485Y-185528628D01*
X204362914Y-185671485D01*
X204362914Y-186100057D01*
X204291485Y-186242914D01*
X204220057Y-186314342D01*
X204077200Y-186385771D01*
X203791485Y-186385771D01*
X203648628Y-186314342D01*
X205648628Y-186314342D02*
X205505771Y-186385771D01*
X205220057Y-186385771D01*
X205077200Y-186314342D01*
X205005771Y-186242914D01*
X204934342Y-186100057D01*
X204934342Y-185671485D01*
X205005771Y-185528628D01*
X205077200Y-185457200D01*
X205220057Y-185385771D01*
X205505771Y-185385771D01*
X205648628Y-185457200D01*
X206291485Y-186385771D02*
X206291485Y-184885771D01*
X206291485Y-185457200D02*
X206434342Y-185385771D01*
X206720057Y-185385771D01*
X206862914Y-185457200D01*
X206934342Y-185528628D01*
X207005771Y-185671485D01*
X207005771Y-186100057D01*
X206934342Y-186242914D01*
X206862914Y-186314342D01*
X206720057Y-186385771D01*
X206434342Y-186385771D01*
X206291485Y-186314342D01*
D10*
D11*
X177002200Y-181507200D02*
X285002200Y-181507200D01*
D10*
D11*
X178362914Y-183614342D02*
X178577200Y-183685771D01*
X178934342Y-183685771D01*
X179077200Y-183614342D01*
X179148628Y-183542914D01*
X179220057Y-183400057D01*
X179220057Y-183257200D01*
X179148628Y-183114342D01*
X179077200Y-183042914D01*
X178934342Y-182971485D01*
X178648628Y-182900057D01*
X178505771Y-182828628D01*
X178434342Y-182757200D01*
X178362914Y-182614342D01*
X178362914Y-182471485D01*
X178434342Y-182328628D01*
X178505771Y-182257200D01*
X178648628Y-182185771D01*
X179005771Y-182185771D01*
X179220057Y-182257200D01*
X179862914Y-183685771D02*
X179862914Y-182185771D01*
X180505771Y-183685771D02*
X180505771Y-182900057D01*
X180434342Y-182757200D01*
X180291485Y-182685771D01*
X180077200Y-182685771D01*
X179934342Y-182757200D01*
X179862914Y-182828628D01*
X181791485Y-183614342D02*
X181648628Y-183685771D01*
X181362914Y-183685771D01*
X181220057Y-183614342D01*
X181148628Y-183471485D01*
X181148628Y-182900057D01*
X181220057Y-182757200D01*
X181362914Y-182685771D01*
X181648628Y-182685771D01*
X181791485Y-182757200D01*
X181862914Y-182900057D01*
X181862914Y-183042914D01*
X181148628Y-183185771D01*
X183077200Y-183614342D02*
X182934342Y-183685771D01*
X182648628Y-183685771D01*
X182505771Y-183614342D01*
X182434342Y-183471485D01*
X182434342Y-182900057D01*
X182505771Y-182757200D01*
X182648628Y-182685771D01*
X182934342Y-182685771D01*
X183077200Y-182757200D01*
X183148628Y-182900057D01*
X183148628Y-183042914D01*
X182434342Y-183185771D01*
X183577200Y-182685771D02*
X184148628Y-182685771D01*
X183791485Y-182185771D02*
X183791485Y-183471485D01*
X183862914Y-183614342D01*
X184005771Y-183685771D01*
X184148628Y-183685771D01*
X184648628Y-183542914D02*
X184720057Y-183614342D01*
X184648628Y-183685771D01*
X184577200Y-183614342D01*
X184648628Y-183542914D01*
X184648628Y-183685771D01*
X184648628Y-182757200D02*
X184720057Y-182828628D01*
X184648628Y-182900057D01*
X184577200Y-182828628D01*
X184648628Y-182757200D01*
X184648628Y-182900057D01*
D10*
D11*
X197002200Y-191507200D02*
X197002200Y-194507200D01*
D10*
D11*
X261002200Y-191507200D02*
X261002200Y-198007200D01*
%TO.C,Yellow1*%
G36*
G01*
X100675001Y-40785000D02*
X99774999Y-40785000D01*
G75*
G02*
X99525000Y-40535001I0J249999D01*
G01*
X99525000Y-39884999D01*
G75*
G02*
X99774999Y-39635000I249999J0D01*
G01*
X100675001Y-39635000D01*
G75*
G02*
X100925000Y-39884999I0J-249999D01*
G01*
X100925000Y-40535001D01*
G75*
G02*
X100675001Y-40785000I-249999J0D01*
G01*
G37*
G36*
G01*
X100675001Y-42835000D02*
X99774999Y-42835000D01*
G75*
G02*
X99525000Y-42585001I0J249999D01*
G01*
X99525000Y-41934999D01*
G75*
G02*
X99774999Y-41685000I249999J0D01*
G01*
X100675001Y-41685000D01*
G75*
G02*
X100925000Y-41934999I0J-249999D01*
G01*
X100925000Y-42585001D01*
G75*
G02*
X100675001Y-42835000I-249999J0D01*
G01*
G37*
%TD*%
D14*
%TO.C,U2*%
X125432000Y-18778000D03*
X125432000Y-19578000D03*
X125432000Y-20378000D03*
X125432000Y-21178000D03*
X125432000Y-21978000D03*
X125432000Y-22778000D03*
X125432000Y-23578000D03*
X125432000Y-24378000D03*
X125432000Y-25178000D03*
X125432000Y-25978000D03*
X125432000Y-26778000D03*
D15*
X123732000Y-28478000D03*
X122932000Y-28478000D03*
X122132000Y-28478000D03*
X121332000Y-28478000D03*
X120532000Y-28478000D03*
X119732000Y-28478000D03*
X118932000Y-28478000D03*
X118132000Y-28478000D03*
X117332000Y-28478000D03*
X116532000Y-28478000D03*
X115732000Y-28478000D03*
D14*
X114032000Y-26778000D03*
X114032000Y-25978000D03*
X114032000Y-25178000D03*
X114032000Y-24378000D03*
X114032000Y-23578000D03*
X114032000Y-22778000D03*
X114032000Y-21978000D03*
X114032000Y-21178000D03*
X114032000Y-20378000D03*
X114032000Y-19578000D03*
X114032000Y-18778000D03*
D15*
X115732000Y-17078000D03*
X116532000Y-17078000D03*
X117332000Y-17078000D03*
X118132000Y-17078000D03*
X118932000Y-17078000D03*
X119732000Y-17078000D03*
X120532000Y-17078000D03*
X121332000Y-17078000D03*
X122132000Y-17078000D03*
X122932000Y-17078000D03*
X123732000Y-17078000D03*
%TD*%
D16*
%TO.C,U1*%
X122799200Y-9014500D03*
X122799200Y-8064500D03*
X122799200Y-9964500D03*
X120599200Y-9964500D03*
X120599200Y-9014500D03*
X120599200Y-8064500D03*
%TD*%
%TO.C,reset1*%
G36*
G01*
X120979000Y-36583000D02*
X120979000Y-38733000D01*
G75*
G02*
X120729000Y-38983000I-250000J0D01*
G01*
X119804000Y-38983000D01*
G75*
G02*
X119554000Y-38733000I0J250000D01*
G01*
X119554000Y-36583000D01*
G75*
G02*
X119804000Y-36333000I250000J0D01*
G01*
X120729000Y-36333000D01*
G75*
G02*
X120979000Y-36583000I0J-250000D01*
G01*
G37*
G36*
G01*
X123954000Y-36583000D02*
X123954000Y-38733000D01*
G75*
G02*
X123704000Y-38983000I-250000J0D01*
G01*
X122779000Y-38983000D01*
G75*
G02*
X122529000Y-38733000I0J250000D01*
G01*
X122529000Y-36583000D01*
G75*
G02*
X122779000Y-36333000I250000J0D01*
G01*
X123704000Y-36333000D01*
G75*
G02*
X123954000Y-36583000I0J-250000D01*
G01*
G37*
%TD*%
%TO.C,R16*%
G36*
G01*
X281227500Y-21395000D02*
X281227500Y-19245000D01*
G75*
G02*
X281477500Y-18995000I250000J0D01*
G01*
X282402500Y-18995000D01*
G75*
G02*
X282652500Y-19245000I0J-250000D01*
G01*
X282652500Y-21395000D01*
G75*
G02*
X282402500Y-21645000I-250000J0D01*
G01*
X281477500Y-21645000D01*
G75*
G02*
X281227500Y-21395000I0J250000D01*
G01*
G37*
G36*
G01*
X278252500Y-21395000D02*
X278252500Y-19245000D01*
G75*
G02*
X278502500Y-18995000I250000J0D01*
G01*
X279427500Y-18995000D01*
G75*
G02*
X279677500Y-19245000I0J-250000D01*
G01*
X279677500Y-21395000D01*
G75*
G02*
X279427500Y-21645000I-250000J0D01*
G01*
X278502500Y-21645000D01*
G75*
G02*
X278252500Y-21395000I0J250000D01*
G01*
G37*
%TD*%
%TO.C,R15*%
G36*
G01*
X263447500Y-21395000D02*
X263447500Y-19245000D01*
G75*
G02*
X263697500Y-18995000I250000J0D01*
G01*
X264622500Y-18995000D01*
G75*
G02*
X264872500Y-19245000I0J-250000D01*
G01*
X264872500Y-21395000D01*
G75*
G02*
X264622500Y-21645000I-250000J0D01*
G01*
X263697500Y-21645000D01*
G75*
G02*
X263447500Y-21395000I0J250000D01*
G01*
G37*
G36*
G01*
X260472500Y-21395000D02*
X260472500Y-19245000D01*
G75*
G02*
X260722500Y-18995000I250000J0D01*
G01*
X261647500Y-18995000D01*
G75*
G02*
X261897500Y-19245000I0J-250000D01*
G01*
X261897500Y-21395000D01*
G75*
G02*
X261647500Y-21645000I-250000J0D01*
G01*
X260722500Y-21645000D01*
G75*
G02*
X260472500Y-21395000I0J250000D01*
G01*
G37*
%TD*%
%TO.C,R14*%
G36*
G01*
X245667500Y-21395000D02*
X245667500Y-19245000D01*
G75*
G02*
X245917500Y-18995000I250000J0D01*
G01*
X246842500Y-18995000D01*
G75*
G02*
X247092500Y-19245000I0J-250000D01*
G01*
X247092500Y-21395000D01*
G75*
G02*
X246842500Y-21645000I-250000J0D01*
G01*
X245917500Y-21645000D01*
G75*
G02*
X245667500Y-21395000I0J250000D01*
G01*
G37*
G36*
G01*
X242692500Y-21395000D02*
X242692500Y-19245000D01*
G75*
G02*
X242942500Y-18995000I250000J0D01*
G01*
X243867500Y-18995000D01*
G75*
G02*
X244117500Y-19245000I0J-250000D01*
G01*
X244117500Y-21395000D01*
G75*
G02*
X243867500Y-21645000I-250000J0D01*
G01*
X242942500Y-21645000D01*
G75*
G02*
X242692500Y-21395000I0J250000D01*
G01*
G37*
%TD*%
%TO.C,R13*%
G36*
G01*
X227887500Y-21395000D02*
X227887500Y-19245000D01*
G75*
G02*
X228137500Y-18995000I250000J0D01*
G01*
X229062500Y-18995000D01*
G75*
G02*
X229312500Y-19245000I0J-250000D01*
G01*
X229312500Y-21395000D01*
G75*
G02*
X229062500Y-21645000I-250000J0D01*
G01*
X228137500Y-21645000D01*
G75*
G02*
X227887500Y-21395000I0J250000D01*
G01*
G37*
G36*
G01*
X224912500Y-21395000D02*
X224912500Y-19245000D01*
G75*
G02*
X225162500Y-18995000I250000J0D01*
G01*
X226087500Y-18995000D01*
G75*
G02*
X226337500Y-19245000I0J-250000D01*
G01*
X226337500Y-21395000D01*
G75*
G02*
X226087500Y-21645000I-250000J0D01*
G01*
X225162500Y-21645000D01*
G75*
G02*
X224912500Y-21395000I0J250000D01*
G01*
G37*
%TD*%
%TO.C,R12*%
G36*
G01*
X209055000Y-21395000D02*
X209055000Y-19245000D01*
G75*
G02*
X209305000Y-18995000I250000J0D01*
G01*
X210230000Y-18995000D01*
G75*
G02*
X210480000Y-19245000I0J-250000D01*
G01*
X210480000Y-21395000D01*
G75*
G02*
X210230000Y-21645000I-250000J0D01*
G01*
X209305000Y-21645000D01*
G75*
G02*
X209055000Y-21395000I0J250000D01*
G01*
G37*
G36*
G01*
X206080000Y-21395000D02*
X206080000Y-19245000D01*
G75*
G02*
X206330000Y-18995000I250000J0D01*
G01*
X207255000Y-18995000D01*
G75*
G02*
X207505000Y-19245000I0J-250000D01*
G01*
X207505000Y-21395000D01*
G75*
G02*
X207255000Y-21645000I-250000J0D01*
G01*
X206330000Y-21645000D01*
G75*
G02*
X206080000Y-21395000I0J250000D01*
G01*
G37*
%TD*%
%TO.C,R11*%
G36*
G01*
X192545000Y-21395000D02*
X192545000Y-19245000D01*
G75*
G02*
X192795000Y-18995000I250000J0D01*
G01*
X193720000Y-18995000D01*
G75*
G02*
X193970000Y-19245000I0J-250000D01*
G01*
X193970000Y-21395000D01*
G75*
G02*
X193720000Y-21645000I-250000J0D01*
G01*
X192795000Y-21645000D01*
G75*
G02*
X192545000Y-21395000I0J250000D01*
G01*
G37*
G36*
G01*
X189570000Y-21395000D02*
X189570000Y-19245000D01*
G75*
G02*
X189820000Y-18995000I250000J0D01*
G01*
X190745000Y-18995000D01*
G75*
G02*
X190995000Y-19245000I0J-250000D01*
G01*
X190995000Y-21395000D01*
G75*
G02*
X190745000Y-21645000I-250000J0D01*
G01*
X189820000Y-21645000D01*
G75*
G02*
X189570000Y-21395000I0J250000D01*
G01*
G37*
%TD*%
%TO.C,R10*%
G36*
G01*
X173277500Y-21395000D02*
X173277500Y-19245000D01*
G75*
G02*
X173527500Y-18995000I250000J0D01*
G01*
X174452500Y-18995000D01*
G75*
G02*
X174702500Y-19245000I0J-250000D01*
G01*
X174702500Y-21395000D01*
G75*
G02*
X174452500Y-21645000I-250000J0D01*
G01*
X173527500Y-21645000D01*
G75*
G02*
X173277500Y-21395000I0J250000D01*
G01*
G37*
G36*
G01*
X170302500Y-21395000D02*
X170302500Y-19245000D01*
G75*
G02*
X170552500Y-18995000I250000J0D01*
G01*
X171477500Y-18995000D01*
G75*
G02*
X171727500Y-19245000I0J-250000D01*
G01*
X171727500Y-21395000D01*
G75*
G02*
X171477500Y-21645000I-250000J0D01*
G01*
X170552500Y-21645000D01*
G75*
G02*
X170302500Y-21395000I0J250000D01*
G01*
G37*
%TD*%
%TO.C,R9*%
G36*
G01*
X156767500Y-21395000D02*
X156767500Y-19245000D01*
G75*
G02*
X157017500Y-18995000I250000J0D01*
G01*
X157942500Y-18995000D01*
G75*
G02*
X158192500Y-19245000I0J-250000D01*
G01*
X158192500Y-21395000D01*
G75*
G02*
X157942500Y-21645000I-250000J0D01*
G01*
X157017500Y-21645000D01*
G75*
G02*
X156767500Y-21395000I0J250000D01*
G01*
G37*
G36*
G01*
X153792500Y-21395000D02*
X153792500Y-19245000D01*
G75*
G02*
X154042500Y-18995000I250000J0D01*
G01*
X154967500Y-18995000D01*
G75*
G02*
X155217500Y-19245000I0J-250000D01*
G01*
X155217500Y-21395000D01*
G75*
G02*
X154967500Y-21645000I-250000J0D01*
G01*
X154042500Y-21645000D01*
G75*
G02*
X153792500Y-21395000I0J250000D01*
G01*
G37*
%TD*%
%TO.C,R8*%
G36*
G01*
X115774500Y-36517000D02*
X115774500Y-38667000D01*
G75*
G02*
X115524500Y-38917000I-250000J0D01*
G01*
X114599500Y-38917000D01*
G75*
G02*
X114349500Y-38667000I0J250000D01*
G01*
X114349500Y-36517000D01*
G75*
G02*
X114599500Y-36267000I250000J0D01*
G01*
X115524500Y-36267000D01*
G75*
G02*
X115774500Y-36517000I0J-250000D01*
G01*
G37*
G36*
G01*
X118749500Y-36517000D02*
X118749500Y-38667000D01*
G75*
G02*
X118499500Y-38917000I-250000J0D01*
G01*
X117574500Y-38917000D01*
G75*
G02*
X117324500Y-38667000I0J250000D01*
G01*
X117324500Y-36517000D01*
G75*
G02*
X117574500Y-36267000I250000J0D01*
G01*
X118499500Y-36267000D01*
G75*
G02*
X118749500Y-36517000I0J-250000D01*
G01*
G37*
%TD*%
%TO.C,R7*%
G36*
G01*
X101593000Y-9181000D02*
X99443000Y-9181000D01*
G75*
G02*
X99193000Y-8931000I0J250000D01*
G01*
X99193000Y-8006000D01*
G75*
G02*
X99443000Y-7756000I250000J0D01*
G01*
X101593000Y-7756000D01*
G75*
G02*
X101843000Y-8006000I0J-250000D01*
G01*
X101843000Y-8931000D01*
G75*
G02*
X101593000Y-9181000I-250000J0D01*
G01*
G37*
G36*
G01*
X101593000Y-12156000D02*
X99443000Y-12156000D01*
G75*
G02*
X99193000Y-11906000I0J250000D01*
G01*
X99193000Y-10981000D01*
G75*
G02*
X99443000Y-10731000I250000J0D01*
G01*
X101593000Y-10731000D01*
G75*
G02*
X101843000Y-10981000I0J-250000D01*
G01*
X101843000Y-11906000D01*
G75*
G02*
X101593000Y-12156000I-250000J0D01*
G01*
G37*
%TD*%
%TO.C,R6*%
G36*
G01*
X108145000Y-23163500D02*
X110295000Y-23163500D01*
G75*
G02*
X110545000Y-23413500I0J-250000D01*
G01*
X110545000Y-24338500D01*
G75*
G02*
X110295000Y-24588500I-250000J0D01*
G01*
X108145000Y-24588500D01*
G75*
G02*
X107895000Y-24338500I0J250000D01*
G01*
X107895000Y-23413500D01*
G75*
G02*
X108145000Y-23163500I250000J0D01*
G01*
G37*
G36*
G01*
X108145000Y-20188500D02*
X110295000Y-20188500D01*
G75*
G02*
X110545000Y-20438500I0J-250000D01*
G01*
X110545000Y-21363500D01*
G75*
G02*
X110295000Y-21613500I-250000J0D01*
G01*
X108145000Y-21613500D01*
G75*
G02*
X107895000Y-21363500I0J250000D01*
G01*
X107895000Y-20438500D01*
G75*
G02*
X108145000Y-20188500I250000J0D01*
G01*
G37*
%TD*%
%TO.C,R5*%
G36*
G01*
X105215000Y-40082500D02*
X103065000Y-40082500D01*
G75*
G02*
X102815000Y-39832500I0J250000D01*
G01*
X102815000Y-38907500D01*
G75*
G02*
X103065000Y-38657500I250000J0D01*
G01*
X105215000Y-38657500D01*
G75*
G02*
X105465000Y-38907500I0J-250000D01*
G01*
X105465000Y-39832500D01*
G75*
G02*
X105215000Y-40082500I-250000J0D01*
G01*
G37*
G36*
G01*
X105215000Y-43057500D02*
X103065000Y-43057500D01*
G75*
G02*
X102815000Y-42807500I0J250000D01*
G01*
X102815000Y-41882500D01*
G75*
G02*
X103065000Y-41632500I250000J0D01*
G01*
X105215000Y-41632500D01*
G75*
G02*
X105465000Y-41882500I0J-250000D01*
G01*
X105465000Y-42807500D01*
G75*
G02*
X105215000Y-43057500I-250000J0D01*
G01*
G37*
%TD*%
%TO.C,R4*%
G36*
G01*
X119937500Y-34095000D02*
X119937500Y-31945000D01*
G75*
G02*
X120187500Y-31695000I250000J0D01*
G01*
X121112500Y-31695000D01*
G75*
G02*
X121362500Y-31945000I0J-250000D01*
G01*
X121362500Y-34095000D01*
G75*
G02*
X121112500Y-34345000I-250000J0D01*
G01*
X120187500Y-34345000D01*
G75*
G02*
X119937500Y-34095000I0J250000D01*
G01*
G37*
G36*
G01*
X116962500Y-34095000D02*
X116962500Y-31945000D01*
G75*
G02*
X117212500Y-31695000I250000J0D01*
G01*
X118137500Y-31695000D01*
G75*
G02*
X118387500Y-31945000I0J-250000D01*
G01*
X118387500Y-34095000D01*
G75*
G02*
X118137500Y-34345000I-250000J0D01*
G01*
X117212500Y-34345000D01*
G75*
G02*
X116962500Y-34095000I0J250000D01*
G01*
G37*
%TD*%
%TO.C,R3*%
G36*
G01*
X126335100Y-8891300D02*
X124185100Y-8891300D01*
G75*
G02*
X123935100Y-8641300I0J250000D01*
G01*
X123935100Y-7716300D01*
G75*
G02*
X124185100Y-7466300I250000J0D01*
G01*
X126335100Y-7466300D01*
G75*
G02*
X126585100Y-7716300I0J-250000D01*
G01*
X126585100Y-8641300D01*
G75*
G02*
X126335100Y-8891300I-250000J0D01*
G01*
G37*
G36*
G01*
X126335100Y-11866300D02*
X124185100Y-11866300D01*
G75*
G02*
X123935100Y-11616300I0J250000D01*
G01*
X123935100Y-10691300D01*
G75*
G02*
X124185100Y-10441300I250000J0D01*
G01*
X126335100Y-10441300D01*
G75*
G02*
X126585100Y-10691300I0J-250000D01*
G01*
X126585100Y-11616300D01*
G75*
G02*
X126335100Y-11866300I-250000J0D01*
G01*
G37*
%TD*%
%TO.C,R2*%
G36*
G01*
X119223100Y-8865900D02*
X117073100Y-8865900D01*
G75*
G02*
X116823100Y-8615900I0J250000D01*
G01*
X116823100Y-7690900D01*
G75*
G02*
X117073100Y-7440900I250000J0D01*
G01*
X119223100Y-7440900D01*
G75*
G02*
X119473100Y-7690900I0J-250000D01*
G01*
X119473100Y-8615900D01*
G75*
G02*
X119223100Y-8865900I-250000J0D01*
G01*
G37*
G36*
G01*
X119223100Y-11840900D02*
X117073100Y-11840900D01*
G75*
G02*
X116823100Y-11590900I0J250000D01*
G01*
X116823100Y-10665900D01*
G75*
G02*
X117073100Y-10415900I250000J0D01*
G01*
X119223100Y-10415900D01*
G75*
G02*
X119473100Y-10665900I0J-250000D01*
G01*
X119473100Y-11590900D01*
G75*
G02*
X119223100Y-11840900I-250000J0D01*
G01*
G37*
%TD*%
%TO.C,R1*%
G36*
G01*
X133155000Y-10872500D02*
X131005000Y-10872500D01*
G75*
G02*
X130755000Y-10622500I0J250000D01*
G01*
X130755000Y-9697500D01*
G75*
G02*
X131005000Y-9447500I250000J0D01*
G01*
X133155000Y-9447500D01*
G75*
G02*
X133405000Y-9697500I0J-250000D01*
G01*
X133405000Y-10622500D01*
G75*
G02*
X133155000Y-10872500I-250000J0D01*
G01*
G37*
G36*
G01*
X133155000Y-13847500D02*
X131005000Y-13847500D01*
G75*
G02*
X130755000Y-13597500I0J250000D01*
G01*
X130755000Y-12672500D01*
G75*
G02*
X131005000Y-12422500I250000J0D01*
G01*
X133155000Y-12422500D01*
G75*
G02*
X133405000Y-12672500I0J-250000D01*
G01*
X133405000Y-13597500D01*
G75*
G02*
X133155000Y-13847500I-250000J0D01*
G01*
G37*
%TD*%
%TO.C,Power_red1*%
G36*
G01*
X136814999Y-12845000D02*
X137715001Y-12845000D01*
G75*
G02*
X137965000Y-13094999I0J-249999D01*
G01*
X137965000Y-13745001D01*
G75*
G02*
X137715001Y-13995000I-249999J0D01*
G01*
X136814999Y-13995000D01*
G75*
G02*
X136565000Y-13745001I0J249999D01*
G01*
X136565000Y-13094999D01*
G75*
G02*
X136814999Y-12845000I249999J0D01*
G01*
G37*
G36*
G01*
X136814999Y-10795000D02*
X137715001Y-10795000D01*
G75*
G02*
X137965000Y-11044999I0J-249999D01*
G01*
X137965000Y-11695001D01*
G75*
G02*
X137715001Y-11945000I-249999J0D01*
G01*
X136814999Y-11945000D01*
G75*
G02*
X136565000Y-11695001I0J249999D01*
G01*
X136565000Y-11044999D01*
G75*
G02*
X136814999Y-10795000I249999J0D01*
G01*
G37*
%TD*%
D17*
%TO.C,J1*%
X122412000Y-3080500D03*
D18*
X121412000Y-5780500D03*
X120762000Y-5780500D03*
X120112000Y-5780500D03*
X122712000Y-5780500D03*
X122062000Y-5780500D03*
D17*
X120412000Y-3080500D03*
%TD*%
%TO.C,F1*%
G36*
G01*
X131435000Y-3579500D02*
X130185000Y-3579500D01*
G75*
G02*
X129935000Y-3329500I0J250000D01*
G01*
X129935000Y-2404500D01*
G75*
G02*
X130185000Y-2154500I250000J0D01*
G01*
X131435000Y-2154500D01*
G75*
G02*
X131685000Y-2404500I0J-250000D01*
G01*
X131685000Y-3329500D01*
G75*
G02*
X131435000Y-3579500I-250000J0D01*
G01*
G37*
G36*
G01*
X131435000Y-6554500D02*
X130185000Y-6554500D01*
G75*
G02*
X129935000Y-6304500I0J250000D01*
G01*
X129935000Y-5379500D01*
G75*
G02*
X130185000Y-5129500I250000J0D01*
G01*
X131435000Y-5129500D01*
G75*
G02*
X131685000Y-5379500I0J-250000D01*
G01*
X131685000Y-6304500D01*
G75*
G02*
X131435000Y-6554500I-250000J0D01*
G01*
G37*
%TD*%
%TO.C,C8*%
G36*
G01*
X139895000Y-4585000D02*
X142045000Y-4585000D01*
G75*
G02*
X142295000Y-4835000I0J-250000D01*
G01*
X142295000Y-5760000D01*
G75*
G02*
X142045000Y-6010000I-250000J0D01*
G01*
X139895000Y-6010000D01*
G75*
G02*
X139645000Y-5760000I0J250000D01*
G01*
X139645000Y-4835000D01*
G75*
G02*
X139895000Y-4585000I250000J0D01*
G01*
G37*
G36*
G01*
X139895000Y-1610000D02*
X142045000Y-1610000D01*
G75*
G02*
X142295000Y-1860000I0J-250000D01*
G01*
X142295000Y-2785000D01*
G75*
G02*
X142045000Y-3035000I-250000J0D01*
G01*
X139895000Y-3035000D01*
G75*
G02*
X139645000Y-2785000I0J250000D01*
G01*
X139645000Y-1860000D01*
G75*
G02*
X139895000Y-1610000I250000J0D01*
G01*
G37*
%TD*%
%TO.C,C7*%
G36*
G01*
X116149700Y-3947800D02*
X113999700Y-3947800D01*
G75*
G02*
X113749700Y-3697800I0J250000D01*
G01*
X113749700Y-2772800D01*
G75*
G02*
X113999700Y-2522800I250000J0D01*
G01*
X116149700Y-2522800D01*
G75*
G02*
X116399700Y-2772800I0J-250000D01*
G01*
X116399700Y-3697800D01*
G75*
G02*
X116149700Y-3947800I-250000J0D01*
G01*
G37*
G36*
G01*
X116149700Y-6922800D02*
X113999700Y-6922800D01*
G75*
G02*
X113749700Y-6672800I0J250000D01*
G01*
X113749700Y-5747800D01*
G75*
G02*
X113999700Y-5497800I250000J0D01*
G01*
X116149700Y-5497800D01*
G75*
G02*
X116399700Y-5747800I0J-250000D01*
G01*
X116399700Y-6672800D01*
G75*
G02*
X116149700Y-6922800I-250000J0D01*
G01*
G37*
%TD*%
%TO.C,C6*%
G36*
G01*
X104707000Y-26874500D02*
X102557000Y-26874500D01*
G75*
G02*
X102307000Y-26624500I0J250000D01*
G01*
X102307000Y-25699500D01*
G75*
G02*
X102557000Y-25449500I250000J0D01*
G01*
X104707000Y-25449500D01*
G75*
G02*
X104957000Y-25699500I0J-250000D01*
G01*
X104957000Y-26624500D01*
G75*
G02*
X104707000Y-26874500I-250000J0D01*
G01*
G37*
G36*
G01*
X104707000Y-29849500D02*
X102557000Y-29849500D01*
G75*
G02*
X102307000Y-29599500I0J250000D01*
G01*
X102307000Y-28674500D01*
G75*
G02*
X102557000Y-28424500I250000J0D01*
G01*
X104707000Y-28424500D01*
G75*
G02*
X104957000Y-28674500I0J-250000D01*
G01*
X104957000Y-29599500D01*
G75*
G02*
X104707000Y-29849500I-250000J0D01*
G01*
G37*
%TD*%
%TO.C,C5*%
G36*
G01*
X104961000Y-16206500D02*
X102811000Y-16206500D01*
G75*
G02*
X102561000Y-15956500I0J250000D01*
G01*
X102561000Y-15031500D01*
G75*
G02*
X102811000Y-14781500I250000J0D01*
G01*
X104961000Y-14781500D01*
G75*
G02*
X105211000Y-15031500I0J-250000D01*
G01*
X105211000Y-15956500D01*
G75*
G02*
X104961000Y-16206500I-250000J0D01*
G01*
G37*
G36*
G01*
X104961000Y-19181500D02*
X102811000Y-19181500D01*
G75*
G02*
X102561000Y-18931500I0J250000D01*
G01*
X102561000Y-18006500D01*
G75*
G02*
X102811000Y-17756500I250000J0D01*
G01*
X104961000Y-17756500D01*
G75*
G02*
X105211000Y-18006500I0J-250000D01*
G01*
X105211000Y-18931500D01*
G75*
G02*
X104961000Y-19181500I-250000J0D01*
G01*
G37*
%TD*%
%TO.C,C3*%
G36*
G01*
X129735000Y-22328500D02*
X131885000Y-22328500D01*
G75*
G02*
X132135000Y-22578500I0J-250000D01*
G01*
X132135000Y-23503500D01*
G75*
G02*
X131885000Y-23753500I-250000J0D01*
G01*
X129735000Y-23753500D01*
G75*
G02*
X129485000Y-23503500I0J250000D01*
G01*
X129485000Y-22578500D01*
G75*
G02*
X129735000Y-22328500I250000J0D01*
G01*
G37*
G36*
G01*
X129735000Y-19353500D02*
X131885000Y-19353500D01*
G75*
G02*
X132135000Y-19603500I0J-250000D01*
G01*
X132135000Y-20528500D01*
G75*
G02*
X131885000Y-20778500I-250000J0D01*
G01*
X129735000Y-20778500D01*
G75*
G02*
X129485000Y-20528500I0J250000D01*
G01*
X129485000Y-19603500D01*
G75*
G02*
X129735000Y-19353500I250000J0D01*
G01*
G37*
%TD*%
%TO.C,C2*%
G36*
G01*
X146655000Y-3435000D02*
X144505000Y-3435000D01*
G75*
G02*
X144255000Y-3185000I0J250000D01*
G01*
X144255000Y-2260000D01*
G75*
G02*
X144505000Y-2010000I250000J0D01*
G01*
X146655000Y-2010000D01*
G75*
G02*
X146905000Y-2260000I0J-250000D01*
G01*
X146905000Y-3185000D01*
G75*
G02*
X146655000Y-3435000I-250000J0D01*
G01*
G37*
G36*
G01*
X146655000Y-6410000D02*
X144505000Y-6410000D01*
G75*
G02*
X144255000Y-6160000I0J250000D01*
G01*
X144255000Y-5235000D01*
G75*
G02*
X144505000Y-4985000I250000J0D01*
G01*
X146655000Y-4985000D01*
G75*
G02*
X146905000Y-5235000I0J-250000D01*
G01*
X146905000Y-6160000D01*
G75*
G02*
X146655000Y-6410000I-250000J0D01*
G01*
G37*
%TD*%
%TO.C,C1*%
G36*
G01*
X135431500Y-4631000D02*
X135431500Y-2481000D01*
G75*
G02*
X135681500Y-2231000I250000J0D01*
G01*
X136606500Y-2231000D01*
G75*
G02*
X136856500Y-2481000I0J-250000D01*
G01*
X136856500Y-4631000D01*
G75*
G02*
X136606500Y-4881000I-250000J0D01*
G01*
X135681500Y-4881000D01*
G75*
G02*
X135431500Y-4631000I0J250000D01*
G01*
G37*
G36*
G01*
X132456500Y-4631000D02*
X132456500Y-2481000D01*
G75*
G02*
X132706500Y-2231000I250000J0D01*
G01*
X133631500Y-2231000D01*
G75*
G02*
X133881500Y-2481000I0J-250000D01*
G01*
X133881500Y-4631000D01*
G75*
G02*
X133631500Y-4881000I-250000J0D01*
G01*
X132706500Y-4881000D01*
G75*
G02*
X132456500Y-4631000I0J250000D01*
G01*
G37*
%TD*%
M02*
