%TF.GenerationSoftware,KiCad,Pcbnew,(5.1.6)-1*%
%TF.CreationDate,2021-02-12T14:30:02+03:00*%
%TF.ProjectId,CearusTab,43656172-7573-4546-9162-2e6b69636164,rev?*%
%TF.SameCoordinates,Original*%
%TF.FileFunction,Copper,L2,Bot*%
%TF.FilePolarity,Positive*%
%FSLAX46Y46*%
G04 Gerber Fmt 4.6, Leading zero omitted, Abs format (unit mm)*
G04 Created by KiCad (PCBNEW (5.1.6)-1) date 2021-02-12 14:30:02*
%MOMM*%
%LPD*%
G01*
G04 APERTURE LIST*
%ADD10C,0.100000*%
%ADD11C,0.150000*%
%ADD12C,0.300000*%
%ADD13C,0.400000*%
%TA.AperFunction,ComponentPad*%
%ADD14C,1.500000*%
%TD*%
%TA.AperFunction,ComponentPad*%
%ADD15O,1.700000X1.700000*%
%TD*%
%TA.AperFunction,ComponentPad*%
%ADD16R,1.700000X1.700000*%
%TD*%
%TA.AperFunction,ComponentPad*%
%ADD17C,2.286000*%
%TD*%
%TA.AperFunction,ComponentPad*%
%ADD18O,1.200000X1.900000*%
%TD*%
%TA.AperFunction,ComponentPad*%
%ADD19C,1.450000*%
%TD*%
%TA.AperFunction,ViaPad*%
%ADD20C,0.800000*%
%TD*%
%TA.AperFunction,Conductor*%
%ADD21C,0.250000*%
%TD*%
%TA.AperFunction,Conductor*%
%ADD22C,0.200000*%
%TD*%
%TA.AperFunction,Conductor*%
%ADD23C,0.254000*%
%TD*%
G04 APERTURE END LIST*
D10*
D11*
X177002200Y-166007200D02*
X177002200Y-198007200D01*
X285002200Y-198007200D01*
X285002200Y-166007200D01*
X177002200Y-166007200D01*
D10*
D11*
X10000000Y-10000000D02*
X10000000Y-200007200D01*
X287002200Y-200007200D01*
X287002200Y-10000000D01*
X10000000Y-10000000D01*
D10*
D11*
X12000000Y-12000000D02*
X12000000Y-198007200D01*
X285002200Y-198007200D01*
X285002200Y-12000000D01*
X12000000Y-12000000D01*
D10*
D11*
X60000000Y-12000000D02*
X60000000Y-10000000D01*
D10*
D11*
X110000000Y-12000000D02*
X110000000Y-10000000D01*
D10*
D11*
X160000000Y-12000000D02*
X160000000Y-10000000D01*
D10*
D11*
X210000000Y-12000000D02*
X210000000Y-10000000D01*
D10*
D11*
X260000000Y-12000000D02*
X260000000Y-10000000D01*
D10*
D11*
X36065476Y-11588095D02*
X35322619Y-11588095D01*
X35694047Y-11588095D02*
X35694047Y-10288095D01*
X35570238Y-10473809D01*
X35446428Y-10597619D01*
X35322619Y-10659523D01*
D10*
D11*
X85322619Y-10411904D02*
X85384523Y-10350000D01*
X85508333Y-10288095D01*
X85817857Y-10288095D01*
X85941666Y-10350000D01*
X86003571Y-10411904D01*
X86065476Y-10535714D01*
X86065476Y-10659523D01*
X86003571Y-10845238D01*
X85260714Y-11588095D01*
X86065476Y-11588095D01*
D10*
D11*
X135260714Y-10288095D02*
X136065476Y-10288095D01*
X135632142Y-10783333D01*
X135817857Y-10783333D01*
X135941666Y-10845238D01*
X136003571Y-10907142D01*
X136065476Y-11030952D01*
X136065476Y-11340476D01*
X136003571Y-11464285D01*
X135941666Y-11526190D01*
X135817857Y-11588095D01*
X135446428Y-11588095D01*
X135322619Y-11526190D01*
X135260714Y-11464285D01*
D10*
D11*
X185941666Y-10721428D02*
X185941666Y-11588095D01*
X185632142Y-10226190D02*
X185322619Y-11154761D01*
X186127380Y-11154761D01*
D10*
D11*
X236003571Y-10288095D02*
X235384523Y-10288095D01*
X235322619Y-10907142D01*
X235384523Y-10845238D01*
X235508333Y-10783333D01*
X235817857Y-10783333D01*
X235941666Y-10845238D01*
X236003571Y-10907142D01*
X236065476Y-11030952D01*
X236065476Y-11340476D01*
X236003571Y-11464285D01*
X235941666Y-11526190D01*
X235817857Y-11588095D01*
X235508333Y-11588095D01*
X235384523Y-11526190D01*
X235322619Y-11464285D01*
D10*
D11*
X285941666Y-10288095D02*
X285694047Y-10288095D01*
X285570238Y-10350000D01*
X285508333Y-10411904D01*
X285384523Y-10597619D01*
X285322619Y-10845238D01*
X285322619Y-11340476D01*
X285384523Y-11464285D01*
X285446428Y-11526190D01*
X285570238Y-11588095D01*
X285817857Y-11588095D01*
X285941666Y-11526190D01*
X286003571Y-11464285D01*
X286065476Y-11340476D01*
X286065476Y-11030952D01*
X286003571Y-10907142D01*
X285941666Y-10845238D01*
X285817857Y-10783333D01*
X285570238Y-10783333D01*
X285446428Y-10845238D01*
X285384523Y-10907142D01*
X285322619Y-11030952D01*
D10*
D11*
X60000000Y-198007200D02*
X60000000Y-200007200D01*
D10*
D11*
X110000000Y-198007200D02*
X110000000Y-200007200D01*
D10*
D11*
X160000000Y-198007200D02*
X160000000Y-200007200D01*
D10*
D11*
X210000000Y-198007200D02*
X210000000Y-200007200D01*
D10*
D11*
X260000000Y-198007200D02*
X260000000Y-200007200D01*
D10*
D11*
X36065476Y-199595295D02*
X35322619Y-199595295D01*
X35694047Y-199595295D02*
X35694047Y-198295295D01*
X35570238Y-198481009D01*
X35446428Y-198604819D01*
X35322619Y-198666723D01*
D10*
D11*
X85322619Y-198419104D02*
X85384523Y-198357200D01*
X85508333Y-198295295D01*
X85817857Y-198295295D01*
X85941666Y-198357200D01*
X86003571Y-198419104D01*
X86065476Y-198542914D01*
X86065476Y-198666723D01*
X86003571Y-198852438D01*
X85260714Y-199595295D01*
X86065476Y-199595295D01*
D10*
D11*
X135260714Y-198295295D02*
X136065476Y-198295295D01*
X135632142Y-198790533D01*
X135817857Y-198790533D01*
X135941666Y-198852438D01*
X136003571Y-198914342D01*
X136065476Y-199038152D01*
X136065476Y-199347676D01*
X136003571Y-199471485D01*
X135941666Y-199533390D01*
X135817857Y-199595295D01*
X135446428Y-199595295D01*
X135322619Y-199533390D01*
X135260714Y-199471485D01*
D10*
D11*
X185941666Y-198728628D02*
X185941666Y-199595295D01*
X185632142Y-198233390D02*
X185322619Y-199161961D01*
X186127380Y-199161961D01*
D10*
D11*
X236003571Y-198295295D02*
X235384523Y-198295295D01*
X235322619Y-198914342D01*
X235384523Y-198852438D01*
X235508333Y-198790533D01*
X235817857Y-198790533D01*
X235941666Y-198852438D01*
X236003571Y-198914342D01*
X236065476Y-199038152D01*
X236065476Y-199347676D01*
X236003571Y-199471485D01*
X235941666Y-199533390D01*
X235817857Y-199595295D01*
X235508333Y-199595295D01*
X235384523Y-199533390D01*
X235322619Y-199471485D01*
D10*
D11*
X285941666Y-198295295D02*
X285694047Y-198295295D01*
X285570238Y-198357200D01*
X285508333Y-198419104D01*
X285384523Y-198604819D01*
X285322619Y-198852438D01*
X285322619Y-199347676D01*
X285384523Y-199471485D01*
X285446428Y-199533390D01*
X285570238Y-199595295D01*
X285817857Y-199595295D01*
X285941666Y-199533390D01*
X286003571Y-199471485D01*
X286065476Y-199347676D01*
X286065476Y-199038152D01*
X286003571Y-198914342D01*
X285941666Y-198852438D01*
X285817857Y-198790533D01*
X285570238Y-198790533D01*
X285446428Y-198852438D01*
X285384523Y-198914342D01*
X285322619Y-199038152D01*
D10*
D11*
X10000000Y-60000000D02*
X12000000Y-60000000D01*
D10*
D11*
X10000000Y-110000000D02*
X12000000Y-110000000D01*
D10*
D11*
X10000000Y-160000000D02*
X12000000Y-160000000D01*
D10*
D11*
X10690476Y-35216666D02*
X11309523Y-35216666D01*
X10566666Y-35588095D02*
X11000000Y-34288095D01*
X11433333Y-35588095D01*
D10*
D11*
X11092857Y-84907142D02*
X11278571Y-84969047D01*
X11340476Y-85030952D01*
X11402380Y-85154761D01*
X11402380Y-85340476D01*
X11340476Y-85464285D01*
X11278571Y-85526190D01*
X11154761Y-85588095D01*
X10659523Y-85588095D01*
X10659523Y-84288095D01*
X11092857Y-84288095D01*
X11216666Y-84350000D01*
X11278571Y-84411904D01*
X11340476Y-84535714D01*
X11340476Y-84659523D01*
X11278571Y-84783333D01*
X11216666Y-84845238D01*
X11092857Y-84907142D01*
X10659523Y-84907142D01*
D10*
D11*
X11402380Y-135464285D02*
X11340476Y-135526190D01*
X11154761Y-135588095D01*
X11030952Y-135588095D01*
X10845238Y-135526190D01*
X10721428Y-135402380D01*
X10659523Y-135278571D01*
X10597619Y-135030952D01*
X10597619Y-134845238D01*
X10659523Y-134597619D01*
X10721428Y-134473809D01*
X10845238Y-134350000D01*
X11030952Y-134288095D01*
X11154761Y-134288095D01*
X11340476Y-134350000D01*
X11402380Y-134411904D01*
D10*
D11*
X10659523Y-185588095D02*
X10659523Y-184288095D01*
X10969047Y-184288095D01*
X11154761Y-184350000D01*
X11278571Y-184473809D01*
X11340476Y-184597619D01*
X11402380Y-184845238D01*
X11402380Y-185030952D01*
X11340476Y-185278571D01*
X11278571Y-185402380D01*
X11154761Y-185526190D01*
X10969047Y-185588095D01*
X10659523Y-185588095D01*
D10*
D11*
X287002200Y-60000000D02*
X285002200Y-60000000D01*
D10*
D11*
X287002200Y-110000000D02*
X285002200Y-110000000D01*
D10*
D11*
X287002200Y-160000000D02*
X285002200Y-160000000D01*
D10*
D11*
X285692676Y-35216666D02*
X286311723Y-35216666D01*
X285568866Y-35588095D02*
X286002200Y-34288095D01*
X286435533Y-35588095D01*
D10*
D11*
X286095057Y-84907142D02*
X286280771Y-84969047D01*
X286342676Y-85030952D01*
X286404580Y-85154761D01*
X286404580Y-85340476D01*
X286342676Y-85464285D01*
X286280771Y-85526190D01*
X286156961Y-85588095D01*
X285661723Y-85588095D01*
X285661723Y-84288095D01*
X286095057Y-84288095D01*
X286218866Y-84350000D01*
X286280771Y-84411904D01*
X286342676Y-84535714D01*
X286342676Y-84659523D01*
X286280771Y-84783333D01*
X286218866Y-84845238D01*
X286095057Y-84907142D01*
X285661723Y-84907142D01*
D10*
D11*
X286404580Y-135464285D02*
X286342676Y-135526190D01*
X286156961Y-135588095D01*
X286033152Y-135588095D01*
X285847438Y-135526190D01*
X285723628Y-135402380D01*
X285661723Y-135278571D01*
X285599819Y-135030952D01*
X285599819Y-134845238D01*
X285661723Y-134597619D01*
X285723628Y-134473809D01*
X285847438Y-134350000D01*
X286033152Y-134288095D01*
X286156961Y-134288095D01*
X286342676Y-134350000D01*
X286404580Y-134411904D01*
D10*
D11*
X285661723Y-185588095D02*
X285661723Y-184288095D01*
X285971247Y-184288095D01*
X286156961Y-184350000D01*
X286280771Y-184473809D01*
X286342676Y-184597619D01*
X286404580Y-184845238D01*
X286404580Y-185030952D01*
X286342676Y-185278571D01*
X286280771Y-185402380D01*
X286156961Y-185526190D01*
X285971247Y-185588095D01*
X285661723Y-185588095D01*
D10*
D11*
X200434342Y-193785771D02*
X200434342Y-192285771D01*
X200791485Y-192285771D01*
X201005771Y-192357200D01*
X201148628Y-192500057D01*
X201220057Y-192642914D01*
X201291485Y-192928628D01*
X201291485Y-193142914D01*
X201220057Y-193428628D01*
X201148628Y-193571485D01*
X201005771Y-193714342D01*
X200791485Y-193785771D01*
X200434342Y-193785771D01*
X202577200Y-193785771D02*
X202577200Y-193000057D01*
X202505771Y-192857200D01*
X202362914Y-192785771D01*
X202077200Y-192785771D01*
X201934342Y-192857200D01*
X202577200Y-193714342D02*
X202434342Y-193785771D01*
X202077200Y-193785771D01*
X201934342Y-193714342D01*
X201862914Y-193571485D01*
X201862914Y-193428628D01*
X201934342Y-193285771D01*
X202077200Y-193214342D01*
X202434342Y-193214342D01*
X202577200Y-193142914D01*
X203077200Y-192785771D02*
X203648628Y-192785771D01*
X203291485Y-192285771D02*
X203291485Y-193571485D01*
X203362914Y-193714342D01*
X203505771Y-193785771D01*
X203648628Y-193785771D01*
X204720057Y-193714342D02*
X204577200Y-193785771D01*
X204291485Y-193785771D01*
X204148628Y-193714342D01*
X204077200Y-193571485D01*
X204077200Y-193000057D01*
X204148628Y-192857200D01*
X204291485Y-192785771D01*
X204577200Y-192785771D01*
X204720057Y-192857200D01*
X204791485Y-193000057D01*
X204791485Y-193142914D01*
X204077200Y-193285771D01*
X205434342Y-193642914D02*
X205505771Y-193714342D01*
X205434342Y-193785771D01*
X205362914Y-193714342D01*
X205434342Y-193642914D01*
X205434342Y-193785771D01*
X205434342Y-192857200D02*
X205505771Y-192928628D01*
X205434342Y-193000057D01*
X205362914Y-192928628D01*
X205434342Y-192857200D01*
X205434342Y-193000057D01*
D10*
D11*
X177002200Y-194507200D02*
X285002200Y-194507200D01*
D10*
D11*
X178434342Y-196585771D02*
X178434342Y-195085771D01*
X179291485Y-196585771D02*
X178648628Y-195728628D01*
X179291485Y-195085771D02*
X178434342Y-195942914D01*
X179934342Y-196585771D02*
X179934342Y-195585771D01*
X179934342Y-195085771D02*
X179862914Y-195157200D01*
X179934342Y-195228628D01*
X180005771Y-195157200D01*
X179934342Y-195085771D01*
X179934342Y-195228628D01*
X181505771Y-196442914D02*
X181434342Y-196514342D01*
X181220057Y-196585771D01*
X181077200Y-196585771D01*
X180862914Y-196514342D01*
X180720057Y-196371485D01*
X180648628Y-196228628D01*
X180577200Y-195942914D01*
X180577200Y-195728628D01*
X180648628Y-195442914D01*
X180720057Y-195300057D01*
X180862914Y-195157200D01*
X181077200Y-195085771D01*
X181220057Y-195085771D01*
X181434342Y-195157200D01*
X181505771Y-195228628D01*
X182791485Y-196585771D02*
X182791485Y-195800057D01*
X182720057Y-195657200D01*
X182577200Y-195585771D01*
X182291485Y-195585771D01*
X182148628Y-195657200D01*
X182791485Y-196514342D02*
X182648628Y-196585771D01*
X182291485Y-196585771D01*
X182148628Y-196514342D01*
X182077200Y-196371485D01*
X182077200Y-196228628D01*
X182148628Y-196085771D01*
X182291485Y-196014342D01*
X182648628Y-196014342D01*
X182791485Y-195942914D01*
X184148628Y-196585771D02*
X184148628Y-195085771D01*
X184148628Y-196514342D02*
X184005771Y-196585771D01*
X183720057Y-196585771D01*
X183577200Y-196514342D01*
X183505771Y-196442914D01*
X183434342Y-196300057D01*
X183434342Y-195871485D01*
X183505771Y-195728628D01*
X183577200Y-195657200D01*
X183720057Y-195585771D01*
X184005771Y-195585771D01*
X184148628Y-195657200D01*
X186005771Y-195800057D02*
X186505771Y-195800057D01*
X186720057Y-196585771D02*
X186005771Y-196585771D01*
X186005771Y-195085771D01*
X186720057Y-195085771D01*
X187362914Y-196442914D02*
X187434342Y-196514342D01*
X187362914Y-196585771D01*
X187291485Y-196514342D01*
X187362914Y-196442914D01*
X187362914Y-196585771D01*
X188077200Y-196585771D02*
X188077200Y-195085771D01*
X188434342Y-195085771D01*
X188648628Y-195157200D01*
X188791485Y-195300057D01*
X188862914Y-195442914D01*
X188934342Y-195728628D01*
X188934342Y-195942914D01*
X188862914Y-196228628D01*
X188791485Y-196371485D01*
X188648628Y-196514342D01*
X188434342Y-196585771D01*
X188077200Y-196585771D01*
X189577200Y-196442914D02*
X189648628Y-196514342D01*
X189577200Y-196585771D01*
X189505771Y-196514342D01*
X189577200Y-196442914D01*
X189577200Y-196585771D01*
X190220057Y-196157200D02*
X190934342Y-196157200D01*
X190077200Y-196585771D02*
X190577200Y-195085771D01*
X191077200Y-196585771D01*
X191577200Y-196442914D02*
X191648628Y-196514342D01*
X191577200Y-196585771D01*
X191505771Y-196514342D01*
X191577200Y-196442914D01*
X191577200Y-196585771D01*
X194577200Y-195585771D02*
X194577200Y-197085771D01*
X194577200Y-195657200D02*
X194720057Y-195585771D01*
X195005771Y-195585771D01*
X195148628Y-195657200D01*
X195220057Y-195728628D01*
X195291485Y-195871485D01*
X195291485Y-196300057D01*
X195220057Y-196442914D01*
X195148628Y-196514342D01*
X195005771Y-196585771D01*
X194720057Y-196585771D01*
X194577200Y-196514342D01*
X196577200Y-196514342D02*
X196434342Y-196585771D01*
X196148628Y-196585771D01*
X196005771Y-196514342D01*
X195934342Y-196442914D01*
X195862914Y-196300057D01*
X195862914Y-195871485D01*
X195934342Y-195728628D01*
X196005771Y-195657200D01*
X196148628Y-195585771D01*
X196434342Y-195585771D01*
X196577200Y-195657200D01*
X197220057Y-196585771D02*
X197220057Y-195085771D01*
X197220057Y-195657200D02*
X197362914Y-195585771D01*
X197648628Y-195585771D01*
X197791485Y-195657200D01*
X197862914Y-195728628D01*
X197934342Y-195871485D01*
X197934342Y-196300057D01*
X197862914Y-196442914D01*
X197791485Y-196514342D01*
X197648628Y-196585771D01*
X197362914Y-196585771D01*
X197220057Y-196514342D01*
X198577200Y-195585771D02*
X198577200Y-196585771D01*
X198577200Y-195728628D02*
X198648628Y-195657200D01*
X198791485Y-195585771D01*
X199005771Y-195585771D01*
X199148628Y-195657200D01*
X199220057Y-195800057D01*
X199220057Y-196585771D01*
X200505771Y-196514342D02*
X200362914Y-196585771D01*
X200077200Y-196585771D01*
X199934342Y-196514342D01*
X199862914Y-196371485D01*
X199862914Y-195800057D01*
X199934342Y-195657200D01*
X200077200Y-195585771D01*
X200362914Y-195585771D01*
X200505771Y-195657200D01*
X200577200Y-195800057D01*
X200577200Y-195942914D01*
X199862914Y-196085771D01*
X201077200Y-195585771D02*
X201362914Y-196585771D01*
X201648628Y-195871485D01*
X201934342Y-196585771D01*
X202220057Y-195585771D01*
X204362914Y-197157200D02*
X204291485Y-197085771D01*
X204148628Y-196871485D01*
X204077200Y-196728628D01*
X204005771Y-196514342D01*
X203934342Y-196157200D01*
X203934342Y-195871485D01*
X204005771Y-195514342D01*
X204077200Y-195300057D01*
X204148628Y-195157200D01*
X204291485Y-194942914D01*
X204362914Y-194871485D01*
X205648628Y-195085771D02*
X204934342Y-195085771D01*
X204862914Y-195800057D01*
X204934342Y-195728628D01*
X205077200Y-195657200D01*
X205434342Y-195657200D01*
X205577200Y-195728628D01*
X205648628Y-195800057D01*
X205720057Y-195942914D01*
X205720057Y-196300057D01*
X205648628Y-196442914D01*
X205577200Y-196514342D01*
X205434342Y-196585771D01*
X205077200Y-196585771D01*
X204934342Y-196514342D01*
X204862914Y-196442914D01*
X206362914Y-196442914D02*
X206434342Y-196514342D01*
X206362914Y-196585771D01*
X206291485Y-196514342D01*
X206362914Y-196442914D01*
X206362914Y-196585771D01*
X207862914Y-196585771D02*
X207005771Y-196585771D01*
X207434342Y-196585771D02*
X207434342Y-195085771D01*
X207291485Y-195300057D01*
X207148628Y-195442914D01*
X207005771Y-195514342D01*
X208505771Y-196442914D02*
X208577200Y-196514342D01*
X208505771Y-196585771D01*
X208434342Y-196514342D01*
X208505771Y-196442914D01*
X208505771Y-196585771D01*
X209862914Y-195085771D02*
X209577200Y-195085771D01*
X209434342Y-195157200D01*
X209362914Y-195228628D01*
X209220057Y-195442914D01*
X209148628Y-195728628D01*
X209148628Y-196300057D01*
X209220057Y-196442914D01*
X209291485Y-196514342D01*
X209434342Y-196585771D01*
X209720057Y-196585771D01*
X209862914Y-196514342D01*
X209934342Y-196442914D01*
X210005771Y-196300057D01*
X210005771Y-195942914D01*
X209934342Y-195800057D01*
X209862914Y-195728628D01*
X209720057Y-195657200D01*
X209434342Y-195657200D01*
X209291485Y-195728628D01*
X209220057Y-195800057D01*
X209148628Y-195942914D01*
X210505771Y-197157200D02*
X210577200Y-197085771D01*
X210720057Y-196871485D01*
X210791485Y-196728628D01*
X210862914Y-196514342D01*
X210934342Y-196157200D01*
X210934342Y-195871485D01*
X210862914Y-195514342D01*
X210791485Y-195300057D01*
X210720057Y-195157200D01*
X210577200Y-194942914D01*
X210505771Y-194871485D01*
X211648628Y-196014342D02*
X212791485Y-196014342D01*
X214291485Y-196585771D02*
X213434342Y-196585771D01*
X213862914Y-196585771D02*
X213862914Y-195085771D01*
X213720057Y-195300057D01*
X213577200Y-195442914D01*
X213434342Y-195514342D01*
D10*
D11*
X177002200Y-191507200D02*
X285002200Y-191507200D01*
D10*
D12*
X264411485Y-193785771D02*
X263911485Y-193071485D01*
X263554342Y-193785771D02*
X263554342Y-192285771D01*
X264125771Y-192285771D01*
X264268628Y-192357200D01*
X264340057Y-192428628D01*
X264411485Y-192571485D01*
X264411485Y-192785771D01*
X264340057Y-192928628D01*
X264268628Y-193000057D01*
X264125771Y-193071485D01*
X263554342Y-193071485D01*
X265625771Y-193714342D02*
X265482914Y-193785771D01*
X265197200Y-193785771D01*
X265054342Y-193714342D01*
X264982914Y-193571485D01*
X264982914Y-193000057D01*
X265054342Y-192857200D01*
X265197200Y-192785771D01*
X265482914Y-192785771D01*
X265625771Y-192857200D01*
X265697200Y-193000057D01*
X265697200Y-193142914D01*
X264982914Y-193285771D01*
X266197200Y-192785771D02*
X266554342Y-193785771D01*
X266911485Y-192785771D01*
X267482914Y-193642914D02*
X267554342Y-193714342D01*
X267482914Y-193785771D01*
X267411485Y-193714342D01*
X267482914Y-193642914D01*
X267482914Y-193785771D01*
X267482914Y-192857200D02*
X267554342Y-192928628D01*
X267482914Y-193000057D01*
X267411485Y-192928628D01*
X267482914Y-192857200D01*
X267482914Y-193000057D01*
D10*
D11*
X178362914Y-193714342D02*
X178577200Y-193785771D01*
X178934342Y-193785771D01*
X179077200Y-193714342D01*
X179148628Y-193642914D01*
X179220057Y-193500057D01*
X179220057Y-193357200D01*
X179148628Y-193214342D01*
X179077200Y-193142914D01*
X178934342Y-193071485D01*
X178648628Y-193000057D01*
X178505771Y-192928628D01*
X178434342Y-192857200D01*
X178362914Y-192714342D01*
X178362914Y-192571485D01*
X178434342Y-192428628D01*
X178505771Y-192357200D01*
X178648628Y-192285771D01*
X179005771Y-192285771D01*
X179220057Y-192357200D01*
X179862914Y-193785771D02*
X179862914Y-192785771D01*
X179862914Y-192285771D02*
X179791485Y-192357200D01*
X179862914Y-192428628D01*
X179934342Y-192357200D01*
X179862914Y-192285771D01*
X179862914Y-192428628D01*
X180434342Y-192785771D02*
X181220057Y-192785771D01*
X180434342Y-193785771D01*
X181220057Y-193785771D01*
X182362914Y-193714342D02*
X182220057Y-193785771D01*
X181934342Y-193785771D01*
X181791485Y-193714342D01*
X181720057Y-193571485D01*
X181720057Y-193000057D01*
X181791485Y-192857200D01*
X181934342Y-192785771D01*
X182220057Y-192785771D01*
X182362914Y-192857200D01*
X182434342Y-193000057D01*
X182434342Y-193142914D01*
X181720057Y-193285771D01*
X183077200Y-193642914D02*
X183148628Y-193714342D01*
X183077200Y-193785771D01*
X183005771Y-193714342D01*
X183077200Y-193642914D01*
X183077200Y-193785771D01*
X183077200Y-192857200D02*
X183148628Y-192928628D01*
X183077200Y-193000057D01*
X183005771Y-192928628D01*
X183077200Y-192857200D01*
X183077200Y-193000057D01*
X184862914Y-193357200D02*
X185577200Y-193357200D01*
X184720057Y-193785771D02*
X185220057Y-192285771D01*
X185720057Y-193785771D01*
X186862914Y-192785771D02*
X186862914Y-193785771D01*
X186505771Y-192214342D02*
X186148628Y-193285771D01*
X187077200Y-193285771D01*
D10*
D11*
X263434342Y-196585771D02*
X263434342Y-195085771D01*
X264791485Y-196585771D02*
X264791485Y-195085771D01*
X264791485Y-196514342D02*
X264648628Y-196585771D01*
X264362914Y-196585771D01*
X264220057Y-196514342D01*
X264148628Y-196442914D01*
X264077200Y-196300057D01*
X264077200Y-195871485D01*
X264148628Y-195728628D01*
X264220057Y-195657200D01*
X264362914Y-195585771D01*
X264648628Y-195585771D01*
X264791485Y-195657200D01*
X265505771Y-196442914D02*
X265577200Y-196514342D01*
X265505771Y-196585771D01*
X265434342Y-196514342D01*
X265505771Y-196442914D01*
X265505771Y-196585771D01*
X265505771Y-195657200D02*
X265577200Y-195728628D01*
X265505771Y-195800057D01*
X265434342Y-195728628D01*
X265505771Y-195657200D01*
X265505771Y-195800057D01*
X268148628Y-196585771D02*
X267291485Y-196585771D01*
X267720057Y-196585771D02*
X267720057Y-195085771D01*
X267577200Y-195300057D01*
X267434342Y-195442914D01*
X267291485Y-195514342D01*
X269862914Y-195014342D02*
X268577200Y-196942914D01*
X271148628Y-196585771D02*
X270291485Y-196585771D01*
X270720057Y-196585771D02*
X270720057Y-195085771D01*
X270577200Y-195300057D01*
X270434342Y-195442914D01*
X270291485Y-195514342D01*
D10*
D11*
X177002200Y-187507200D02*
X285002200Y-187507200D01*
D10*
D13*
X178714580Y-188211961D02*
X179857438Y-188211961D01*
X179036009Y-190211961D02*
X179286009Y-188211961D01*
X180274104Y-190211961D02*
X180440771Y-188878628D01*
X180524104Y-188211961D02*
X180416961Y-188307200D01*
X180500295Y-188402438D01*
X180607438Y-188307200D01*
X180524104Y-188211961D01*
X180500295Y-188402438D01*
X181107438Y-188878628D02*
X181869342Y-188878628D01*
X181476485Y-188211961D02*
X181262200Y-189926247D01*
X181333628Y-190116723D01*
X181512200Y-190211961D01*
X181702676Y-190211961D01*
X182655057Y-190211961D02*
X182476485Y-190116723D01*
X182405057Y-189926247D01*
X182619342Y-188211961D01*
X184190771Y-190116723D02*
X183988390Y-190211961D01*
X183607438Y-190211961D01*
X183428866Y-190116723D01*
X183357438Y-189926247D01*
X183452676Y-189164342D01*
X183571723Y-188973866D01*
X183774104Y-188878628D01*
X184155057Y-188878628D01*
X184333628Y-188973866D01*
X184405057Y-189164342D01*
X184381247Y-189354819D01*
X183405057Y-189545295D01*
X185155057Y-190021485D02*
X185238390Y-190116723D01*
X185131247Y-190211961D01*
X185047914Y-190116723D01*
X185155057Y-190021485D01*
X185131247Y-190211961D01*
X185286009Y-188973866D02*
X185369342Y-189069104D01*
X185262200Y-189164342D01*
X185178866Y-189069104D01*
X185286009Y-188973866D01*
X185262200Y-189164342D01*
D10*
D11*
X178934342Y-185600057D02*
X178434342Y-185600057D01*
X178434342Y-186385771D02*
X178434342Y-184885771D01*
X179148628Y-184885771D01*
X179720057Y-186385771D02*
X179720057Y-185385771D01*
X179720057Y-184885771D02*
X179648628Y-184957200D01*
X179720057Y-185028628D01*
X179791485Y-184957200D01*
X179720057Y-184885771D01*
X179720057Y-185028628D01*
X180648628Y-186385771D02*
X180505771Y-186314342D01*
X180434342Y-186171485D01*
X180434342Y-184885771D01*
X181791485Y-186314342D02*
X181648628Y-186385771D01*
X181362914Y-186385771D01*
X181220057Y-186314342D01*
X181148628Y-186171485D01*
X181148628Y-185600057D01*
X181220057Y-185457200D01*
X181362914Y-185385771D01*
X181648628Y-185385771D01*
X181791485Y-185457200D01*
X181862914Y-185600057D01*
X181862914Y-185742914D01*
X181148628Y-185885771D01*
X182505771Y-186242914D02*
X182577200Y-186314342D01*
X182505771Y-186385771D01*
X182434342Y-186314342D01*
X182505771Y-186242914D01*
X182505771Y-186385771D01*
X182505771Y-185457200D02*
X182577200Y-185528628D01*
X182505771Y-185600057D01*
X182434342Y-185528628D01*
X182505771Y-185457200D01*
X182505771Y-185600057D01*
X185220057Y-186242914D02*
X185148628Y-186314342D01*
X184934342Y-186385771D01*
X184791485Y-186385771D01*
X184577200Y-186314342D01*
X184434342Y-186171485D01*
X184362914Y-186028628D01*
X184291485Y-185742914D01*
X184291485Y-185528628D01*
X184362914Y-185242914D01*
X184434342Y-185100057D01*
X184577200Y-184957200D01*
X184791485Y-184885771D01*
X184934342Y-184885771D01*
X185148628Y-184957200D01*
X185220057Y-185028628D01*
X186434342Y-186314342D02*
X186291485Y-186385771D01*
X186005771Y-186385771D01*
X185862914Y-186314342D01*
X185791485Y-186171485D01*
X185791485Y-185600057D01*
X185862914Y-185457200D01*
X186005771Y-185385771D01*
X186291485Y-185385771D01*
X186434342Y-185457200D01*
X186505771Y-185600057D01*
X186505771Y-185742914D01*
X185791485Y-185885771D01*
X187791485Y-186385771D02*
X187791485Y-185600057D01*
X187720057Y-185457200D01*
X187577200Y-185385771D01*
X187291485Y-185385771D01*
X187148628Y-185457200D01*
X187791485Y-186314342D02*
X187648628Y-186385771D01*
X187291485Y-186385771D01*
X187148628Y-186314342D01*
X187077200Y-186171485D01*
X187077200Y-186028628D01*
X187148628Y-185885771D01*
X187291485Y-185814342D01*
X187648628Y-185814342D01*
X187791485Y-185742914D01*
X188505771Y-186385771D02*
X188505771Y-185385771D01*
X188505771Y-185671485D02*
X188577200Y-185528628D01*
X188648628Y-185457200D01*
X188791485Y-185385771D01*
X188934342Y-185385771D01*
X190077200Y-185385771D02*
X190077200Y-186385771D01*
X189434342Y-185385771D02*
X189434342Y-186171485D01*
X189505771Y-186314342D01*
X189648628Y-186385771D01*
X189862914Y-186385771D01*
X190005771Y-186314342D01*
X190077200Y-186242914D01*
X190720057Y-186314342D02*
X190862914Y-186385771D01*
X191148628Y-186385771D01*
X191291485Y-186314342D01*
X191362914Y-186171485D01*
X191362914Y-186100057D01*
X191291485Y-185957200D01*
X191148628Y-185885771D01*
X190934342Y-185885771D01*
X190791485Y-185814342D01*
X190720057Y-185671485D01*
X190720057Y-185600057D01*
X190791485Y-185457200D01*
X190934342Y-185385771D01*
X191148628Y-185385771D01*
X191291485Y-185457200D01*
X191791485Y-184885771D02*
X192648628Y-184885771D01*
X192220057Y-186385771D02*
X192220057Y-184885771D01*
X193791485Y-186385771D02*
X193791485Y-185600057D01*
X193720057Y-185457200D01*
X193577200Y-185385771D01*
X193291485Y-185385771D01*
X193148628Y-185457200D01*
X193791485Y-186314342D02*
X193648628Y-186385771D01*
X193291485Y-186385771D01*
X193148628Y-186314342D01*
X193077200Y-186171485D01*
X193077200Y-186028628D01*
X193148628Y-185885771D01*
X193291485Y-185814342D01*
X193648628Y-185814342D01*
X193791485Y-185742914D01*
X194505771Y-186385771D02*
X194505771Y-184885771D01*
X194505771Y-185457200D02*
X194648628Y-185385771D01*
X194934342Y-185385771D01*
X195077200Y-185457200D01*
X195148628Y-185528628D01*
X195220057Y-185671485D01*
X195220057Y-186100057D01*
X195148628Y-186242914D01*
X195077200Y-186314342D01*
X194934342Y-186385771D01*
X194648628Y-186385771D01*
X194505771Y-186314342D01*
X195862914Y-186242914D02*
X195934342Y-186314342D01*
X195862914Y-186385771D01*
X195791485Y-186314342D01*
X195862914Y-186242914D01*
X195862914Y-186385771D01*
X196577200Y-186385771D02*
X196577200Y-184885771D01*
X196720057Y-185814342D02*
X197148628Y-186385771D01*
X197148628Y-185385771D02*
X196577200Y-185957200D01*
X197791485Y-186385771D02*
X197791485Y-185385771D01*
X197791485Y-184885771D02*
X197720057Y-184957200D01*
X197791485Y-185028628D01*
X197862914Y-184957200D01*
X197791485Y-184885771D01*
X197791485Y-185028628D01*
X199148628Y-186314342D02*
X199005771Y-186385771D01*
X198720057Y-186385771D01*
X198577200Y-186314342D01*
X198505771Y-186242914D01*
X198434342Y-186100057D01*
X198434342Y-185671485D01*
X198505771Y-185528628D01*
X198577200Y-185457200D01*
X198720057Y-185385771D01*
X199005771Y-185385771D01*
X199148628Y-185457200D01*
X200434342Y-186385771D02*
X200434342Y-185600057D01*
X200362914Y-185457200D01*
X200220057Y-185385771D01*
X199934342Y-185385771D01*
X199791485Y-185457200D01*
X200434342Y-186314342D02*
X200291485Y-186385771D01*
X199934342Y-186385771D01*
X199791485Y-186314342D01*
X199720057Y-186171485D01*
X199720057Y-186028628D01*
X199791485Y-185885771D01*
X199934342Y-185814342D01*
X200291485Y-185814342D01*
X200434342Y-185742914D01*
X201791485Y-186385771D02*
X201791485Y-184885771D01*
X201791485Y-186314342D02*
X201648628Y-186385771D01*
X201362914Y-186385771D01*
X201220057Y-186314342D01*
X201148628Y-186242914D01*
X201077200Y-186100057D01*
X201077200Y-185671485D01*
X201148628Y-185528628D01*
X201220057Y-185457200D01*
X201362914Y-185385771D01*
X201648628Y-185385771D01*
X201791485Y-185457200D01*
X202148628Y-186528628D02*
X203291485Y-186528628D01*
X203648628Y-185385771D02*
X203648628Y-186885771D01*
X203648628Y-185457200D02*
X203791485Y-185385771D01*
X204077200Y-185385771D01*
X204220057Y-185457200D01*
X204291485Y-185528628D01*
X204362914Y-185671485D01*
X204362914Y-186100057D01*
X204291485Y-186242914D01*
X204220057Y-186314342D01*
X204077200Y-186385771D01*
X203791485Y-186385771D01*
X203648628Y-186314342D01*
X205648628Y-186314342D02*
X205505771Y-186385771D01*
X205220057Y-186385771D01*
X205077200Y-186314342D01*
X205005771Y-186242914D01*
X204934342Y-186100057D01*
X204934342Y-185671485D01*
X205005771Y-185528628D01*
X205077200Y-185457200D01*
X205220057Y-185385771D01*
X205505771Y-185385771D01*
X205648628Y-185457200D01*
X206291485Y-186385771D02*
X206291485Y-184885771D01*
X206291485Y-185457200D02*
X206434342Y-185385771D01*
X206720057Y-185385771D01*
X206862914Y-185457200D01*
X206934342Y-185528628D01*
X207005771Y-185671485D01*
X207005771Y-186100057D01*
X206934342Y-186242914D01*
X206862914Y-186314342D01*
X206720057Y-186385771D01*
X206434342Y-186385771D01*
X206291485Y-186314342D01*
D10*
D11*
X177002200Y-181507200D02*
X285002200Y-181507200D01*
D10*
D11*
X178362914Y-183614342D02*
X178577200Y-183685771D01*
X178934342Y-183685771D01*
X179077200Y-183614342D01*
X179148628Y-183542914D01*
X179220057Y-183400057D01*
X179220057Y-183257200D01*
X179148628Y-183114342D01*
X179077200Y-183042914D01*
X178934342Y-182971485D01*
X178648628Y-182900057D01*
X178505771Y-182828628D01*
X178434342Y-182757200D01*
X178362914Y-182614342D01*
X178362914Y-182471485D01*
X178434342Y-182328628D01*
X178505771Y-182257200D01*
X178648628Y-182185771D01*
X179005771Y-182185771D01*
X179220057Y-182257200D01*
X179862914Y-183685771D02*
X179862914Y-182185771D01*
X180505771Y-183685771D02*
X180505771Y-182900057D01*
X180434342Y-182757200D01*
X180291485Y-182685771D01*
X180077200Y-182685771D01*
X179934342Y-182757200D01*
X179862914Y-182828628D01*
X181791485Y-183614342D02*
X181648628Y-183685771D01*
X181362914Y-183685771D01*
X181220057Y-183614342D01*
X181148628Y-183471485D01*
X181148628Y-182900057D01*
X181220057Y-182757200D01*
X181362914Y-182685771D01*
X181648628Y-182685771D01*
X181791485Y-182757200D01*
X181862914Y-182900057D01*
X181862914Y-183042914D01*
X181148628Y-183185771D01*
X183077200Y-183614342D02*
X182934342Y-183685771D01*
X182648628Y-183685771D01*
X182505771Y-183614342D01*
X182434342Y-183471485D01*
X182434342Y-182900057D01*
X182505771Y-182757200D01*
X182648628Y-182685771D01*
X182934342Y-182685771D01*
X183077200Y-182757200D01*
X183148628Y-182900057D01*
X183148628Y-183042914D01*
X182434342Y-183185771D01*
X183577200Y-182685771D02*
X184148628Y-182685771D01*
X183791485Y-182185771D02*
X183791485Y-183471485D01*
X183862914Y-183614342D01*
X184005771Y-183685771D01*
X184148628Y-183685771D01*
X184648628Y-183542914D02*
X184720057Y-183614342D01*
X184648628Y-183685771D01*
X184577200Y-183614342D01*
X184648628Y-183542914D01*
X184648628Y-183685771D01*
X184648628Y-182757200D02*
X184720057Y-182828628D01*
X184648628Y-182900057D01*
X184577200Y-182828628D01*
X184648628Y-182757200D01*
X184648628Y-182900057D01*
D10*
D11*
X197002200Y-191507200D02*
X197002200Y-194507200D01*
D10*
D11*
X261002200Y-191507200D02*
X261002200Y-198007200D01*
D14*
%TO.P,Y1,2*%
%TO.N,xtal1*%
X98552000Y-24946000D03*
%TO.P,Y1,1*%
%TO.N,xtal2*%
X98552000Y-20066000D03*
%TD*%
D15*
%TO.P,usb_boot1,2*%
%TO.N,Net-(R7-Pad2)*%
X106680000Y-9906000D03*
D16*
%TO.P,usb_boot1,1*%
%TO.N,Net-(U2-Pad33)*%
X104140000Y-9906000D03*
%TD*%
D17*
%TO.P,SW8,1*%
%TO.N,8*%
X281940000Y-5080000D03*
%TO.P,SW8,2*%
%TO.N,Unfiltered*%
X275590000Y-7620000D03*
%TD*%
%TO.P,SW7,1*%
%TO.N,7*%
X264160000Y-5080000D03*
%TO.P,SW7,2*%
%TO.N,Unfiltered*%
X257810000Y-7620000D03*
%TD*%
%TO.P,SW6,1*%
%TO.N,6*%
X246380000Y-5080000D03*
%TO.P,SW6,2*%
%TO.N,Unfiltered*%
X240030000Y-7620000D03*
%TD*%
%TO.P,SW5,1*%
%TO.N,5*%
X228600000Y-5080000D03*
%TO.P,SW5,2*%
%TO.N,Unfiltered*%
X222250000Y-7620000D03*
%TD*%
%TO.P,SW4,1*%
%TO.N,4*%
X210820000Y-5080000D03*
%TO.P,SW4,2*%
%TO.N,Unfiltered*%
X204470000Y-7620000D03*
%TD*%
%TO.P,SW3,1*%
%TO.N,3*%
X193040000Y-5080000D03*
%TO.P,SW3,2*%
%TO.N,Unfiltered*%
X186690000Y-7620000D03*
%TD*%
%TO.P,SW2,1*%
%TO.N,2*%
X175260000Y-5080000D03*
%TO.P,SW2,2*%
%TO.N,Unfiltered*%
X168910000Y-7620000D03*
%TD*%
%TO.P,SW1,1*%
%TO.N,1*%
X157480000Y-5080000D03*
%TO.P,SW1,2*%
%TO.N,Unfiltered*%
X151130000Y-7620000D03*
%TD*%
D15*
%TO.P,J2,5*%
%TO.N,rst*%
X106680000Y-34798000D03*
%TO.P,J2,4*%
%TO.N,TX*%
X104140000Y-34798000D03*
%TO.P,J2,3*%
%TO.N,RX*%
X101600000Y-34798000D03*
%TO.P,J2,2*%
%TO.N,SDA*%
X99060000Y-34798000D03*
D16*
%TO.P,J2,1*%
%TO.N,SCL*%
X96520000Y-34798000D03*
%TD*%
D18*
%TO.P,J1,6*%
%TO.N,GND*%
X117912000Y-3080500D03*
X124912000Y-3080500D03*
D19*
X118912000Y-5780500D03*
X123912000Y-5780500D03*
%TD*%
%TO.P,C4,2*%
%TO.N,GND*%
%TA.AperFunction,SMDPad,CuDef*%
G36*
G01*
X111565000Y-9167500D02*
X109415000Y-9167500D01*
G75*
G02*
X109165000Y-8917500I0J250000D01*
G01*
X109165000Y-7992500D01*
G75*
G02*
X109415000Y-7742500I250000J0D01*
G01*
X111565000Y-7742500D01*
G75*
G02*
X111815000Y-7992500I0J-250000D01*
G01*
X111815000Y-8917500D01*
G75*
G02*
X111565000Y-9167500I-250000J0D01*
G01*
G37*
%TD.AperFunction*%
%TO.P,C4,1*%
%TO.N,Net-(C4-Pad1)*%
%TA.AperFunction,SMDPad,CuDef*%
G36*
G01*
X111565000Y-12142500D02*
X109415000Y-12142500D01*
G75*
G02*
X109165000Y-11892500I0J250000D01*
G01*
X109165000Y-10967500D01*
G75*
G02*
X109415000Y-10717500I250000J0D01*
G01*
X111565000Y-10717500D01*
G75*
G02*
X111815000Y-10967500I0J-250000D01*
G01*
X111815000Y-11892500D01*
G75*
G02*
X111565000Y-12142500I-250000J0D01*
G01*
G37*
%TD.AperFunction*%
%TD*%
D20*
%TO.N,*%
X96520000Y-17018000D03*
%TO.N,GND*%
X130810000Y-23114000D03*
X110490000Y-8890000D03*
X127000000Y-19558000D03*
X127000000Y-25146000D03*
X117440000Y-22190000D03*
X127456510Y-1829490D03*
X137265000Y-11370000D03*
X120650000Y-13970000D03*
%TO.N,VBUS*%
X132080000Y-10160000D03*
X127724499Y-4355501D03*
%TO.N,Unfiltered*%
X119380000Y-15240000D03*
X123698000Y-15494000D03*
X128270000Y-10668000D03*
X109723845Y-19054155D03*
%TO.N,Net-(C3-Pad1)*%
X130810000Y-20066000D03*
X127000000Y-20574000D03*
%TO.N,Net-(C4-Pad1)*%
X110490000Y-11430000D03*
%TO.N,Net-(C7-Pad1)*%
X115062000Y-6146800D03*
X120573800Y-8991600D03*
%TO.N,rst*%
X115062000Y-37592000D03*
X118110000Y-33020000D03*
X115570000Y-20320000D03*
%TO.N,Net-(R5-Pad2)*%
X104140000Y-39370000D03*
X114032000Y-27672000D03*
%TO.N,1*%
X157480000Y-20320000D03*
X118364000Y-14732000D03*
%TO.N,2*%
X173990000Y-20320000D03*
X117332000Y-15256000D03*
%TO.N,3*%
X193040000Y-20320000D03*
X116332000Y-14732000D03*
%TO.N,4*%
X209550000Y-20320000D03*
X115316000Y-15240000D03*
%TO.N,5*%
X228600000Y-20320000D03*
X119634000Y-26924000D03*
%TO.N,6*%
X246380000Y-20320000D03*
X120904000Y-30226000D03*
%TO.N,7*%
X264160000Y-20320000D03*
X121920000Y-30066000D03*
X131826000Y-27940000D03*
X188214000Y-26416000D03*
%TO.N,8*%
X281940000Y-20320000D03*
X116840000Y-21082000D03*
X132842000Y-26162000D03*
X136906000Y-25400000D03*
%TD*%
D21*
%TO.N,GND*%
X127000000Y-25146000D02*
X127000000Y-25146000D01*
X127000000Y-19558000D02*
X126243640Y-19558000D01*
X126243640Y-19558000D02*
X125205602Y-20596036D01*
X125205602Y-20596036D02*
X122913964Y-20596036D01*
X122913964Y-20596036D02*
X122428000Y-21082000D01*
X122428000Y-21082000D02*
X122428000Y-24638000D01*
X122428000Y-24638000D02*
X123698000Y-25908000D01*
X126238000Y-25908000D02*
X127000000Y-25146000D01*
X123698000Y-25908000D02*
X126238000Y-25908000D01*
X128778000Y-25146000D02*
X130810000Y-23114000D01*
X127000000Y-25146000D02*
X128778000Y-25146000D01*
X118548000Y-21082000D02*
X117440000Y-22190000D01*
X122428000Y-21082000D02*
X122428000Y-21082000D01*
X127456510Y-1829490D02*
X129794000Y-4166980D01*
X129794000Y-4166980D02*
X131166980Y-4166980D01*
X137265000Y-10265000D02*
X137265000Y-11370000D01*
X131166980Y-4166980D02*
X137265000Y-10265000D01*
X122428000Y-21082000D02*
X118548000Y-21082000D01*
X114865991Y-16827627D02*
X118634403Y-20596037D01*
X111914462Y-19779156D02*
X114865991Y-16827627D01*
X109375844Y-19779156D02*
X111914462Y-19779156D01*
X126434315Y-19558000D02*
X127000000Y-19558000D01*
X118634403Y-20596037D02*
X125396278Y-20596037D01*
X108998844Y-19402156D02*
X109375844Y-19779156D01*
X108998844Y-18380746D02*
X108998844Y-19402156D01*
X114875599Y-12503991D02*
X108998844Y-18380746D01*
X119183991Y-12503991D02*
X114875599Y-12503991D01*
X125396278Y-20596037D02*
X126434315Y-19558000D01*
X120650000Y-13970000D02*
X119183991Y-12503991D01*
%TO.N,VBUS*%
X127724499Y-4355501D02*
X128448998Y-5080000D01*
X128448998Y-5080000D02*
X128905000Y-5080000D01*
X128905000Y-5080000D02*
X129540000Y-5715000D01*
X129540000Y-5715000D02*
X129540000Y-8890000D01*
X129540000Y-8890000D02*
X130810000Y-10160000D01*
X130810000Y-10160000D02*
X132080000Y-10160000D01*
%TO.N,Unfiltered*%
X119380000Y-15240000D02*
X118872000Y-15748000D01*
X118872000Y-15748000D02*
X118872000Y-17526000D01*
X118872000Y-17526000D02*
X119634000Y-18288000D01*
X119634000Y-18288000D02*
X122682000Y-18288000D01*
X122682000Y-18288000D02*
X122936000Y-18288000D01*
X122936000Y-18288000D02*
X123190000Y-18034000D01*
X123190000Y-18034000D02*
X123190000Y-16002000D01*
X123190000Y-16002000D02*
X123698000Y-15494000D01*
X123698000Y-15494000D02*
X123698000Y-15494000D01*
X109723845Y-18292155D02*
X109723845Y-19054155D01*
X115062000Y-12954000D02*
X109723845Y-18292155D01*
X118872000Y-12954000D02*
X115062000Y-12954000D01*
X119380000Y-15240000D02*
X119380000Y-13462000D01*
X119380000Y-13462000D02*
X118872000Y-12954000D01*
%TO.N,Net-(C3-Pad1)*%
X130302000Y-20574000D02*
X130810000Y-20066000D01*
X127000000Y-20574000D02*
X130302000Y-20574000D01*
%TO.N,Net-(C7-Pad1)*%
X115062000Y-6146800D02*
X117919500Y-9004300D01*
X120561100Y-9004300D02*
X120573800Y-8991600D01*
X117919500Y-9004300D02*
X120561100Y-9004300D01*
%TO.N,rst*%
X106680000Y-34798000D02*
X106680000Y-33020000D01*
X106680000Y-33020000D02*
X105410000Y-31750000D01*
X105410000Y-31750000D02*
X97282998Y-31750000D01*
X97282998Y-31750000D02*
X93980000Y-31750000D01*
X93980000Y-31750000D02*
X92710000Y-33020000D01*
X92710000Y-33020000D02*
X92710000Y-33273002D01*
X92710000Y-33273002D02*
X92710000Y-39370000D01*
X92710000Y-39370000D02*
X96520000Y-43180000D01*
X96520000Y-43180000D02*
X101600000Y-43180000D01*
X101600000Y-43180000D02*
X102870000Y-44450000D01*
X102870000Y-44450000D02*
X105410000Y-44450000D01*
X115570000Y-34290000D02*
X115570000Y-20320000D01*
X115570000Y-20320000D02*
X115570000Y-20320000D01*
X118110000Y-33020000D02*
X116840000Y-33020000D01*
X116840000Y-33020000D02*
X115570000Y-34290000D01*
X112268000Y-37592000D02*
X115062000Y-37592000D01*
X112268000Y-37592000D02*
X115570000Y-34290000D01*
X105410000Y-44450000D02*
X112268000Y-37592000D01*
%TO.N,Net-(R5-Pad2)*%
X105410000Y-38100000D02*
X104140000Y-39370000D01*
X114032000Y-31383000D02*
X109855000Y-35560000D01*
X114032000Y-27672000D02*
X114032000Y-31383000D01*
X108585000Y-38100000D02*
X105410000Y-38100000D01*
X109855000Y-35560000D02*
X109855000Y-36830000D01*
X109855000Y-36830000D02*
X108585000Y-38100000D01*
%TO.N,1*%
X158115000Y-19685000D02*
X157480000Y-20320000D01*
X158115000Y-8255000D02*
X158115000Y-19685000D01*
X157480000Y-5080000D02*
X157480000Y-7620000D01*
X157480000Y-7620000D02*
X158115000Y-8255000D01*
X118364000Y-17780000D02*
X119380000Y-18796000D01*
X118364000Y-14732000D02*
X118364000Y-17780000D01*
X154432000Y-17272000D02*
X157480000Y-20320000D01*
X124460000Y-18796000D02*
X125984000Y-17272000D01*
X119380000Y-18796000D02*
X124460000Y-18796000D01*
X125984000Y-17272000D02*
X154432000Y-17272000D01*
%TO.N,2*%
X173990000Y-20320000D02*
X174625000Y-20320000D01*
X174625000Y-20320000D02*
X175895000Y-19050000D01*
X175895000Y-5715000D02*
X175260000Y-5080000D01*
X175895000Y-19050000D02*
X175895000Y-5715000D01*
X171450000Y-22860000D02*
X173990000Y-20320000D01*
X117332000Y-17384410D02*
X119193600Y-19246010D01*
X152908000Y-22860000D02*
X171450000Y-22860000D01*
X147828000Y-17780000D02*
X152908000Y-22860000D01*
X117332000Y-15256000D02*
X117332000Y-17384410D01*
X119193600Y-19246010D02*
X124646401Y-19246009D01*
X126112410Y-17780000D02*
X147828000Y-17780000D01*
X124646401Y-19246009D02*
X126112410Y-17780000D01*
%TO.N,3*%
X193040000Y-20320000D02*
X193040000Y-5080000D01*
X119007201Y-19696019D02*
X124832802Y-19696018D01*
X116332000Y-14732000D02*
X116332000Y-17020820D01*
X116332000Y-17020820D02*
X119007201Y-19696019D01*
X152721600Y-23310010D02*
X190049990Y-23310010D01*
X190049990Y-23310010D02*
X193040000Y-20320000D01*
X147641600Y-18230010D02*
X152721600Y-23310010D01*
X126298810Y-18230010D02*
X147641600Y-18230010D01*
X124832802Y-19696018D02*
X126298810Y-18230010D01*
%TO.N,4*%
X211455000Y-5715000D02*
X210820000Y-5080000D01*
X211455000Y-11430000D02*
X211455000Y-5715000D01*
X209550000Y-20320000D02*
X209550000Y-13335000D01*
X209550000Y-13335000D02*
X211455000Y-11430000D01*
X115316000Y-15240000D02*
X115316000Y-16641226D01*
X118820802Y-20146028D02*
X125019203Y-20146027D01*
X115316000Y-16641226D02*
X118820802Y-20146028D01*
X125019203Y-20146027D02*
X126485210Y-18680020D01*
X206109980Y-23760020D02*
X209550000Y-20320000D01*
X147455200Y-18680020D02*
X152535200Y-23760020D01*
X152535200Y-23760020D02*
X206109980Y-23760020D01*
X126485210Y-18680020D02*
X147455200Y-18680020D01*
%TO.N,5*%
X229235000Y-5715000D02*
X228600000Y-5080000D01*
X229235000Y-11430000D02*
X229235000Y-5715000D01*
X228600000Y-20320000D02*
X228600000Y-12065000D01*
X228600000Y-12065000D02*
X229235000Y-11430000D01*
X228600000Y-20320000D02*
X224709970Y-24210030D01*
X224709970Y-24210030D02*
X136063970Y-24210030D01*
X136063970Y-24210030D02*
X133096000Y-27178000D01*
X133096000Y-27178000D02*
X120142000Y-27178000D01*
X120142000Y-27178000D02*
X119888000Y-27178000D01*
X119888000Y-27178000D02*
X119634000Y-26924000D01*
X119634000Y-26924000D02*
X119634000Y-26924000D01*
%TO.N,6*%
X246380000Y-20320000D02*
X246380000Y-5080000D01*
X246380000Y-20320000D02*
X242039960Y-24660040D01*
X242039960Y-24660040D02*
X136250370Y-24660040D01*
X136250370Y-24660040D02*
X129668410Y-31242000D01*
X129668410Y-31242000D02*
X121920000Y-31242000D01*
X121920000Y-31242000D02*
X120904000Y-30226000D01*
X120904000Y-30226000D02*
X120904000Y-30226000D01*
%TO.N,7*%
X264795000Y-5715000D02*
X264160000Y-5080000D01*
X264160000Y-20320000D02*
X264160000Y-12065000D01*
X264795000Y-11430000D02*
X264795000Y-5715000D01*
X264160000Y-12065000D02*
X264795000Y-11430000D01*
X121920000Y-30066000D02*
X129700000Y-30066000D01*
X129700000Y-30066000D02*
X131826000Y-27940000D01*
X131826000Y-27940000D02*
X131826000Y-27940000D01*
X258064000Y-26416000D02*
X264160000Y-20320000D01*
X188214000Y-26416000D02*
X258064000Y-26416000D01*
%TO.N,8*%
X281940000Y-20320000D02*
X281940000Y-12065000D01*
X281940000Y-12065000D02*
X282575000Y-11430000D01*
X282575000Y-11430000D02*
X282575000Y-8255000D01*
X281940000Y-7620000D02*
X281940000Y-5080000D01*
X282575000Y-8255000D02*
X281940000Y-7620000D01*
X275118999Y-27141001D02*
X137450999Y-27141001D01*
X281940000Y-20320000D02*
X275118999Y-27141001D01*
D22*
X116440001Y-22226003D02*
X120547008Y-26333010D01*
X116840000Y-21082000D02*
X116440001Y-21481999D01*
X120547008Y-26333010D02*
X128098990Y-26333010D01*
X116440001Y-21481999D02*
X116440001Y-22226003D01*
X128270000Y-26162000D02*
X132842000Y-26162000D01*
X128098990Y-26333010D02*
X128270000Y-26162000D01*
X132842000Y-26162000D02*
X133096000Y-26162000D01*
X137450999Y-27141001D02*
X137377001Y-27141001D01*
X137377001Y-27141001D02*
X136906000Y-26670000D01*
X136906000Y-26670000D02*
X136906000Y-25400000D01*
X136906000Y-25400000D02*
X136906000Y-25400000D01*
%TD*%
D23*
%TO.N,GND*%
G36*
X118257008Y-20657036D02*
G01*
X118280802Y-20686029D01*
X118309795Y-20709823D01*
X118309799Y-20709827D01*
X118396526Y-20781002D01*
X118528555Y-20851574D01*
X118671816Y-20895031D01*
X118820802Y-20909705D01*
X118858135Y-20906028D01*
X124981871Y-20906026D01*
X125019203Y-20909703D01*
X125056536Y-20906026D01*
X125168189Y-20895029D01*
X125231257Y-20875898D01*
X125311449Y-20851573D01*
X125443479Y-20781001D01*
X125530205Y-20709826D01*
X125530206Y-20709825D01*
X125559204Y-20686027D01*
X125583002Y-20657029D01*
X126030827Y-20209204D01*
X126004774Y-20272102D01*
X125965000Y-20472061D01*
X125965000Y-20675939D01*
X126004774Y-20875898D01*
X126082795Y-21064256D01*
X126196063Y-21233774D01*
X126340226Y-21377937D01*
X126509744Y-21491205D01*
X126698102Y-21569226D01*
X126898061Y-21609000D01*
X127101939Y-21609000D01*
X127301898Y-21569226D01*
X127490256Y-21491205D01*
X127659774Y-21377937D01*
X127703711Y-21334000D01*
X130264678Y-21334000D01*
X130302000Y-21337676D01*
X130339322Y-21334000D01*
X130339333Y-21334000D01*
X130450986Y-21323003D01*
X130594247Y-21279546D01*
X130726276Y-21208974D01*
X130842001Y-21114001D01*
X130852671Y-21101000D01*
X130911939Y-21101000D01*
X131111898Y-21061226D01*
X131300256Y-20983205D01*
X131469774Y-20869937D01*
X131613937Y-20725774D01*
X131727205Y-20556256D01*
X131805226Y-20367898D01*
X131845000Y-20167939D01*
X131845000Y-19964061D01*
X131805226Y-19764102D01*
X131727205Y-19575744D01*
X131636517Y-19440020D01*
X147140399Y-19440020D01*
X151150408Y-23450030D01*
X136101292Y-23450030D01*
X136063969Y-23446354D01*
X136026646Y-23450030D01*
X136026637Y-23450030D01*
X135914984Y-23461027D01*
X135771723Y-23504484D01*
X135639694Y-23575056D01*
X135639692Y-23575057D01*
X135639693Y-23575057D01*
X135552966Y-23646231D01*
X135552962Y-23646235D01*
X135523969Y-23670029D01*
X135500175Y-23699022D01*
X133666379Y-25532819D01*
X133645937Y-25502226D01*
X133501774Y-25358063D01*
X133332256Y-25244795D01*
X133143898Y-25166774D01*
X132943939Y-25127000D01*
X132740061Y-25127000D01*
X132540102Y-25166774D01*
X132351744Y-25244795D01*
X132182226Y-25358063D01*
X132113289Y-25427000D01*
X128306105Y-25427000D01*
X128270000Y-25423444D01*
X128233895Y-25427000D01*
X128125915Y-25437635D01*
X127987367Y-25479663D01*
X127859680Y-25547913D01*
X127798637Y-25598010D01*
X120851455Y-25598010D01*
X117275380Y-22021936D01*
X117330256Y-21999205D01*
X117499774Y-21885937D01*
X117643937Y-21741774D01*
X117757205Y-21572256D01*
X117835226Y-21383898D01*
X117875000Y-21183939D01*
X117875000Y-20980061D01*
X117835226Y-20780102D01*
X117757205Y-20591744D01*
X117643937Y-20422226D01*
X117499774Y-20278063D01*
X117330256Y-20164795D01*
X117141898Y-20086774D01*
X116941939Y-20047000D01*
X116738061Y-20047000D01*
X116577333Y-20078970D01*
X116565226Y-20018102D01*
X116487205Y-19829744D01*
X116373937Y-19660226D01*
X116229774Y-19516063D01*
X116060256Y-19402795D01*
X115871898Y-19324774D01*
X115671939Y-19285000D01*
X115468061Y-19285000D01*
X115443000Y-19289985D01*
X115443000Y-17843027D01*
X118257008Y-20657036D01*
G37*
X118257008Y-20657036D02*
X118280802Y-20686029D01*
X118309795Y-20709823D01*
X118309799Y-20709827D01*
X118396526Y-20781002D01*
X118528555Y-20851574D01*
X118671816Y-20895031D01*
X118820802Y-20909705D01*
X118858135Y-20906028D01*
X124981871Y-20906026D01*
X125019203Y-20909703D01*
X125056536Y-20906026D01*
X125168189Y-20895029D01*
X125231257Y-20875898D01*
X125311449Y-20851573D01*
X125443479Y-20781001D01*
X125530205Y-20709826D01*
X125530206Y-20709825D01*
X125559204Y-20686027D01*
X125583002Y-20657029D01*
X126030827Y-20209204D01*
X126004774Y-20272102D01*
X125965000Y-20472061D01*
X125965000Y-20675939D01*
X126004774Y-20875898D01*
X126082795Y-21064256D01*
X126196063Y-21233774D01*
X126340226Y-21377937D01*
X126509744Y-21491205D01*
X126698102Y-21569226D01*
X126898061Y-21609000D01*
X127101939Y-21609000D01*
X127301898Y-21569226D01*
X127490256Y-21491205D01*
X127659774Y-21377937D01*
X127703711Y-21334000D01*
X130264678Y-21334000D01*
X130302000Y-21337676D01*
X130339322Y-21334000D01*
X130339333Y-21334000D01*
X130450986Y-21323003D01*
X130594247Y-21279546D01*
X130726276Y-21208974D01*
X130842001Y-21114001D01*
X130852671Y-21101000D01*
X130911939Y-21101000D01*
X131111898Y-21061226D01*
X131300256Y-20983205D01*
X131469774Y-20869937D01*
X131613937Y-20725774D01*
X131727205Y-20556256D01*
X131805226Y-20367898D01*
X131845000Y-20167939D01*
X131845000Y-19964061D01*
X131805226Y-19764102D01*
X131727205Y-19575744D01*
X131636517Y-19440020D01*
X147140399Y-19440020D01*
X151150408Y-23450030D01*
X136101292Y-23450030D01*
X136063969Y-23446354D01*
X136026646Y-23450030D01*
X136026637Y-23450030D01*
X135914984Y-23461027D01*
X135771723Y-23504484D01*
X135639694Y-23575056D01*
X135639692Y-23575057D01*
X135639693Y-23575057D01*
X135552966Y-23646231D01*
X135552962Y-23646235D01*
X135523969Y-23670029D01*
X135500175Y-23699022D01*
X133666379Y-25532819D01*
X133645937Y-25502226D01*
X133501774Y-25358063D01*
X133332256Y-25244795D01*
X133143898Y-25166774D01*
X132943939Y-25127000D01*
X132740061Y-25127000D01*
X132540102Y-25166774D01*
X132351744Y-25244795D01*
X132182226Y-25358063D01*
X132113289Y-25427000D01*
X128306105Y-25427000D01*
X128270000Y-25423444D01*
X128233895Y-25427000D01*
X128125915Y-25437635D01*
X127987367Y-25479663D01*
X127859680Y-25547913D01*
X127798637Y-25598010D01*
X120851455Y-25598010D01*
X117275380Y-22021936D01*
X117330256Y-21999205D01*
X117499774Y-21885937D01*
X117643937Y-21741774D01*
X117757205Y-21572256D01*
X117835226Y-21383898D01*
X117875000Y-21183939D01*
X117875000Y-20980061D01*
X117835226Y-20780102D01*
X117757205Y-20591744D01*
X117643937Y-20422226D01*
X117499774Y-20278063D01*
X117330256Y-20164795D01*
X117141898Y-20086774D01*
X116941939Y-20047000D01*
X116738061Y-20047000D01*
X116577333Y-20078970D01*
X116565226Y-20018102D01*
X116487205Y-19829744D01*
X116373937Y-19660226D01*
X116229774Y-19516063D01*
X116060256Y-19402795D01*
X115871898Y-19324774D01*
X115671939Y-19285000D01*
X115468061Y-19285000D01*
X115443000Y-19289985D01*
X115443000Y-17843027D01*
X118257008Y-20657036D01*
G36*
X129892795Y-19575744D02*
G01*
X129814774Y-19764102D01*
X129804849Y-19814000D01*
X127703711Y-19814000D01*
X127659774Y-19770063D01*
X127490256Y-19656795D01*
X127301898Y-19578774D01*
X127101939Y-19539000D01*
X126898061Y-19539000D01*
X126698102Y-19578774D01*
X126635205Y-19604827D01*
X126800012Y-19440020D01*
X129983483Y-19440020D01*
X129892795Y-19575744D01*
G37*
X129892795Y-19575744D02*
X129814774Y-19764102D01*
X129804849Y-19814000D01*
X127703711Y-19814000D01*
X127659774Y-19770063D01*
X127490256Y-19656795D01*
X127301898Y-19578774D01*
X127101939Y-19539000D01*
X126898061Y-19539000D01*
X126698102Y-19578774D01*
X126635205Y-19604827D01*
X126800012Y-19440020D01*
X129983483Y-19440020D01*
X129892795Y-19575744D01*
G36*
X147701000Y-16512000D02*
G01*
X126021322Y-16512000D01*
X125983999Y-16508324D01*
X125946676Y-16512000D01*
X125946667Y-16512000D01*
X125835014Y-16522997D01*
X125691753Y-16566454D01*
X125559724Y-16637026D01*
X125559722Y-16637027D01*
X125559723Y-16637027D01*
X125472996Y-16708201D01*
X125472992Y-16708205D01*
X125443999Y-16731999D01*
X125420205Y-16760992D01*
X124145199Y-18036000D01*
X123953479Y-18036000D01*
X123953676Y-18034001D01*
X123950000Y-17996678D01*
X123950000Y-16499151D01*
X123999898Y-16489226D01*
X124188256Y-16411205D01*
X124357774Y-16297937D01*
X124501937Y-16153774D01*
X124615205Y-15984256D01*
X124693226Y-15795898D01*
X124733000Y-15595939D01*
X124733000Y-15392061D01*
X124693226Y-15192102D01*
X124615205Y-15003744D01*
X124501937Y-14834226D01*
X124357774Y-14690063D01*
X124188256Y-14576795D01*
X123999898Y-14498774D01*
X123799939Y-14459000D01*
X123596061Y-14459000D01*
X123396102Y-14498774D01*
X123207744Y-14576795D01*
X123038226Y-14690063D01*
X122894063Y-14834226D01*
X122780795Y-15003744D01*
X122702774Y-15192102D01*
X122663000Y-15392061D01*
X122663000Y-15451330D01*
X122650000Y-15461999D01*
X122626202Y-15490997D01*
X122626201Y-15490998D01*
X122555026Y-15577724D01*
X122484454Y-15709754D01*
X122463146Y-15780001D01*
X122440998Y-15853014D01*
X122434817Y-15915774D01*
X122426324Y-16002000D01*
X122430001Y-16039332D01*
X122430000Y-17528000D01*
X119948802Y-17528000D01*
X119632000Y-17211199D01*
X119632000Y-16245151D01*
X119681898Y-16235226D01*
X119870256Y-16157205D01*
X120039774Y-16043937D01*
X120183937Y-15899774D01*
X120297205Y-15730256D01*
X120375226Y-15541898D01*
X120415000Y-15341939D01*
X120415000Y-15138061D01*
X120375226Y-14938102D01*
X120297205Y-14749744D01*
X120183937Y-14580226D01*
X120140000Y-14536289D01*
X120140000Y-13499322D01*
X120143676Y-13461999D01*
X120140000Y-13424676D01*
X120140000Y-13424667D01*
X120129003Y-13313014D01*
X120085546Y-13169753D01*
X120014974Y-13037724D01*
X119920001Y-12921999D01*
X119891002Y-12898200D01*
X119435803Y-12443002D01*
X119412001Y-12413999D01*
X119296276Y-12319026D01*
X119164247Y-12248454D01*
X119020986Y-12204997D01*
X118909333Y-12194000D01*
X118909322Y-12194000D01*
X118872000Y-12190324D01*
X118834678Y-12194000D01*
X115099322Y-12194000D01*
X115061999Y-12190324D01*
X115024676Y-12194000D01*
X115024667Y-12194000D01*
X114913014Y-12204997D01*
X114769753Y-12248454D01*
X114637724Y-12319026D01*
X114521999Y-12413999D01*
X114498201Y-12442997D01*
X113090402Y-13850796D01*
X112357803Y-13118197D01*
X112338557Y-13102403D01*
X112316601Y-13090667D01*
X112292776Y-13083440D01*
X112268000Y-13081000D01*
X93091000Y-13081000D01*
X93091000Y-9056000D01*
X102651928Y-9056000D01*
X102651928Y-10756000D01*
X102664188Y-10880482D01*
X102700498Y-11000180D01*
X102759463Y-11110494D01*
X102838815Y-11207185D01*
X102935506Y-11286537D01*
X103045820Y-11345502D01*
X103165518Y-11381812D01*
X103290000Y-11394072D01*
X104990000Y-11394072D01*
X105114482Y-11381812D01*
X105234180Y-11345502D01*
X105344494Y-11286537D01*
X105441185Y-11207185D01*
X105520537Y-11110494D01*
X105579502Y-11000180D01*
X105601513Y-10927620D01*
X105733368Y-11059475D01*
X105976589Y-11221990D01*
X106246842Y-11333932D01*
X106533740Y-11391000D01*
X106826260Y-11391000D01*
X107113158Y-11333932D01*
X107383411Y-11221990D01*
X107626632Y-11059475D01*
X107718607Y-10967500D01*
X108526928Y-10967500D01*
X108526928Y-11892500D01*
X108543992Y-12065754D01*
X108594528Y-12232350D01*
X108676595Y-12385886D01*
X108787038Y-12520462D01*
X108921614Y-12630905D01*
X109075150Y-12712972D01*
X109241746Y-12763508D01*
X109415000Y-12780572D01*
X111565000Y-12780572D01*
X111738254Y-12763508D01*
X111904850Y-12712972D01*
X112058386Y-12630905D01*
X112192962Y-12520462D01*
X112303405Y-12385886D01*
X112385472Y-12232350D01*
X112436008Y-12065754D01*
X112453072Y-11892500D01*
X112453072Y-10967500D01*
X112436008Y-10794246D01*
X112385472Y-10627650D01*
X112352552Y-10566061D01*
X127235000Y-10566061D01*
X127235000Y-10769939D01*
X127274774Y-10969898D01*
X127352795Y-11158256D01*
X127466063Y-11327774D01*
X127610226Y-11471937D01*
X127779744Y-11585205D01*
X127968102Y-11663226D01*
X128168061Y-11703000D01*
X128371939Y-11703000D01*
X128571898Y-11663226D01*
X128760256Y-11585205D01*
X128929774Y-11471937D01*
X129073937Y-11327774D01*
X129187205Y-11158256D01*
X129265226Y-10969898D01*
X129305000Y-10769939D01*
X129305000Y-10566061D01*
X129265226Y-10366102D01*
X129187205Y-10177744D01*
X129073937Y-10008226D01*
X128929774Y-9864063D01*
X128760256Y-9750795D01*
X128571898Y-9672774D01*
X128371939Y-9633000D01*
X128168061Y-9633000D01*
X127968102Y-9672774D01*
X127779744Y-9750795D01*
X127610226Y-9864063D01*
X127466063Y-10008226D01*
X127352795Y-10177744D01*
X127274774Y-10366102D01*
X127235000Y-10566061D01*
X112352552Y-10566061D01*
X112303405Y-10474114D01*
X112192962Y-10339538D01*
X112058386Y-10229095D01*
X111904850Y-10147028D01*
X111738254Y-10096492D01*
X111565000Y-10079428D01*
X109415000Y-10079428D01*
X109241746Y-10096492D01*
X109075150Y-10147028D01*
X108921614Y-10229095D01*
X108787038Y-10339538D01*
X108676595Y-10474114D01*
X108594528Y-10627650D01*
X108543992Y-10794246D01*
X108526928Y-10967500D01*
X107718607Y-10967500D01*
X107833475Y-10852632D01*
X107995990Y-10609411D01*
X108107932Y-10339158D01*
X108165000Y-10052260D01*
X108165000Y-9759740D01*
X108107932Y-9472842D01*
X107995990Y-9202589D01*
X107972545Y-9167500D01*
X108526928Y-9167500D01*
X108539188Y-9291982D01*
X108575498Y-9411680D01*
X108634463Y-9521994D01*
X108713815Y-9618685D01*
X108810506Y-9698037D01*
X108920820Y-9757002D01*
X109040518Y-9793312D01*
X109165000Y-9805572D01*
X110204250Y-9802500D01*
X110363000Y-9643750D01*
X110363000Y-8582000D01*
X110617000Y-8582000D01*
X110617000Y-9643750D01*
X110775750Y-9802500D01*
X111815000Y-9805572D01*
X111939482Y-9793312D01*
X112059180Y-9757002D01*
X112169494Y-9698037D01*
X112266185Y-9618685D01*
X112345537Y-9521994D01*
X112404502Y-9411680D01*
X112440812Y-9291982D01*
X112453072Y-9167500D01*
X112450000Y-8740750D01*
X112291250Y-8582000D01*
X110617000Y-8582000D01*
X110363000Y-8582000D01*
X108688750Y-8582000D01*
X108530000Y-8740750D01*
X108526928Y-9167500D01*
X107972545Y-9167500D01*
X107833475Y-8959368D01*
X107626632Y-8752525D01*
X107383411Y-8590010D01*
X107113158Y-8478068D01*
X106826260Y-8421000D01*
X106533740Y-8421000D01*
X106246842Y-8478068D01*
X105976589Y-8590010D01*
X105733368Y-8752525D01*
X105601513Y-8884380D01*
X105579502Y-8811820D01*
X105520537Y-8701506D01*
X105441185Y-8604815D01*
X105344494Y-8525463D01*
X105234180Y-8466498D01*
X105114482Y-8430188D01*
X104990000Y-8417928D01*
X103290000Y-8417928D01*
X103165518Y-8430188D01*
X103045820Y-8466498D01*
X102935506Y-8525463D01*
X102838815Y-8604815D01*
X102759463Y-8701506D01*
X102700498Y-8811820D01*
X102664188Y-8931518D01*
X102651928Y-9056000D01*
X93091000Y-9056000D01*
X93091000Y-7742500D01*
X108526928Y-7742500D01*
X108530000Y-8169250D01*
X108688750Y-8328000D01*
X110363000Y-8328000D01*
X110363000Y-7266250D01*
X110617000Y-7266250D01*
X110617000Y-8328000D01*
X112291250Y-8328000D01*
X112450000Y-8169250D01*
X112453072Y-7742500D01*
X112440812Y-7618018D01*
X112404502Y-7498320D01*
X112345537Y-7388006D01*
X112266185Y-7291315D01*
X112169494Y-7211963D01*
X112059180Y-7152998D01*
X111939482Y-7116688D01*
X111815000Y-7104428D01*
X110775750Y-7107500D01*
X110617000Y-7266250D01*
X110363000Y-7266250D01*
X110204250Y-7107500D01*
X109165000Y-7104428D01*
X109040518Y-7116688D01*
X108920820Y-7152998D01*
X108810506Y-7211963D01*
X108713815Y-7291315D01*
X108634463Y-7388006D01*
X108575498Y-7498320D01*
X108539188Y-7618018D01*
X108526928Y-7742500D01*
X93091000Y-7742500D01*
X93091000Y-6044861D01*
X114027000Y-6044861D01*
X114027000Y-6248739D01*
X114066774Y-6448698D01*
X114144795Y-6637056D01*
X114258063Y-6806574D01*
X114402226Y-6950737D01*
X114571744Y-7064005D01*
X114760102Y-7142026D01*
X114960061Y-7181800D01*
X115022199Y-7181800D01*
X117355701Y-9515303D01*
X117379499Y-9544301D01*
X117495224Y-9639274D01*
X117627253Y-9709846D01*
X117770514Y-9753303D01*
X117882167Y-9764300D01*
X117882176Y-9764300D01*
X117919499Y-9767976D01*
X117956822Y-9764300D01*
X119882789Y-9764300D01*
X119914026Y-9795537D01*
X120083544Y-9908805D01*
X120271902Y-9986826D01*
X120471861Y-10026600D01*
X120675739Y-10026600D01*
X120875698Y-9986826D01*
X121064056Y-9908805D01*
X121233574Y-9795537D01*
X121377737Y-9651374D01*
X121491005Y-9481856D01*
X121569026Y-9293498D01*
X121608800Y-9093539D01*
X121608800Y-8889661D01*
X121569026Y-8689702D01*
X121491005Y-8501344D01*
X121377737Y-8331826D01*
X121233574Y-8187663D01*
X121064056Y-8074395D01*
X120875698Y-7996374D01*
X120675739Y-7956600D01*
X120471861Y-7956600D01*
X120271902Y-7996374D01*
X120083544Y-8074395D01*
X119914026Y-8187663D01*
X119857389Y-8244300D01*
X118234302Y-8244300D01*
X116097000Y-6106999D01*
X116097000Y-6044861D01*
X116057226Y-5844902D01*
X115979205Y-5656544D01*
X115865937Y-5487026D01*
X115721774Y-5342863D01*
X115552256Y-5229595D01*
X115363898Y-5151574D01*
X115163939Y-5111800D01*
X114960061Y-5111800D01*
X114760102Y-5151574D01*
X114571744Y-5229595D01*
X114402226Y-5342863D01*
X114258063Y-5487026D01*
X114144795Y-5656544D01*
X114066774Y-5844902D01*
X114027000Y-6044861D01*
X93091000Y-6044861D01*
X93091000Y-5230620D01*
X93658062Y-4699000D01*
X116270961Y-4699000D01*
X118264830Y-7191336D01*
X118282213Y-7209159D01*
X118302739Y-7223248D01*
X118325620Y-7233062D01*
X118349975Y-7238223D01*
X118364000Y-7239000D01*
X124968000Y-7239000D01*
X124992776Y-7236560D01*
X125016601Y-7229333D01*
X125038557Y-7217597D01*
X125057803Y-7201803D01*
X125076902Y-7177341D01*
X126599354Y-4639921D01*
X126696740Y-4493842D01*
X126729273Y-4657399D01*
X126807294Y-4845757D01*
X126920562Y-5015275D01*
X127064725Y-5159438D01*
X127234243Y-5272706D01*
X127422601Y-5350727D01*
X127622560Y-5390501D01*
X127684697Y-5390501D01*
X127885199Y-5591002D01*
X127908997Y-5620001D01*
X128024722Y-5714974D01*
X128156751Y-5785546D01*
X128300012Y-5829003D01*
X128411665Y-5840000D01*
X128411674Y-5840000D01*
X128448997Y-5843676D01*
X128486320Y-5840000D01*
X128590199Y-5840000D01*
X128780000Y-6029802D01*
X128780001Y-8852668D01*
X128776324Y-8890000D01*
X128780001Y-8927333D01*
X128787553Y-9004003D01*
X128790998Y-9038985D01*
X128834454Y-9182246D01*
X128905026Y-9314276D01*
X128969780Y-9393178D01*
X129000000Y-9430001D01*
X129028998Y-9453799D01*
X130246201Y-10671003D01*
X130269999Y-10700001D01*
X130385724Y-10794974D01*
X130517753Y-10865546D01*
X130661014Y-10909003D01*
X130772667Y-10920000D01*
X130772676Y-10920000D01*
X130809999Y-10923676D01*
X130847322Y-10920000D01*
X131376289Y-10920000D01*
X131420226Y-10963937D01*
X131589744Y-11077205D01*
X131778102Y-11155226D01*
X131978061Y-11195000D01*
X132181939Y-11195000D01*
X132381898Y-11155226D01*
X132570256Y-11077205D01*
X132739774Y-10963937D01*
X132883937Y-10819774D01*
X132997205Y-10650256D01*
X133075226Y-10461898D01*
X133115000Y-10261939D01*
X133115000Y-10058061D01*
X133075226Y-9858102D01*
X132997205Y-9669744D01*
X132883937Y-9500226D01*
X132739774Y-9356063D01*
X132570256Y-9242795D01*
X132381898Y-9164774D01*
X132181939Y-9125000D01*
X131978061Y-9125000D01*
X131778102Y-9164774D01*
X131589744Y-9242795D01*
X131420226Y-9356063D01*
X131376289Y-9400000D01*
X131124802Y-9400000D01*
X130300000Y-8575199D01*
X130300000Y-5752333D01*
X130303677Y-5715000D01*
X130289003Y-5566014D01*
X130245546Y-5422753D01*
X130174974Y-5290724D01*
X130103799Y-5203997D01*
X130080001Y-5174999D01*
X130051004Y-5151202D01*
X129468803Y-4569002D01*
X129445001Y-4539999D01*
X129329276Y-4445026D01*
X129197247Y-4374454D01*
X129053986Y-4330997D01*
X128942333Y-4320000D01*
X128942322Y-4320000D01*
X128905000Y-4316324D01*
X128867678Y-4320000D01*
X128763800Y-4320000D01*
X128759499Y-4315699D01*
X128759499Y-4253562D01*
X128719725Y-4053603D01*
X128641704Y-3865245D01*
X128528436Y-3695727D01*
X128384273Y-3551564D01*
X128214755Y-3438296D01*
X128026397Y-3360275D01*
X127826438Y-3320501D01*
X127622560Y-3320501D01*
X127457015Y-3353430D01*
X128405968Y-1930000D01*
X147701000Y-1930000D01*
X147701000Y-16512000D01*
G37*
X147701000Y-16512000D02*
X126021322Y-16512000D01*
X125983999Y-16508324D01*
X125946676Y-16512000D01*
X125946667Y-16512000D01*
X125835014Y-16522997D01*
X125691753Y-16566454D01*
X125559724Y-16637026D01*
X125559722Y-16637027D01*
X125559723Y-16637027D01*
X125472996Y-16708201D01*
X125472992Y-16708205D01*
X125443999Y-16731999D01*
X125420205Y-16760992D01*
X124145199Y-18036000D01*
X123953479Y-18036000D01*
X123953676Y-18034001D01*
X123950000Y-17996678D01*
X123950000Y-16499151D01*
X123999898Y-16489226D01*
X124188256Y-16411205D01*
X124357774Y-16297937D01*
X124501937Y-16153774D01*
X124615205Y-15984256D01*
X124693226Y-15795898D01*
X124733000Y-15595939D01*
X124733000Y-15392061D01*
X124693226Y-15192102D01*
X124615205Y-15003744D01*
X124501937Y-14834226D01*
X124357774Y-14690063D01*
X124188256Y-14576795D01*
X123999898Y-14498774D01*
X123799939Y-14459000D01*
X123596061Y-14459000D01*
X123396102Y-14498774D01*
X123207744Y-14576795D01*
X123038226Y-14690063D01*
X122894063Y-14834226D01*
X122780795Y-15003744D01*
X122702774Y-15192102D01*
X122663000Y-15392061D01*
X122663000Y-15451330D01*
X122650000Y-15461999D01*
X122626202Y-15490997D01*
X122626201Y-15490998D01*
X122555026Y-15577724D01*
X122484454Y-15709754D01*
X122463146Y-15780001D01*
X122440998Y-15853014D01*
X122434817Y-15915774D01*
X122426324Y-16002000D01*
X122430001Y-16039332D01*
X122430000Y-17528000D01*
X119948802Y-17528000D01*
X119632000Y-17211199D01*
X119632000Y-16245151D01*
X119681898Y-16235226D01*
X119870256Y-16157205D01*
X120039774Y-16043937D01*
X120183937Y-15899774D01*
X120297205Y-15730256D01*
X120375226Y-15541898D01*
X120415000Y-15341939D01*
X120415000Y-15138061D01*
X120375226Y-14938102D01*
X120297205Y-14749744D01*
X120183937Y-14580226D01*
X120140000Y-14536289D01*
X120140000Y-13499322D01*
X120143676Y-13461999D01*
X120140000Y-13424676D01*
X120140000Y-13424667D01*
X120129003Y-13313014D01*
X120085546Y-13169753D01*
X120014974Y-13037724D01*
X119920001Y-12921999D01*
X119891002Y-12898200D01*
X119435803Y-12443002D01*
X119412001Y-12413999D01*
X119296276Y-12319026D01*
X119164247Y-12248454D01*
X119020986Y-12204997D01*
X118909333Y-12194000D01*
X118909322Y-12194000D01*
X118872000Y-12190324D01*
X118834678Y-12194000D01*
X115099322Y-12194000D01*
X115061999Y-12190324D01*
X115024676Y-12194000D01*
X115024667Y-12194000D01*
X114913014Y-12204997D01*
X114769753Y-12248454D01*
X114637724Y-12319026D01*
X114521999Y-12413999D01*
X114498201Y-12442997D01*
X113090402Y-13850796D01*
X112357803Y-13118197D01*
X112338557Y-13102403D01*
X112316601Y-13090667D01*
X112292776Y-13083440D01*
X112268000Y-13081000D01*
X93091000Y-13081000D01*
X93091000Y-9056000D01*
X102651928Y-9056000D01*
X102651928Y-10756000D01*
X102664188Y-10880482D01*
X102700498Y-11000180D01*
X102759463Y-11110494D01*
X102838815Y-11207185D01*
X102935506Y-11286537D01*
X103045820Y-11345502D01*
X103165518Y-11381812D01*
X103290000Y-11394072D01*
X104990000Y-11394072D01*
X105114482Y-11381812D01*
X105234180Y-11345502D01*
X105344494Y-11286537D01*
X105441185Y-11207185D01*
X105520537Y-11110494D01*
X105579502Y-11000180D01*
X105601513Y-10927620D01*
X105733368Y-11059475D01*
X105976589Y-11221990D01*
X106246842Y-11333932D01*
X106533740Y-11391000D01*
X106826260Y-11391000D01*
X107113158Y-11333932D01*
X107383411Y-11221990D01*
X107626632Y-11059475D01*
X107718607Y-10967500D01*
X108526928Y-10967500D01*
X108526928Y-11892500D01*
X108543992Y-12065754D01*
X108594528Y-12232350D01*
X108676595Y-12385886D01*
X108787038Y-12520462D01*
X108921614Y-12630905D01*
X109075150Y-12712972D01*
X109241746Y-12763508D01*
X109415000Y-12780572D01*
X111565000Y-12780572D01*
X111738254Y-12763508D01*
X111904850Y-12712972D01*
X112058386Y-12630905D01*
X112192962Y-12520462D01*
X112303405Y-12385886D01*
X112385472Y-12232350D01*
X112436008Y-12065754D01*
X112453072Y-11892500D01*
X112453072Y-10967500D01*
X112436008Y-10794246D01*
X112385472Y-10627650D01*
X112352552Y-10566061D01*
X127235000Y-10566061D01*
X127235000Y-10769939D01*
X127274774Y-10969898D01*
X127352795Y-11158256D01*
X127466063Y-11327774D01*
X127610226Y-11471937D01*
X127779744Y-11585205D01*
X127968102Y-11663226D01*
X128168061Y-11703000D01*
X128371939Y-11703000D01*
X128571898Y-11663226D01*
X128760256Y-11585205D01*
X128929774Y-11471937D01*
X129073937Y-11327774D01*
X129187205Y-11158256D01*
X129265226Y-10969898D01*
X129305000Y-10769939D01*
X129305000Y-10566061D01*
X129265226Y-10366102D01*
X129187205Y-10177744D01*
X129073937Y-10008226D01*
X128929774Y-9864063D01*
X128760256Y-9750795D01*
X128571898Y-9672774D01*
X128371939Y-9633000D01*
X128168061Y-9633000D01*
X127968102Y-9672774D01*
X127779744Y-9750795D01*
X127610226Y-9864063D01*
X127466063Y-10008226D01*
X127352795Y-10177744D01*
X127274774Y-10366102D01*
X127235000Y-10566061D01*
X112352552Y-10566061D01*
X112303405Y-10474114D01*
X112192962Y-10339538D01*
X112058386Y-10229095D01*
X111904850Y-10147028D01*
X111738254Y-10096492D01*
X111565000Y-10079428D01*
X109415000Y-10079428D01*
X109241746Y-10096492D01*
X109075150Y-10147028D01*
X108921614Y-10229095D01*
X108787038Y-10339538D01*
X108676595Y-10474114D01*
X108594528Y-10627650D01*
X108543992Y-10794246D01*
X108526928Y-10967500D01*
X107718607Y-10967500D01*
X107833475Y-10852632D01*
X107995990Y-10609411D01*
X108107932Y-10339158D01*
X108165000Y-10052260D01*
X108165000Y-9759740D01*
X108107932Y-9472842D01*
X107995990Y-9202589D01*
X107972545Y-9167500D01*
X108526928Y-9167500D01*
X108539188Y-9291982D01*
X108575498Y-9411680D01*
X108634463Y-9521994D01*
X108713815Y-9618685D01*
X108810506Y-9698037D01*
X108920820Y-9757002D01*
X109040518Y-9793312D01*
X109165000Y-9805572D01*
X110204250Y-9802500D01*
X110363000Y-9643750D01*
X110363000Y-8582000D01*
X110617000Y-8582000D01*
X110617000Y-9643750D01*
X110775750Y-9802500D01*
X111815000Y-9805572D01*
X111939482Y-9793312D01*
X112059180Y-9757002D01*
X112169494Y-9698037D01*
X112266185Y-9618685D01*
X112345537Y-9521994D01*
X112404502Y-9411680D01*
X112440812Y-9291982D01*
X112453072Y-9167500D01*
X112450000Y-8740750D01*
X112291250Y-8582000D01*
X110617000Y-8582000D01*
X110363000Y-8582000D01*
X108688750Y-8582000D01*
X108530000Y-8740750D01*
X108526928Y-9167500D01*
X107972545Y-9167500D01*
X107833475Y-8959368D01*
X107626632Y-8752525D01*
X107383411Y-8590010D01*
X107113158Y-8478068D01*
X106826260Y-8421000D01*
X106533740Y-8421000D01*
X106246842Y-8478068D01*
X105976589Y-8590010D01*
X105733368Y-8752525D01*
X105601513Y-8884380D01*
X105579502Y-8811820D01*
X105520537Y-8701506D01*
X105441185Y-8604815D01*
X105344494Y-8525463D01*
X105234180Y-8466498D01*
X105114482Y-8430188D01*
X104990000Y-8417928D01*
X103290000Y-8417928D01*
X103165518Y-8430188D01*
X103045820Y-8466498D01*
X102935506Y-8525463D01*
X102838815Y-8604815D01*
X102759463Y-8701506D01*
X102700498Y-8811820D01*
X102664188Y-8931518D01*
X102651928Y-9056000D01*
X93091000Y-9056000D01*
X93091000Y-7742500D01*
X108526928Y-7742500D01*
X108530000Y-8169250D01*
X108688750Y-8328000D01*
X110363000Y-8328000D01*
X110363000Y-7266250D01*
X110617000Y-7266250D01*
X110617000Y-8328000D01*
X112291250Y-8328000D01*
X112450000Y-8169250D01*
X112453072Y-7742500D01*
X112440812Y-7618018D01*
X112404502Y-7498320D01*
X112345537Y-7388006D01*
X112266185Y-7291315D01*
X112169494Y-7211963D01*
X112059180Y-7152998D01*
X111939482Y-7116688D01*
X111815000Y-7104428D01*
X110775750Y-7107500D01*
X110617000Y-7266250D01*
X110363000Y-7266250D01*
X110204250Y-7107500D01*
X109165000Y-7104428D01*
X109040518Y-7116688D01*
X108920820Y-7152998D01*
X108810506Y-7211963D01*
X108713815Y-7291315D01*
X108634463Y-7388006D01*
X108575498Y-7498320D01*
X108539188Y-7618018D01*
X108526928Y-7742500D01*
X93091000Y-7742500D01*
X93091000Y-6044861D01*
X114027000Y-6044861D01*
X114027000Y-6248739D01*
X114066774Y-6448698D01*
X114144795Y-6637056D01*
X114258063Y-6806574D01*
X114402226Y-6950737D01*
X114571744Y-7064005D01*
X114760102Y-7142026D01*
X114960061Y-7181800D01*
X115022199Y-7181800D01*
X117355701Y-9515303D01*
X117379499Y-9544301D01*
X117495224Y-9639274D01*
X117627253Y-9709846D01*
X117770514Y-9753303D01*
X117882167Y-9764300D01*
X117882176Y-9764300D01*
X117919499Y-9767976D01*
X117956822Y-9764300D01*
X119882789Y-9764300D01*
X119914026Y-9795537D01*
X120083544Y-9908805D01*
X120271902Y-9986826D01*
X120471861Y-10026600D01*
X120675739Y-10026600D01*
X120875698Y-9986826D01*
X121064056Y-9908805D01*
X121233574Y-9795537D01*
X121377737Y-9651374D01*
X121491005Y-9481856D01*
X121569026Y-9293498D01*
X121608800Y-9093539D01*
X121608800Y-8889661D01*
X121569026Y-8689702D01*
X121491005Y-8501344D01*
X121377737Y-8331826D01*
X121233574Y-8187663D01*
X121064056Y-8074395D01*
X120875698Y-7996374D01*
X120675739Y-7956600D01*
X120471861Y-7956600D01*
X120271902Y-7996374D01*
X120083544Y-8074395D01*
X119914026Y-8187663D01*
X119857389Y-8244300D01*
X118234302Y-8244300D01*
X116097000Y-6106999D01*
X116097000Y-6044861D01*
X116057226Y-5844902D01*
X115979205Y-5656544D01*
X115865937Y-5487026D01*
X115721774Y-5342863D01*
X115552256Y-5229595D01*
X115363898Y-5151574D01*
X115163939Y-5111800D01*
X114960061Y-5111800D01*
X114760102Y-5151574D01*
X114571744Y-5229595D01*
X114402226Y-5342863D01*
X114258063Y-5487026D01*
X114144795Y-5656544D01*
X114066774Y-5844902D01*
X114027000Y-6044861D01*
X93091000Y-6044861D01*
X93091000Y-5230620D01*
X93658062Y-4699000D01*
X116270961Y-4699000D01*
X118264830Y-7191336D01*
X118282213Y-7209159D01*
X118302739Y-7223248D01*
X118325620Y-7233062D01*
X118349975Y-7238223D01*
X118364000Y-7239000D01*
X124968000Y-7239000D01*
X124992776Y-7236560D01*
X125016601Y-7229333D01*
X125038557Y-7217597D01*
X125057803Y-7201803D01*
X125076902Y-7177341D01*
X126599354Y-4639921D01*
X126696740Y-4493842D01*
X126729273Y-4657399D01*
X126807294Y-4845757D01*
X126920562Y-5015275D01*
X127064725Y-5159438D01*
X127234243Y-5272706D01*
X127422601Y-5350727D01*
X127622560Y-5390501D01*
X127684697Y-5390501D01*
X127885199Y-5591002D01*
X127908997Y-5620001D01*
X128024722Y-5714974D01*
X128156751Y-5785546D01*
X128300012Y-5829003D01*
X128411665Y-5840000D01*
X128411674Y-5840000D01*
X128448997Y-5843676D01*
X128486320Y-5840000D01*
X128590199Y-5840000D01*
X128780000Y-6029802D01*
X128780001Y-8852668D01*
X128776324Y-8890000D01*
X128780001Y-8927333D01*
X128787553Y-9004003D01*
X128790998Y-9038985D01*
X128834454Y-9182246D01*
X128905026Y-9314276D01*
X128969780Y-9393178D01*
X129000000Y-9430001D01*
X129028998Y-9453799D01*
X130246201Y-10671003D01*
X130269999Y-10700001D01*
X130385724Y-10794974D01*
X130517753Y-10865546D01*
X130661014Y-10909003D01*
X130772667Y-10920000D01*
X130772676Y-10920000D01*
X130809999Y-10923676D01*
X130847322Y-10920000D01*
X131376289Y-10920000D01*
X131420226Y-10963937D01*
X131589744Y-11077205D01*
X131778102Y-11155226D01*
X131978061Y-11195000D01*
X132181939Y-11195000D01*
X132381898Y-11155226D01*
X132570256Y-11077205D01*
X132739774Y-10963937D01*
X132883937Y-10819774D01*
X132997205Y-10650256D01*
X133075226Y-10461898D01*
X133115000Y-10261939D01*
X133115000Y-10058061D01*
X133075226Y-9858102D01*
X132997205Y-9669744D01*
X132883937Y-9500226D01*
X132739774Y-9356063D01*
X132570256Y-9242795D01*
X132381898Y-9164774D01*
X132181939Y-9125000D01*
X131978061Y-9125000D01*
X131778102Y-9164774D01*
X131589744Y-9242795D01*
X131420226Y-9356063D01*
X131376289Y-9400000D01*
X131124802Y-9400000D01*
X130300000Y-8575199D01*
X130300000Y-5752333D01*
X130303677Y-5715000D01*
X130289003Y-5566014D01*
X130245546Y-5422753D01*
X130174974Y-5290724D01*
X130103799Y-5203997D01*
X130080001Y-5174999D01*
X130051004Y-5151202D01*
X129468803Y-4569002D01*
X129445001Y-4539999D01*
X129329276Y-4445026D01*
X129197247Y-4374454D01*
X129053986Y-4330997D01*
X128942333Y-4320000D01*
X128942322Y-4320000D01*
X128905000Y-4316324D01*
X128867678Y-4320000D01*
X128763800Y-4320000D01*
X128759499Y-4315699D01*
X128759499Y-4253562D01*
X128719725Y-4053603D01*
X128641704Y-3865245D01*
X128528436Y-3695727D01*
X128384273Y-3551564D01*
X128214755Y-3438296D01*
X128026397Y-3360275D01*
X127826438Y-3320501D01*
X127622560Y-3320501D01*
X127457015Y-3353430D01*
X128405968Y-1930000D01*
X147701000Y-1930000D01*
X147701000Y-16512000D01*
%TD*%
M02*
