%TF.GenerationSoftware,KiCad,Pcbnew,(5.1.6)-1*%
%TF.CreationDate,2020-12-03T10:32:48+03:00*%
%TF.ProjectId,Handheld graphics device,48616e64-6865-46c6-9420-677261706869,rev?*%
%TF.SameCoordinates,Original*%
%TF.FileFunction,Copper,L2,Bot*%
%TF.FilePolarity,Positive*%
%FSLAX46Y46*%
G04 Gerber Fmt 4.6, Leading zero omitted, Abs format (unit mm)*
G04 Created by KiCad (PCBNEW (5.1.6)-1) date 2020-12-03 10:32:48*
%MOMM*%
%LPD*%
G01*
G04 APERTURE LIST*
%TA.AperFunction,ComponentPad*%
%ADD10C,1.500000*%
%TD*%
%TA.AperFunction,ComponentPad*%
%ADD11O,1.700000X1.700000*%
%TD*%
%TA.AperFunction,ComponentPad*%
%ADD12R,1.700000X1.700000*%
%TD*%
%TA.AperFunction,ComponentPad*%
%ADD13C,2.286000*%
%TD*%
%TA.AperFunction,ComponentPad*%
%ADD14O,1.200000X1.900000*%
%TD*%
%TA.AperFunction,ComponentPad*%
%ADD15C,1.450000*%
%TD*%
%TA.AperFunction,ViaPad*%
%ADD16C,0.800000*%
%TD*%
%TA.AperFunction,Conductor*%
%ADD17C,0.250000*%
%TD*%
%TA.AperFunction,Conductor*%
%ADD18C,0.200000*%
%TD*%
G04 APERTURE END LIST*
D10*
%TO.P,Y1,2*%
%TO.N,xtal1*%
X98552000Y-24946000D03*
%TO.P,Y1,1*%
%TO.N,xtal2*%
X98552000Y-20066000D03*
%TD*%
D11*
%TO.P,usb_boot1,2*%
%TO.N,Net-(R7-Pad2)*%
X106680000Y-9906000D03*
D12*
%TO.P,usb_boot1,1*%
%TO.N,Net-(U2-Pad33)*%
X104140000Y-9906000D03*
%TD*%
D13*
%TO.P,SW8,1*%
%TO.N,8*%
X281940000Y-5080000D03*
%TO.P,SW8,2*%
%TO.N,Unfiltered*%
X275590000Y-7620000D03*
%TD*%
%TO.P,SW7,1*%
%TO.N,7*%
X264160000Y-5080000D03*
%TO.P,SW7,2*%
%TO.N,Unfiltered*%
X257810000Y-7620000D03*
%TD*%
%TO.P,SW6,1*%
%TO.N,6*%
X246380000Y-5080000D03*
%TO.P,SW6,2*%
%TO.N,Unfiltered*%
X240030000Y-7620000D03*
%TD*%
%TO.P,SW5,1*%
%TO.N,5*%
X228600000Y-5080000D03*
%TO.P,SW5,2*%
%TO.N,Unfiltered*%
X222250000Y-7620000D03*
%TD*%
%TO.P,SW4,1*%
%TO.N,4*%
X210820000Y-5080000D03*
%TO.P,SW4,2*%
%TO.N,Unfiltered*%
X204470000Y-7620000D03*
%TD*%
%TO.P,SW3,1*%
%TO.N,3*%
X193040000Y-5080000D03*
%TO.P,SW3,2*%
%TO.N,Unfiltered*%
X186690000Y-7620000D03*
%TD*%
%TO.P,SW2,1*%
%TO.N,2*%
X175260000Y-5080000D03*
%TO.P,SW2,2*%
%TO.N,Unfiltered*%
X168910000Y-7620000D03*
%TD*%
%TO.P,SW1,1*%
%TO.N,1*%
X157480000Y-5080000D03*
%TO.P,SW1,2*%
%TO.N,Unfiltered*%
X151130000Y-7620000D03*
%TD*%
D11*
%TO.P,J2,5*%
%TO.N,rst*%
X106680000Y-34798000D03*
%TO.P,J2,4*%
%TO.N,TX*%
X104140000Y-34798000D03*
%TO.P,J2,3*%
%TO.N,RX*%
X101600000Y-34798000D03*
%TO.P,J2,2*%
%TO.N,SDA*%
X99060000Y-34798000D03*
D12*
%TO.P,J2,1*%
%TO.N,SCL*%
X96520000Y-34798000D03*
%TD*%
D14*
%TO.P,J1,6*%
%TO.N,GND*%
X117912000Y-3080500D03*
X124912000Y-3080500D03*
D15*
X118912000Y-5780500D03*
X123912000Y-5780500D03*
%TD*%
%TO.P,C4,2*%
%TO.N,GND*%
%TA.AperFunction,SMDPad,CuDef*%
G36*
G01*
X111565000Y-9167500D02*
X109415000Y-9167500D01*
G75*
G02*
X109165000Y-8917500I0J250000D01*
G01*
X109165000Y-7992500D01*
G75*
G02*
X109415000Y-7742500I250000J0D01*
G01*
X111565000Y-7742500D01*
G75*
G02*
X111815000Y-7992500I0J-250000D01*
G01*
X111815000Y-8917500D01*
G75*
G02*
X111565000Y-9167500I-250000J0D01*
G01*
G37*
%TD.AperFunction*%
%TO.P,C4,1*%
%TO.N,Net-(C4-Pad1)*%
%TA.AperFunction,SMDPad,CuDef*%
G36*
G01*
X111565000Y-12142500D02*
X109415000Y-12142500D01*
G75*
G02*
X109165000Y-11892500I0J250000D01*
G01*
X109165000Y-10967500D01*
G75*
G02*
X109415000Y-10717500I250000J0D01*
G01*
X111565000Y-10717500D01*
G75*
G02*
X111815000Y-10967500I0J-250000D01*
G01*
X111815000Y-11892500D01*
G75*
G02*
X111565000Y-12142500I-250000J0D01*
G01*
G37*
%TD.AperFunction*%
%TD*%
D16*
%TO.N,*%
X96520000Y-17018000D03*
%TO.N,rst*%
X115062000Y-37592000D03*
%TO.N,GND*%
X130810000Y-23114000D03*
%TO.N,Net-(C3-Pad1)*%
X130810000Y-20066000D03*
%TO.N,GND*%
X110490000Y-8890000D03*
%TO.N,Net-(C4-Pad1)*%
X110490000Y-11430000D03*
%TO.N,rst*%
X118110000Y-33020000D03*
%TO.N,GND*%
X127000000Y-19558000D03*
X127000000Y-25146000D03*
X117440000Y-22190000D03*
X127456510Y-1829490D03*
X137265000Y-11370000D03*
X120650000Y-13970000D03*
%TO.N,VBUS*%
X132080000Y-10160000D03*
X127724499Y-4355501D03*
%TO.N,Unfiltered*%
X119380000Y-15240000D03*
X123698000Y-15494000D03*
X128270000Y-10668000D03*
X109723845Y-19054155D03*
%TO.N,Net-(C3-Pad1)*%
X127000000Y-20574000D03*
%TO.N,Net-(C7-Pad1)*%
X115062000Y-6146800D03*
X120573800Y-8991600D03*
%TO.N,rst*%
X115570000Y-20320000D03*
%TO.N,Net-(R5-Pad2)*%
X104140000Y-39370000D03*
X114032000Y-27672000D03*
%TO.N,1*%
X157480000Y-20320000D03*
X118364000Y-14732000D03*
%TO.N,2*%
X173990000Y-20320000D03*
X117332000Y-15256000D03*
%TO.N,3*%
X193040000Y-20320000D03*
X116332000Y-14732000D03*
%TO.N,4*%
X209550000Y-20320000D03*
X115316000Y-15240000D03*
%TO.N,5*%
X228600000Y-20320000D03*
X119634000Y-26924000D03*
%TO.N,6*%
X246380000Y-20320000D03*
X120904000Y-30226000D03*
%TO.N,7*%
X264160000Y-20320000D03*
X121920000Y-30066000D03*
X131826000Y-27940000D03*
X188214000Y-26416000D03*
%TO.N,8*%
X281940000Y-20320000D03*
X116840000Y-21082000D03*
X132842000Y-26162000D03*
X136906000Y-25400000D03*
%TD*%
D17*
%TO.N,GND*%
X127000000Y-25146000D02*
X127000000Y-25146000D01*
X127000000Y-19558000D02*
X126243640Y-19558000D01*
X126243640Y-19558000D02*
X125205602Y-20596036D01*
X125205602Y-20596036D02*
X122913964Y-20596036D01*
X122913964Y-20596036D02*
X122428000Y-21082000D01*
X122428000Y-21082000D02*
X122428000Y-24638000D01*
X122428000Y-24638000D02*
X123698000Y-25908000D01*
X126238000Y-25908000D02*
X127000000Y-25146000D01*
X123698000Y-25908000D02*
X126238000Y-25908000D01*
X128778000Y-25146000D02*
X130810000Y-23114000D01*
X127000000Y-25146000D02*
X128778000Y-25146000D01*
X118548000Y-21082000D02*
X117440000Y-22190000D01*
X122428000Y-21082000D02*
X122428000Y-21082000D01*
X127456510Y-1829490D02*
X129794000Y-4166980D01*
X129794000Y-4166980D02*
X131166980Y-4166980D01*
X137265000Y-10265000D02*
X137265000Y-11370000D01*
X131166980Y-4166980D02*
X137265000Y-10265000D01*
X122428000Y-21082000D02*
X118548000Y-21082000D01*
X114865991Y-16827627D02*
X118634403Y-20596037D01*
X111914462Y-19779156D02*
X114865991Y-16827627D01*
X109375844Y-19779156D02*
X111914462Y-19779156D01*
X126434315Y-19558000D02*
X127000000Y-19558000D01*
X118634403Y-20596037D02*
X125396278Y-20596037D01*
X108998844Y-19402156D02*
X109375844Y-19779156D01*
X108998844Y-18380746D02*
X108998844Y-19402156D01*
X114875599Y-12503991D02*
X108998844Y-18380746D01*
X119183991Y-12503991D02*
X114875599Y-12503991D01*
X125396278Y-20596037D02*
X126434315Y-19558000D01*
X120650000Y-13970000D02*
X119183991Y-12503991D01*
%TO.N,VBUS*%
X127724499Y-4355501D02*
X128448998Y-5080000D01*
X128448998Y-5080000D02*
X128905000Y-5080000D01*
X128905000Y-5080000D02*
X129540000Y-5715000D01*
X129540000Y-5715000D02*
X129540000Y-8890000D01*
X129540000Y-8890000D02*
X130810000Y-10160000D01*
X130810000Y-10160000D02*
X132080000Y-10160000D01*
%TO.N,Unfiltered*%
X119380000Y-15240000D02*
X118872000Y-15748000D01*
X118872000Y-15748000D02*
X118872000Y-17526000D01*
X118872000Y-17526000D02*
X119634000Y-18288000D01*
X119634000Y-18288000D02*
X122682000Y-18288000D01*
X122682000Y-18288000D02*
X122936000Y-18288000D01*
X122936000Y-18288000D02*
X123190000Y-18034000D01*
X123190000Y-18034000D02*
X123190000Y-16002000D01*
X123190000Y-16002000D02*
X123698000Y-15494000D01*
X123698000Y-15494000D02*
X123698000Y-15494000D01*
X109723845Y-18292155D02*
X109723845Y-19054155D01*
X115062000Y-12954000D02*
X109723845Y-18292155D01*
X118872000Y-12954000D02*
X115062000Y-12954000D01*
X119380000Y-15240000D02*
X119380000Y-13462000D01*
X119380000Y-13462000D02*
X118872000Y-12954000D01*
%TO.N,Net-(C3-Pad1)*%
X130302000Y-20574000D02*
X130810000Y-20066000D01*
X127000000Y-20574000D02*
X130302000Y-20574000D01*
%TO.N,Net-(C7-Pad1)*%
X115062000Y-6146800D02*
X117919500Y-9004300D01*
X120561100Y-9004300D02*
X120573800Y-8991600D01*
X117919500Y-9004300D02*
X120561100Y-9004300D01*
%TO.N,rst*%
X106680000Y-34798000D02*
X106680000Y-33020000D01*
X106680000Y-33020000D02*
X105410000Y-31750000D01*
X105410000Y-31750000D02*
X97282998Y-31750000D01*
X97282998Y-31750000D02*
X93980000Y-31750000D01*
X93980000Y-31750000D02*
X92710000Y-33020000D01*
X92710000Y-33020000D02*
X92710000Y-33273002D01*
X92710000Y-33273002D02*
X92710000Y-39370000D01*
X92710000Y-39370000D02*
X96520000Y-43180000D01*
X96520000Y-43180000D02*
X101600000Y-43180000D01*
X101600000Y-43180000D02*
X102870000Y-44450000D01*
X102870000Y-44450000D02*
X105410000Y-44450000D01*
X115570000Y-34290000D02*
X115570000Y-20320000D01*
X115570000Y-20320000D02*
X115570000Y-20320000D01*
X118110000Y-33020000D02*
X116840000Y-33020000D01*
X116840000Y-33020000D02*
X115570000Y-34290000D01*
X112268000Y-37592000D02*
X115062000Y-37592000D01*
X112268000Y-37592000D02*
X115570000Y-34290000D01*
X105410000Y-44450000D02*
X112268000Y-37592000D01*
%TO.N,Net-(R5-Pad2)*%
X105410000Y-38100000D02*
X104140000Y-39370000D01*
X114032000Y-31383000D02*
X109855000Y-35560000D01*
X114032000Y-27672000D02*
X114032000Y-31383000D01*
X108585000Y-38100000D02*
X105410000Y-38100000D01*
X109855000Y-35560000D02*
X109855000Y-36830000D01*
X109855000Y-36830000D02*
X108585000Y-38100000D01*
%TO.N,1*%
X158115000Y-19685000D02*
X157480000Y-20320000D01*
X158115000Y-8255000D02*
X158115000Y-19685000D01*
X157480000Y-5080000D02*
X157480000Y-7620000D01*
X157480000Y-7620000D02*
X158115000Y-8255000D01*
X118364000Y-17780000D02*
X119380000Y-18796000D01*
X118364000Y-14732000D02*
X118364000Y-17780000D01*
X154432000Y-17272000D02*
X157480000Y-20320000D01*
X124460000Y-18796000D02*
X125984000Y-17272000D01*
X119380000Y-18796000D02*
X124460000Y-18796000D01*
X125984000Y-17272000D02*
X154432000Y-17272000D01*
%TO.N,2*%
X173990000Y-20320000D02*
X174625000Y-20320000D01*
X174625000Y-20320000D02*
X175895000Y-19050000D01*
X175895000Y-5715000D02*
X175260000Y-5080000D01*
X175895000Y-19050000D02*
X175895000Y-5715000D01*
X171450000Y-22860000D02*
X173990000Y-20320000D01*
X117332000Y-17384410D02*
X119193600Y-19246010D01*
X152908000Y-22860000D02*
X171450000Y-22860000D01*
X147828000Y-17780000D02*
X152908000Y-22860000D01*
X117332000Y-15256000D02*
X117332000Y-17384410D01*
X119193600Y-19246010D02*
X124646401Y-19246009D01*
X126112410Y-17780000D02*
X147828000Y-17780000D01*
X124646401Y-19246009D02*
X126112410Y-17780000D01*
%TO.N,3*%
X193040000Y-20320000D02*
X193040000Y-5080000D01*
X119007201Y-19696019D02*
X124832802Y-19696018D01*
X116332000Y-14732000D02*
X116332000Y-17020820D01*
X116332000Y-17020820D02*
X119007201Y-19696019D01*
X152721600Y-23310010D02*
X190049990Y-23310010D01*
X190049990Y-23310010D02*
X193040000Y-20320000D01*
X147641600Y-18230010D02*
X152721600Y-23310010D01*
X126298810Y-18230010D02*
X147641600Y-18230010D01*
X124832802Y-19696018D02*
X126298810Y-18230010D01*
%TO.N,4*%
X211455000Y-5715000D02*
X210820000Y-5080000D01*
X211455000Y-11430000D02*
X211455000Y-5715000D01*
X209550000Y-20320000D02*
X209550000Y-13335000D01*
X209550000Y-13335000D02*
X211455000Y-11430000D01*
X115316000Y-15240000D02*
X115316000Y-16641226D01*
X118820802Y-20146028D02*
X125019203Y-20146027D01*
X115316000Y-16641226D02*
X118820802Y-20146028D01*
X125019203Y-20146027D02*
X126485210Y-18680020D01*
X206109980Y-23760020D02*
X209550000Y-20320000D01*
X147455200Y-18680020D02*
X152535200Y-23760020D01*
X152535200Y-23760020D02*
X206109980Y-23760020D01*
X126485210Y-18680020D02*
X147455200Y-18680020D01*
%TO.N,5*%
X229235000Y-5715000D02*
X228600000Y-5080000D01*
X229235000Y-11430000D02*
X229235000Y-5715000D01*
X228600000Y-20320000D02*
X228600000Y-12065000D01*
X228600000Y-12065000D02*
X229235000Y-11430000D01*
X228600000Y-20320000D02*
X224709970Y-24210030D01*
X224709970Y-24210030D02*
X136063970Y-24210030D01*
X136063970Y-24210030D02*
X133096000Y-27178000D01*
X133096000Y-27178000D02*
X120142000Y-27178000D01*
X120142000Y-27178000D02*
X119888000Y-27178000D01*
X119888000Y-27178000D02*
X119634000Y-26924000D01*
X119634000Y-26924000D02*
X119634000Y-26924000D01*
%TO.N,6*%
X246380000Y-20320000D02*
X246380000Y-5080000D01*
X246380000Y-20320000D02*
X242039960Y-24660040D01*
X242039960Y-24660040D02*
X136250370Y-24660040D01*
X136250370Y-24660040D02*
X129668410Y-31242000D01*
X129668410Y-31242000D02*
X121920000Y-31242000D01*
X121920000Y-31242000D02*
X120904000Y-30226000D01*
X120904000Y-30226000D02*
X120904000Y-30226000D01*
%TO.N,7*%
X264795000Y-5715000D02*
X264160000Y-5080000D01*
X264160000Y-20320000D02*
X264160000Y-12065000D01*
X264795000Y-11430000D02*
X264795000Y-5715000D01*
X264160000Y-12065000D02*
X264795000Y-11430000D01*
X121920000Y-30066000D02*
X129700000Y-30066000D01*
X129700000Y-30066000D02*
X131826000Y-27940000D01*
X131826000Y-27940000D02*
X131826000Y-27940000D01*
X258064000Y-26416000D02*
X264160000Y-20320000D01*
X188214000Y-26416000D02*
X258064000Y-26416000D01*
%TO.N,8*%
X281940000Y-20320000D02*
X281940000Y-12065000D01*
X281940000Y-12065000D02*
X282575000Y-11430000D01*
X282575000Y-11430000D02*
X282575000Y-8255000D01*
X281940000Y-7620000D02*
X281940000Y-5080000D01*
X282575000Y-8255000D02*
X281940000Y-7620000D01*
X275118999Y-27141001D02*
X137450999Y-27141001D01*
X281940000Y-20320000D02*
X275118999Y-27141001D01*
D18*
X116440001Y-22226003D02*
X120547008Y-26333010D01*
X116840000Y-21082000D02*
X116440001Y-21481999D01*
X120547008Y-26333010D02*
X128098990Y-26333010D01*
X116440001Y-21481999D02*
X116440001Y-22226003D01*
X128270000Y-26162000D02*
X132842000Y-26162000D01*
X128098990Y-26333010D02*
X128270000Y-26162000D01*
X132842000Y-26162000D02*
X133096000Y-26162000D01*
X137450999Y-27141001D02*
X137377001Y-27141001D01*
X137377001Y-27141001D02*
X136906000Y-26670000D01*
X136906000Y-26670000D02*
X136906000Y-25400000D01*
X136906000Y-25400000D02*
X136906000Y-25400000D01*
%TD*%
M02*
