%TF.GenerationSoftware,KiCad,Pcbnew,(5.1.6)-1*%
%TF.CreationDate,2020-12-03T10:32:48+03:00*%
%TF.ProjectId,Handheld graphics device,48616e64-6865-46c6-9420-677261706869,rev?*%
%TF.SameCoordinates,Original*%
%TF.FileFunction,Soldermask,Bot*%
%TF.FilePolarity,Negative*%
%FSLAX46Y46*%
G04 Gerber Fmt 4.6, Leading zero omitted, Abs format (unit mm)*
G04 Created by KiCad (PCBNEW (5.1.6)-1) date 2020-12-03 10:32:48*
%MOMM*%
%LPD*%
G01*
G04 APERTURE LIST*
%ADD10C,1.600000*%
%ADD11O,1.800000X1.800000*%
%ADD12R,1.800000X1.800000*%
%ADD13C,2.386000*%
%ADD14C,4.087800*%
%ADD15C,1.801800*%
%ADD16O,1.300000X2.000000*%
%ADD17C,1.550000*%
G04 APERTURE END LIST*
D10*
%TO.C,Y1*%
X98552000Y-24946000D03*
X98552000Y-20066000D03*
%TD*%
D11*
%TO.C,usb_boot1*%
X106680000Y-9906000D03*
D12*
X104140000Y-9906000D03*
%TD*%
D13*
%TO.C,SW8*%
X281940000Y-5080000D03*
D14*
X279400000Y-10160000D03*
D13*
X275590000Y-7620000D03*
D15*
X284480000Y-10160000D03*
X274320000Y-10160000D03*
%TD*%
D13*
%TO.C,SW7*%
X264160000Y-5080000D03*
D14*
X261620000Y-10160000D03*
D13*
X257810000Y-7620000D03*
D15*
X266700000Y-10160000D03*
X256540000Y-10160000D03*
%TD*%
D13*
%TO.C,SW6*%
X246380000Y-5080000D03*
D14*
X243840000Y-10160000D03*
D13*
X240030000Y-7620000D03*
D15*
X248920000Y-10160000D03*
X238760000Y-10160000D03*
%TD*%
D13*
%TO.C,SW5*%
X228600000Y-5080000D03*
D14*
X226060000Y-10160000D03*
D13*
X222250000Y-7620000D03*
D15*
X231140000Y-10160000D03*
X220980000Y-10160000D03*
%TD*%
D13*
%TO.C,SW4*%
X210820000Y-5080000D03*
D14*
X208280000Y-10160000D03*
D13*
X204470000Y-7620000D03*
D15*
X213360000Y-10160000D03*
X203200000Y-10160000D03*
%TD*%
D13*
%TO.C,SW3*%
X193040000Y-5080000D03*
D14*
X190500000Y-10160000D03*
D13*
X186690000Y-7620000D03*
D15*
X195580000Y-10160000D03*
X185420000Y-10160000D03*
%TD*%
D13*
%TO.C,SW2*%
X175260000Y-5080000D03*
D14*
X172720000Y-10160000D03*
D13*
X168910000Y-7620000D03*
D15*
X177800000Y-10160000D03*
X167640000Y-10160000D03*
%TD*%
D13*
%TO.C,SW1*%
X157480000Y-5080000D03*
D14*
X154940000Y-10160000D03*
D13*
X151130000Y-7620000D03*
D15*
X160020000Y-10160000D03*
X149860000Y-10160000D03*
%TD*%
D11*
%TO.C,J2*%
X106680000Y-34798000D03*
X104140000Y-34798000D03*
X101600000Y-34798000D03*
X99060000Y-34798000D03*
D12*
X96520000Y-34798000D03*
%TD*%
D16*
%TO.C,J1*%
X117912000Y-3080500D03*
X124912000Y-3080500D03*
D17*
X118912000Y-5780500D03*
X123912000Y-5780500D03*
%TD*%
%TO.C,C4*%
G36*
G01*
X111597456Y-9217500D02*
X109382544Y-9217500D01*
G75*
G02*
X109115000Y-8949956I0J267544D01*
G01*
X109115000Y-7960044D01*
G75*
G02*
X109382544Y-7692500I267544J0D01*
G01*
X111597456Y-7692500D01*
G75*
G02*
X111865000Y-7960044I0J-267544D01*
G01*
X111865000Y-8949956D01*
G75*
G02*
X111597456Y-9217500I-267544J0D01*
G01*
G37*
G36*
G01*
X111597456Y-12192500D02*
X109382544Y-12192500D01*
G75*
G02*
X109115000Y-11924956I0J267544D01*
G01*
X109115000Y-10935044D01*
G75*
G02*
X109382544Y-10667500I267544J0D01*
G01*
X111597456Y-10667500D01*
G75*
G02*
X111865000Y-10935044I0J-267544D01*
G01*
X111865000Y-11924956D01*
G75*
G02*
X111597456Y-12192500I-267544J0D01*
G01*
G37*
%TD*%
M02*
